<svg width="48" height="51" viewBox="0 0 48 51" fill="none" xmlns="http://www.w3.org/2000/svg">
<path d="M24.0015 10.7732C24.2412 10.7732 24.5493 10.7921 24.8988 10.8263C24.5348 10.3144 24.2336 9.7607 24.0015 9.17703C23.8115 9.68587 23.4986 10.2573 23.1043 10.8263C23.4537 10.7921 23.7619 10.7732 24.0015 10.7732ZM24.0015 6.80519C24.1373 6.5549 24.3038 6.36482 24.4502 6.23849C25.125 5.65366 25.946 5.26314 26.8256 5.10865L24.0015 2.28463L21.1775 5.10865C22.057 5.26314 22.8781 5.65366 23.5529 6.23849C23.6993 6.36482 23.8658 6.5549 24.0015 6.80519ZM6.39865 30.2285L0.509766 40.1928L2.03629 41.0948L7.67016 31.5614L8.23686 31.2615C8.58486 30.3717 8.97168 29.4976 9.39621 28.6417L6.39865 30.2285ZM15.0844 18.8934L12.1647 19.6455L10.5804 15.4189L2.39284 9.35412L1.33619 10.7779L9.10224 16.531L11.0632 21.7588L15.2898 20.6703L15.4398 20.5333C15.3077 19.9897 15.1892 19.4429 15.0844 18.8934ZM16.3925 12.9385C16.1026 12.5475 15.873 12.1154 15.7113 11.6563L12.2828 6.21606L5.074 0.507813L3.97249 1.89739L10.944 7.41674L15.1765 14.1332C15.2898 13.9609 15.415 13.7861 15.5826 13.6102C15.8152 13.3694 16.0891 13.1462 16.3925 12.9385ZM38.6057 28.6406C39.013 29.4575 39.4014 30.33 39.765 31.2603L40.3317 31.5602L45.9656 41.0936L47.4921 40.1917L41.6032 30.2261L38.6057 28.6406ZM32.7121 20.6703L36.9387 21.7588L38.8996 16.531L46.6657 10.7779L45.6102 9.35294L37.4227 15.4177L35.8383 19.6443L32.9187 18.8923C32.8148 19.4318 32.6991 19.9784 32.5633 20.5333L32.7121 20.6703ZM32.4193 13.6102C32.5869 13.7861 32.7121 13.9597 32.8254 14.1332L37.0579 7.41792L44.0294 1.89857L42.9279 0.507813L35.7191 6.21606L32.2953 11.6504C32.1277 12.1097 31.9093 12.5477 31.6117 12.9396C31.914 13.1462 32.1879 13.3694 32.4193 13.6102ZM26.6555 34.3748C27.2565 37.4196 29.273 45.6838 31.3638 47.3343C33.4393 48.9718 37.4522 51.2244 39.3849 50.2859C40.2432 49.8703 40.68 48.7463 40.6824 46.9447C40.7013 33.5979 35.686 26.1719 32.0096 22.5191C31.7097 23.5161 31.3534 24.4952 30.9423 25.4517C29.6071 28.4894 26.2128 30.6063 24.0015 30.6063C21.7914 30.6063 18.396 28.4894 17.0607 25.4506C16.6497 24.494 16.2934 23.5149 15.9935 22.5179C12.3182 26.1707 7.30181 33.5968 7.3207 46.9436C7.32306 48.7452 7.75989 49.8691 8.61819 50.2847C10.5497 51.2197 14.5649 48.9707 16.6393 47.3332C18.7301 45.6827 20.7466 37.4184 21.3475 34.3736L23.0877 34.716C22.9532 35.3972 22.1881 39.1385 21.0004 42.6473C21.8224 43.4109 22.8831 43.8668 24.0027 43.9377C25.1224 43.8678 26.1833 43.4122 27.005 42.6485C25.8161 39.1397 25.0523 35.3984 24.9177 34.716L26.6555 34.3748Z" fill="#292E35"/>
<path d="M32.1415 15.7528C32.1745 14.9807 31.609 14.3231 30.7519 13.7824C30.4048 14.0303 29.9998 14.1838 29.5453 14.1838C28.3871 14.1838 27.0731 13.2971 25.9928 12.1649C25.1995 12.0268 24.4911 11.9536 24.0011 11.9536C23.5112 11.9536 22.8028 12.0268 22.0106 12.1649C20.9304 13.2971 19.6164 14.1838 18.4582 14.1838C18.0037 14.1838 17.5987 14.0303 17.2504 13.7824C16.3933 14.3231 15.8266 14.9807 15.8608 15.7528C15.9695 18.2486 16.9458 22.2651 18.1394 24.9781C19.333 27.6911 22.3719 29.4278 24 29.4278C25.628 29.4278 28.6669 27.6911 29.8605 24.9781C31.0565 22.2639 32.034 18.2486 32.1415 15.7528Z" fill="#292E35"/>
<path d="M17.8613 12.7947C19.4256 14.1524 24.3428 8.48779 22.7785 7.13009C22.4066 6.80722 21.9747 6.56077 21.5075 6.40481C21.0403 6.24885 20.547 6.18644 20.0557 6.22114C19.5644 6.25584 19.0847 6.38696 18.6441 6.60704C18.2035 6.82711 17.8105 7.13181 17.4876 7.50375C16.8355 8.25492 16.5086 9.23435 16.5787 10.2266C16.6487 11.2188 17.1101 12.1426 17.8613 12.7947ZM30.142 12.7947C30.8931 12.1424 31.3545 11.2185 31.4244 10.2262C31.4944 9.23383 31.1673 8.25433 30.5151 7.50316C29.8628 6.75199 28.9389 6.29069 27.9466 6.22072C26.9542 6.15076 25.9747 6.47787 25.2236 7.13009C23.6604 8.48779 28.5777 14.1524 30.142 12.7947Z" fill="#292E35"/>
</svg>
