<svg width="39" height="35" viewBox="0 0 39 35" fill="none" xmlns="http://www.w3.org/2000/svg">
<path d="M16.454 31.0094C16.4576 31.0154 16.4609 31.0226 16.4579 31.0387C16.4445 31.1089 16.4308 31.1791 16.4167 31.2491C16.36 31.5317 16.348 31.6006 16.3825 31.6577C16.4032 31.692 16.448 31.7165 16.4884 31.7154C16.5693 31.7135 16.6034 31.6904 16.8514 31.1912C16.989 30.9153 16.8897 30.6454 16.7824 30.4679C16.7034 30.3372 16.6095 30.2391 16.5527 30.1943C16.5325 30.1783 16.4909 30.1303 16.4411 30.0479C16.3563 29.9077 16.3151 29.7819 16.3193 29.7479C16.3344 29.6147 16.2624 29.2223 16.1618 29.056C16.1468 29.0312 16.1315 29.0113 16.1144 28.9951C16.1095 28.9904 16.0912 28.9715 16.0599 28.9196C15.9561 28.7481 15.8761 28.5049 15.8954 28.4187C15.9168 28.3178 15.8562 28.0781 15.7129 27.5559C15.6482 27.32 15.5613 27.0026 15.553 26.9048C16.3276 26.0787 17.0478 25.5553 17.6837 25.0931C18.1665 24.7424 18.5832 24.4394 18.9282 24.0744C18.952 24.0492 18.9699 24.0455 19.0051 24.0378C19.232 23.9893 19.3245 23.907 19.288 22.3612C19.7942 22.129 20.9377 21.5591 21.4774 21.2613C21.9821 20.9829 22.7159 20.4417 22.9304 20.2814C23.6268 20.6974 24.2646 21.1667 24.5761 21.3958C24.6238 21.431 24.6644 21.4607 24.6964 21.484C24.6736 21.5621 24.5835 21.7171 24.4794 21.7443C23.9807 21.8747 22.3355 22.7224 21.399 23.2159C21.2437 23.2974 21.1498 23.3936 21.1194 23.5017C21.0781 23.6507 21.1908 23.8058 21.3397 23.8378C21.3466 24.2072 21.4805 24.5402 21.7629 24.8602C21.8911 25.0052 21.9687 25.0865 22.069 25.07C22.2001 25.278 22.4154 25.4622 22.5322 25.5625C22.5476 25.5758 22.5533 25.584 22.5559 25.5882C22.5565 25.5917 22.5547 25.6038 22.5535 25.6125C22.5459 25.67 22.5452 25.7862 22.6793 25.9078C22.7678 25.9878 22.8277 26.0598 22.8714 26.1122C22.9281 26.1801 22.9816 26.2441 23.0667 26.2158C23.1526 26.1871 23.1515 26.0975 23.1509 26.0439C23.1501 26.0113 23.1445 25.9789 23.1342 25.9476C23.2691 26.0437 23.435 26.3107 23.4625 26.5672C23.4652 26.5915 23.463 26.6071 23.4624 26.6111C23.4568 26.6378 23.4599 26.6699 23.4737 26.6928L23.474 26.6933C23.4854 26.7119 23.5024 26.7268 23.5226 26.7361C23.5429 26.7453 23.5654 26.7484 23.5873 26.7449C23.6287 26.7385 23.6634 26.7037 23.6752 26.6645C23.6786 26.6543 23.7022 26.5868 23.7979 26.4364C23.887 26.2954 23.8945 26.1953 23.8245 26.0796L23.7728 25.9982C23.7606 25.9779 23.748 25.955 23.736 25.9277C23.5869 25.5854 23.4586 25.5509 23.2232 25.469C23.2 25.461 23.1755 25.4524 23.1492 25.4431C23.082 25.2405 22.8589 25.0135 22.6197 24.7807C22.313 24.482 22.0014 24.1458 21.9829 23.865C22.3741 23.6068 23.6012 22.9262 24.7227 22.4513C25.0441 22.3155 25.1995 21.9113 25.3245 21.5867C25.3509 21.5176 25.3759 21.4523 25.4011 21.3952C25.4341 21.3183 25.4169 21.2257 25.3483 21.1122C25.1893 20.8493 24.7488 20.4665 24.3603 20.1287C24.1398 19.9373 23.913 19.74 23.8095 19.6214C23.8691 19.5649 23.9301 19.5099 23.9925 19.4564C24.2022 19.274 24.3709 19.1272 24.4019 18.7886C24.6041 18.7554 24.7201 18.6887 24.8815 18.5839L25.281 18.2553C26.3068 18.5944 26.987 18.7558 27.6676 18.2555C28.2734 17.8082 29.4574 16.0937 29.842 15.5085C30.0039 15.6023 30.1275 15.6818 30.2213 15.7424C30.3913 15.8521 30.4684 15.9016 30.5448 15.8636C31.4202 16.4268 31.4577 16.3985 31.5368 16.3394C31.54 16.3368 31.5431 16.3345 31.5458 16.3319C32.5116 16.8362 32.5693 16.8503 32.6451 16.7976C33.5446 17.1825 33.6434 17.2223 33.7034 17.1741C34.0938 17.3044 34.3735 17.4396 34.5464 17.5232C34.7309 17.6122 34.8127 17.6518 34.8827 17.5972C35.2901 17.7666 35.53 17.8816 35.6786 17.9527C35.8613 18.0406 35.9163 18.067 35.9849 18.0181C35.9881 18.0158 35.9912 18.0134 35.9941 18.0108C36.5273 18.1836 36.7955 18.3302 36.9282 18.4027C37.0057 18.4451 37.0618 18.4757 37.1167 18.4604C37.6456 18.8666 37.7348 18.8877 37.8091 18.8502C38.0019 18.947 38.2419 19.0975 38.3893 19.2442C38.5408 19.3952 38.6613 19.4401 38.7478 19.3775C38.7749 19.3578 38.8588 19.275 38.7391 19.1091C38.6387 18.9677 38.5083 18.8539 38.0362 18.5858C38.0339 18.5658 38.0272 18.5465 38.0165 18.5291C37.9455 18.4116 37.5905 18.2479 37.3294 18.1493C37.3269 18.1324 37.3221 18.1165 37.3146 18.1041C37.2504 17.9978 36.9643 17.9227 36.8447 17.8952C36.7842 17.8812 36.7292 17.87 36.6764 17.8592C36.5093 17.8249 36.3738 17.7972 36.1393 17.6976C36.1369 17.6863 36.1326 17.6754 36.1268 17.6653C36.0655 17.5639 35.8212 17.505 35.7107 17.4976C35.708 17.4973 35.4685 17.4775 35.0358 17.2687C35.0227 17.1129 34.7589 17.0843 34.6419 17.0903C34.5222 17.0968 34.4387 17.066 34.2729 17.0051C34.1717 16.968 34.0398 16.9195 33.8566 16.8645C33.8157 16.7499 33.5975 16.7232 33.4976 16.728C33.412 16.7321 33.218 16.6524 32.9935 16.5605C32.9362 16.5369 32.8751 16.512 32.8102 16.4859C32.8099 16.4608 32.804 16.4349 32.7938 16.418C32.7298 16.3121 32.5036 16.2737 32.4045 16.2717C32.2558 16.2681 32.1176 16.2074 31.7482 16.0443L31.695 16.0209C31.697 15.9239 31.5863 15.8353 31.438 15.8248C31.3333 15.8171 31.034 15.7047 30.731 15.5617C30.7354 15.5316 30.7289 15.5007 30.7127 15.4743C30.6483 15.3678 30.3985 15.3083 30.2943 15.288C30.2534 15.2798 30.1966 15.2592 30.1337 15.2329C30.7162 14.9963 31.6699 14.7536 32.0365 14.6996C32.1589 14.7138 32.2941 14.7577 32.4039 14.7934C32.4862 14.8201 32.5513 14.8411 32.604 14.8486C32.7376 14.8664 32.8245 14.8732 32.8734 14.8151C32.9232 14.8341 32.9725 14.8543 33.0212 14.8758C33.1163 14.9174 33.1914 14.95 33.255 14.8887C33.2725 14.8726 33.2842 14.8516 33.2884 14.8286C33.3824 14.8236 33.4856 14.8003 33.5771 14.7385C33.7883 14.5935 33.8909 14.3002 33.8952 14.2877C33.9031 14.2648 33.9025 14.2397 33.8934 14.2168C33.8844 14.1939 33.8674 14.1747 33.8455 14.1623C33.8235 14.1498 33.7978 14.145 33.7728 14.1486C33.7479 14.1521 33.7251 14.1639 33.7083 14.1819C33.7069 14.1835 33.6001 14.2969 33.4035 14.3587C33.4014 14.3393 33.3949 14.3205 33.3846 14.3036C33.3298 14.2131 33.2194 14.209 32.9737 14.2537C32.972 14.2343 32.9657 14.2156 32.9554 14.1988C32.9014 14.1094 32.7977 14.1282 32.667 14.1523C32.6293 14.1591 32.5855 14.167 32.5358 14.1748C32.3601 14.2015 32.2964 14.1844 32.2402 14.1693C32.1505 14.1454 32.078 14.1339 31.9101 14.1921C31.2963 14.2338 30.1992 14.6715 29.6449 14.9571C29.6395 14.9598 29.6347 14.9632 29.6302 14.9669C29.6228 14.9688 29.6154 14.9709 29.6082 14.9734C29.607 14.9508 29.6 14.9288 29.5878 14.9093C29.5296 14.813 29.3045 14.7193 29.1632 14.6675C29.0732 14.6344 28.9015 14.5716 28.7239 14.4539C28.725 14.428 28.7195 14.4006 28.7079 14.3813C28.6623 14.3059 28.5202 14.2299 27.8958 13.956C27.894 13.9368 27.8887 13.918 27.8803 13.9042C27.811 13.7895 27.4901 13.7293 27.4264 13.7185C27.1959 13.6793 27.0855 13.5841 26.9998 13.4682C26.9283 13.3241 26.897 13.1848 26.9765 12.9741C26.9985 12.9161 27.1042 12.6207 27.0344 12.5053C27.0261 12.4915 27.0115 12.4775 26.9949 12.4662C27.0589 11.8221 27.0615 11.6586 27.0155 11.5826C27.0038 11.5633 26.9818 11.5447 26.9575 11.5329C26.9396 11.3259 26.9693 11.1511 26.9862 11.0508C27.0122 10.891 27.0317 10.6817 26.9768 10.5908C26.9645 10.5706 26.9486 10.5543 26.9298 10.5428C26.9527 10.5244 26.9735 10.5037 26.992 10.4811C27.5439 10.1486 28.4461 9.48476 28.7789 9.01294C28.9151 8.90297 28.9408 8.83727 28.9639 8.7511C28.9783 8.69704 28.9946 8.63605 29.1072 8.50422C29.1347 8.47191 29.1628 8.44006 29.1914 8.40868C29.2827 8.30748 29.349 8.23413 29.2947 8.14434C29.2839 8.12648 29.2701 8.11249 29.254 8.10174C29.4168 7.92015 29.4684 7.8267 29.4142 7.73709C29.4032 7.71887 29.3894 7.70487 29.3739 7.69408C29.5283 7.56275 29.6842 7.53071 29.6858 7.53058C29.7106 7.52597 29.7329 7.51321 29.7488 7.49446C29.7647 7.4757 29.7733 7.45211 29.7732 7.42767C29.7731 7.40318 29.7641 7.37934 29.7479 7.36027C29.7316 7.3412 29.7091 7.32809 29.6841 7.3232C29.6707 7.32029 29.3529 7.25806 29.1153 7.36093C29.0141 7.40547 28.9415 7.4791 28.8904 7.55441C28.8671 7.54623 28.842 7.54526 28.8184 7.55165C28.7311 7.57378 28.7231 7.65259 28.713 7.75208C28.709 7.79207 28.704 7.84367 28.6946 7.90483C28.6178 7.91631 28.5804 7.99191 28.5301 8.11145C28.5105 8.15811 28.4968 8.22301 28.4797 8.30509C28.4571 8.41329 28.4293 8.5469 28.3812 8.65462C28.1559 8.92489 27.4704 9.58309 26.9591 9.9532C26.9661 9.89827 26.9749 9.85024 26.9862 9.817C27.0197 9.72049 27.0905 9.4841 27.0262 9.37776C27.0096 9.35034 26.9849 9.32987 26.9562 9.31897C26.9774 8.99687 27.0248 8.69317 27.0706 8.60263C27.1355 8.47433 27.1099 8.33801 27.0212 8.29199L27.0275 8.22789C27.0638 7.84589 27.0777 7.70305 27.1484 7.57982C27.205 7.48111 27.272 7.28634 27.2105 7.18465C27.1973 7.16273 27.1788 7.14544 27.1573 7.13403C27.1656 7.07074 27.1736 7.00741 27.1813 6.94405C27.21 6.71423 27.2347 6.51562 27.281 6.44764C27.3353 6.36736 27.4228 6.17388 27.3362 6.08144C27.3776 5.90381 27.3996 5.77114 27.4166 5.66946C27.4448 5.50081 27.4588 5.41606 27.5246 5.31918C27.5803 5.23737 27.6598 5.04313 27.5993 4.94305C27.5907 4.92889 27.5758 4.91472 27.559 4.90346C27.5861 4.43794 27.6877 4.23416 27.6889 4.23206C27.7376 4.13632 27.8062 3.90477 27.7446 3.80285C27.7391 3.79383 27.7311 3.78477 27.7216 3.77649C27.7487 3.53528 27.792 3.40543 27.8416 3.25758C27.8587 3.2064 27.8766 3.15311 27.8943 3.09405C27.9294 2.98094 28.004 2.70687 27.9401 2.60106C27.9327 2.58893 27.9206 2.57676 27.9065 2.56636C27.9474 2.3006 27.976 1.92481 27.905 1.80742C27.8946 1.78992 27.8805 1.7747 27.8637 1.76276C27.8563 1.2385 27.8185 1.07405 27.741 0.920774C27.646 0.73243 27.5328 0.766411 27.5016 0.779251C27.4015 0.819454 27.3818 0.941771 27.4432 1.14198C27.502 1.33528 27.5189 1.6094 27.5112 1.81904C27.4397 1.86098 27.4139 1.94537 27.5183 2.58715C27.477 2.62513 27.4767 2.68663 27.4764 2.77191C27.4757 2.91809 27.4746 3.21271 27.3644 3.73962C27.3606 3.74074 27.3569 3.74205 27.3533 3.74357C27.2746 3.77588 27.2713 3.83493 27.2593 4.02995C27.2497 4.1884 27.2341 4.4446 27.1843 4.86637C27.1003 4.89699 27.0952 4.98425 27.0841 5.18079C27.0736 5.36572 27.0567 5.66458 26.9794 6.05345C26.9051 6.07877 26.8919 6.17853 26.7914 7.11688C26.7058 7.15358 26.6899 7.20846 26.6643 8.25936C26.6607 8.2604 26.6569 8.26175 26.6532 8.26302C26.5601 8.29891 26.5156 8.3158 26.5891 9.32163C26.5162 9.36599 26.5227 9.45447 26.537 9.65019C26.5451 9.75794 26.5556 9.89984 26.5594 10.0803C25.8361 10.106 23.6888 10.2288 22.9817 10.5067C22.1882 10.8186 21.9945 11.4621 21.789 12.4807L21.2783 12.6512C21.1132 12.7298 20.9961 12.7924 20.8663 12.9425C20.5449 12.7989 20.3281 12.8647 20.0592 12.9463C19.9854 12.9686 19.905 12.9931 19.8138 13.0159C19.7594 12.8751 19.6935 12.5863 19.6293 12.3057C19.5173 11.8156 19.3904 11.2602 19.2316 10.9976C19.1629 10.8841 19.0876 10.8236 19.0012 10.8128C18.938 10.8047 18.8671 10.7928 18.7919 10.7805C18.4343 10.7211 17.989 10.6473 17.7039 10.8452C16.7154 11.5349 15.4937 12.2058 15.0595 12.4034C14.9688 12.3337 14.8882 12.24 14.8148 12.1186C14.6764 11.8897 14.5887 11.6058 14.5042 11.3314C14.408 11.0196 14.311 10.7259 14.1668 10.5662C14.1725 10.54 14.1779 10.5154 14.1831 10.4924C14.2348 10.2603 14.2705 10.1323 14.0471 9.83354C14.0152 9.79094 13.9967 9.75358 13.9804 9.72157C13.905 9.57277 13.8201 9.51654 13.6286 9.51445C13.4466 9.51252 13.3737 9.49603 13.3623 9.49297C13.3204 9.48151 13.2695 9.49142 13.242 9.52254C13.2274 9.53905 13.2185 9.55962 13.2166 9.58141C13.2147 9.6032 13.2199 9.62514 13.2315 9.6442L13.2317 9.64456C13.2445 9.66571 13.2712 9.6841 13.2965 9.69344C13.3104 9.69966 13.3234 9.70755 13.3353 9.71691C13.5491 9.87476 13.6973 10.1508 13.711 10.3099C13.6888 10.2851 13.6631 10.2634 13.6348 10.2454C13.5871 10.2165 13.5075 10.1682 13.4367 10.2227C13.3666 10.2766 13.3951 10.3533 13.4251 10.435C13.4486 10.4983 13.4805 10.585 13.5051 10.6998C13.5417 10.8705 13.6457 10.9343 13.7007 10.9582C13.7092 10.9619 13.7207 10.9668 13.7239 10.9699C13.7257 10.9729 13.7302 10.9817 13.7339 11.0022C13.7639 11.1635 13.8127 11.4252 13.9257 11.638C13.8586 11.7101 13.8896 11.8159 13.95 11.9966L13.958 12.0206C13.9933 12.1256 14.0374 12.2563 14.1221 12.3963C14.2616 12.6271 14.4694 12.8113 14.755 12.9568C14.7123 13.0942 14.7965 13.2618 14.9503 13.3013C15.0634 13.3305 15.1977 13.3008 15.3497 13.2133C16.2651 12.6852 17.8558 11.7478 18.2233 11.401C18.3028 11.3267 18.4975 11.3323 18.5682 11.3472C18.5733 11.3852 18.58 11.4337 18.5881 11.4916C18.6402 11.8638 18.7471 12.6264 18.777 13.4145C18.524 13.5114 17.6656 13.8468 17.1612 14.1251C16.5959 14.4369 15.5079 15.1029 15.0703 15.388C13.6868 14.5854 13.5657 14.6205 13.4083 14.7836C13.3837 14.809 13.3714 14.8217 13.3367 14.8288C12.8299 14.9329 12.3787 15.1166 11.8563 15.3289C11.1123 15.6319 10.269 15.9746 9.00249 16.2004C8.80025 16.2011 8.44227 15.8889 8.20555 15.6824C8.01815 15.519 7.91673 15.4324 7.83532 15.4074C7.74664 15.3802 7.56474 15.1917 7.46048 15.0193C7.4301 14.9691 7.4221 14.945 7.42013 14.938C7.41292 14.9145 7.40266 14.892 7.38961 14.8709C7.29047 14.707 6.96405 14.4473 6.83758 14.3951C6.80425 14.3816 6.70823 14.2824 6.62156 14.139C6.57361 14.0598 6.55179 14.0041 6.54752 13.9804C6.53478 13.9077 6.48897 13.7803 6.41578 13.6592C6.3074 13.48 6.11096 13.2618 5.79102 13.2398C5.21195 13.1973 5.17698 13.2131 5.13387 13.2801C5.11278 13.3131 5.11288 13.3623 5.13347 13.3964C5.16786 13.4533 5.23581 13.4774 5.51869 13.5696C5.5849 13.5913 5.65747 13.6151 5.73271 13.6408C5.7492 13.6464 5.75435 13.6529 5.758 13.659C5.77235 13.6827 5.77685 13.7305 5.78106 13.7766C5.7823 13.7886 5.78337 13.8008 5.78467 13.8134C5.72978 13.7926 5.67809 13.7841 5.63259 13.83C5.57624 13.8872 5.61139 13.9544 5.63004 13.9902C5.64362 14.0163 5.66479 14.0564 5.68457 14.1133C5.70236 14.1643 5.72643 14.2153 5.75602 14.2643C5.89976 14.502 6.15069 14.6713 6.42771 14.7173C6.4564 14.7218 6.45954 14.727 6.46431 14.7348C6.475 14.7525 6.48533 14.7846 6.49762 14.822C6.5054 14.8456 6.51361 14.8718 6.52377 14.8998C6.58657 15.074 6.81378 15.3169 7.0678 15.4818C7.17153 15.5493 7.25774 15.6394 7.32415 15.7492C7.36399 15.8151 7.39005 15.8765 7.40835 15.9226C7.47434 16.0896 7.55613 16.1388 7.81548 16.2853L7.91105 16.3392C8.14087 16.4687 8.40144 16.6152 8.6136 16.8061C8.63341 16.8239 8.65201 16.8438 8.67101 16.864C8.83881 17.0416 9.03185 17.183 9.54425 16.97C10.5065 16.5688 12.621 15.7701 13.2882 15.6278C13.4411 15.7116 13.5631 15.764 13.6812 15.8149C13.7864 15.8602 13.8873 15.9037 14.0073 15.9673C8.39927 19.4315 7.85143 20.1418 6.86394 21.4219C5.96834 22.5829 5.67663 23.5556 6.04269 24.1609C6.17799 24.3847 6.39971 24.5502 6.70244 24.6541C6.64535 24.9565 6.68458 25.2224 6.81969 25.4459C7.18499 26.05 8.21287 26.2946 9.71374 26.1346C11.368 25.9579 12.2858 25.8599 18.2301 22.9501C18.228 23.0811 18.2171 23.1863 18.2055 23.2955C18.1925 23.4192 18.1791 23.5466 18.1788 23.7155C17.7233 24.1879 15.8771 25.6309 14.9753 26.2675C14.5827 26.5459 14.68 26.8137 14.787 26.9907C14.8032 27.0174 14.8201 27.0432 14.8367 27.0684C14.8708 27.12 14.9009 27.1691 14.9074 27.1944C14.9309 27.2878 14.9556 27.3723 14.9789 27.4525C15.0343 27.642 15.0822 27.8057 15.085 27.9995C15.091 28.297 15.0969 28.3826 15.2132 28.516C15.2463 28.5546 15.2896 28.6079 15.3296 28.6741C15.396 28.7838 15.4344 28.8994 15.4438 29.0187C15.468 29.3092 15.5729 29.6164 15.7038 29.7591C15.724 29.7808 15.7429 29.8001 15.7602 29.8178C15.789 29.8471 15.8139 29.8721 15.8246 29.8898C15.8294 29.8977 15.8325 29.9028 15.8224 29.929C15.7273 30.1792 15.7561 30.4705 15.8996 30.7079C15.9298 30.7578 15.9644 30.8038 16.0027 30.8447C16.0445 30.8893 16.0704 30.9266 16.0875 30.9508C16.1107 30.9841 16.1545 31.0466 16.2343 31.0281C16.2986 31.0133 16.3164 30.9662 16.3246 30.9103C16.3355 30.9178 16.3461 30.9247 16.3567 30.9316C16.3983 30.9585 16.4397 30.9857 16.454 31.0094ZM28.5148 14.7785C28.7129 14.904 28.8693 15.0138 28.9895 15.0979C29.098 15.1741 29.172 15.2262 29.2288 15.2548C29.1045 15.3972 28.9693 15.5903 28.792 15.8442C28.5235 16.2286 28.1555 16.755 27.6046 17.4062L27.5553 17.4642C27.3608 17.6945 27.2201 17.8607 27.1931 17.8781C27.1796 17.8711 27.1444 17.832 27.1255 17.8109C26.8993 17.5597 26.6604 17.5192 26.2987 17.4582C26.2406 17.4483 26.1789 17.4378 26.1129 17.4257C26.6891 16.5991 26.5991 15.7742 26.5447 15.4914C26.9982 15.3186 27.0683 15.1753 27.1914 14.8152C27.2496 14.6449 27.3001 14.6011 27.3369 14.569C27.4014 14.513 27.4316 14.4642 27.4293 14.3597C27.5144 14.368 27.6039 14.3814 27.671 14.4043C27.7039 14.4154 27.7443 14.4122 27.7745 14.3951C28.0092 14.4865 28.1791 14.6249 28.2776 14.7055C28.3634 14.7757 28.4311 14.8306 28.5109 14.7807C28.5121 14.7802 28.5133 14.7793 28.5148 14.7785ZM26.5061 11.7768C26.5296 11.8986 26.5699 12.1075 26.536 12.348C26.5206 12.3565 26.5074 12.3682 26.497 12.3821C26.4867 12.396 26.4796 12.4119 26.4761 12.4288C26.4632 12.4956 26.4306 12.5764 26.3957 12.6506C26.302 12.5963 26.2425 12.597 26.1592 12.6226C26.1117 12.637 26.0469 12.6571 25.8523 12.6181C25.4752 12.5422 25.3106 12.5287 24.9269 12.8167C24.6978 12.6307 23.9946 12.1451 22.9571 12.2072C22.9792 12.1467 23.0008 12.0904 23.0208 12.0376C23.1465 11.7084 23.2293 11.4912 23.1149 11.1787C23.1077 11.1598 23.0963 11.1288 23.0874 11.1141C23.084 11.1084 23.0808 11.1049 23.0784 11.1058C23.1163 11.074 23.3376 11.0411 23.6438 10.9954L23.7207 10.9839C24.5894 10.8531 25.2521 10.8119 25.7358 10.7821C26.0424 10.7629 26.2891 10.7478 26.4833 10.716C26.4809 10.7774 26.491 10.8649 26.506 10.9925C26.5224 11.1337 26.5436 11.3178 26.5585 11.5444C26.557 11.5453 26.5556 11.5458 26.5541 11.5466C26.4696 11.5874 26.4857 11.671 26.5061 11.7768Z" fill="#292E35"/>
</svg>
