<svg width="84" height="92" viewBox="0 0 84 92" fill="none" xmlns="http://www.w3.org/2000/svg">
<path d="M56.1828 78.2691C56.199 78.2756 56.2167 78.2851 56.2354 78.3223C56.3163 78.4841 56.3964 78.6461 56.4758 78.8086C56.7956 79.4638 56.8773 79.6208 57.0343 79.6838C57.1287 79.7216 57.2565 79.7035 57.336 79.6404C57.4958 79.5144 57.5291 79.4165 57.2615 78.0358C57.1146 77.2721 56.5003 76.8778 56.0117 76.682C55.6521 76.5378 55.3125 76.4816 55.1296 76.4769C55.0642 76.4753 54.9068 76.4412 54.68 76.3503C54.294 76.1956 54.0181 76.0041 53.9744 75.9293C53.8002 75.638 53.0526 74.9558 52.5948 74.7723C52.5264 74.7449 52.4652 74.7279 52.4059 74.721C52.3888 74.7189 52.3231 74.7084 52.1803 74.6511C51.7082 74.4619 51.1738 74.0924 51.0801 73.8895C50.9682 73.654 50.4782 73.2622 49.3879 72.4258C48.8955 72.0477 48.2331 71.5391 48.0662 71.3545C48.3563 68.5204 49.0016 66.3786 49.5713 64.4873C50.0041 63.0519 50.3772 61.8123 50.5108 60.556C50.5201 60.4692 50.5503 60.4348 50.6094 60.3663C50.9913 59.926 51.0513 59.6206 48.6038 56.5595C49.2658 55.3278 50.6914 52.4534 51.3201 51.0388C51.908 49.7162 52.5533 47.5178 52.7388 46.871C54.779 46.6589 56.7827 46.6424 57.7614 46.6343C57.9116 46.6333 58.0387 46.6319 58.1389 46.6306C58.2131 46.8223 58.2697 47.2707 58.1021 47.4827C57.2988 48.498 55.2903 52.6894 54.164 55.0972C53.9766 55.496 53.9354 55.8315 54.0402 56.0952C54.1859 56.4579 54.651 56.6005 54.9997 56.4402C55.5809 57.1746 56.3617 57.6438 57.4214 57.8628C57.9019 57.9616 58.183 58.0084 58.3594 57.8238C58.9425 58.0452 59.6587 58.0916 60.0477 58.1175C60.099 58.1212 60.1232 58.129 60.1348 58.1337C60.1416 58.1399 60.1565 58.167 60.1675 58.1864C60.2405 58.3137 60.4175 58.549 60.874 58.5916C61.1749 58.6195 61.4059 58.6743 61.5745 58.7139C61.7927 58.7652 61.9987 58.8135 62.1265 58.6279C62.2553 58.4405 62.1155 58.2616 62.032 58.1545C61.9803 58.09 61.9192 58.0331 61.8505 57.9856C62.2695 57.9759 63.0134 58.2636 63.4625 58.7392C63.5052 58.7841 63.5248 58.819 63.5297 58.828C63.5595 58.8901 63.6151 58.9502 63.6779 58.9754L63.6794 58.976C63.7309 58.9963 63.7879 59.0008 63.8428 58.9889C63.8977 58.9769 63.9478 58.9491 63.9866 58.9091C64.06 58.8337 64.0764 58.7112 64.04 58.6145C64.0311 58.5888 63.9749 58.4171 63.9364 57.9696C63.8994 57.5508 63.7607 57.3377 63.4422 57.21L63.2131 57.1239C63.1574 57.1016 63.0967 57.0744 63.0307 57.0374C62.205 56.5724 61.8939 56.6965 61.2945 56.8865C61.2354 56.9054 61.173 56.9251 61.1059 56.946C60.6594 56.6389 59.8621 56.518 59.0232 56.4096C57.9473 56.2703 56.8041 56.0628 56.3357 55.5247C56.7262 54.4139 58.1501 51.1902 59.6774 48.5408C60.1154 47.782 59.8074 46.7328 59.5604 45.8898C59.5075 45.7107 59.4574 45.5413 59.4205 45.3883C59.3689 45.1833 59.1921 45.0227 58.8797 44.8975C58.156 44.6074 56.6819 44.5004 55.3814 44.4057C54.6437 44.3524 53.8844 44.2969 53.494 44.214C53.5271 44.0103 53.5654 43.8074 53.6088 43.6054C53.7507 42.9213 53.8646 42.3707 53.407 41.6416C53.7628 41.2694 53.8938 40.96 54.0577 40.5051L54.3569 39.2399C56.9416 38.3756 58.5582 37.6747 59.1592 35.6393C59.6913 33.8233 59.4408 28.5807 59.3159 26.8208C59.7856 26.7655 60.1564 26.7393 60.4383 26.72C60.9487 26.6844 61.1798 26.668 61.2753 26.476C63.9015 26.2906 63.9335 26.1769 64.0019 25.9385C64.0045 25.9284 64.007 25.919 64.0086 25.9097C66.7262 25.4689 66.8638 25.4103 66.9356 25.1896C69.3366 24.6085 69.5966 24.5395 69.643 24.3518C70.6288 24.0253 71.3992 23.8759 71.8754 23.7835C72.3836 23.6846 72.6089 23.6409 72.6658 23.4253C73.7456 23.1521 74.4049 23.0218 74.8131 22.9411C75.3159 22.8425 75.4669 22.8127 75.5299 22.6105C75.5328 22.6011 75.5353 22.5916 75.5373 22.582C76.8755 22.1258 77.6401 22.0166 78.0185 21.9625C78.2396 21.931 78.3995 21.9083 78.4865 21.7944C80.1743 21.8152 80.3864 21.7231 80.4782 21.5354C81.0148 21.4398 81.7289 21.381 82.2507 21.4542C82.7874 21.5299 83.0989 21.4387 83.1766 21.1819C83.2012 21.1014 83.2426 20.8078 82.7471 20.6541C82.328 20.5205 81.8908 20.488 80.5291 20.6598C80.4939 20.623 80.4507 20.5941 80.4026 20.5752C80.0791 20.4455 79.1134 20.6512 78.4365 20.8464C78.4058 20.8161 78.3715 20.7912 78.3375 20.7775C78.0449 20.6603 77.3541 20.9405 77.0711 21.0656C76.9279 21.1287 76.8002 21.189 76.6772 21.247C76.2885 21.4299 75.9731 21.5785 75.3484 21.7316C75.3261 21.7125 75.3008 21.6969 75.2735 21.6853C74.9944 21.5734 74.4125 21.8234 74.1787 21.9751C74.173 21.9787 73.6606 22.3002 72.4692 22.532C72.2038 22.2379 71.629 22.5782 71.403 22.7668C71.172 22.9604 70.9566 23.0245 70.5296 23.1518C70.2688 23.2298 69.9291 23.3309 69.4759 23.4966C69.2177 23.3272 68.7376 23.6028 68.5441 23.7631C68.378 23.9006 67.8653 24.0325 67.2725 24.1861C67.121 24.2251 66.9596 24.267 66.7891 24.3123C66.7499 24.2622 66.6983 24.2188 66.6518 24.2001C66.3604 24.0834 65.8464 24.3472 65.644 24.4927C65.3392 24.7098 64.9679 24.7959 63.9741 25.0247L63.8311 25.0577C63.6861 24.8592 63.3273 24.8476 63.0128 25.0503C62.7903 25.1926 62.0155 25.4176 61.1862 25.5866C61.1488 25.5192 61.0885 25.4669 61.0152 25.4381C60.722 25.3206 60.128 25.5774 59.8873 25.6937C59.7924 25.7389 59.6465 25.783 59.4796 25.8251C60.2882 24.4692 61.8343 22.541 62.4891 21.8789C62.7571 21.7229 63.0967 21.6073 63.3724 21.5136C63.579 21.4431 63.7423 21.3874 63.8598 21.3231C64.1559 21.1573 64.3414 21.0399 64.3504 20.8488C64.4798 20.812 64.61 20.7785 64.7411 20.7483C64.9962 20.6886 65.1976 20.641 65.2313 20.4213C65.2419 20.3626 65.2331 20.3026 65.2062 20.2498C65.3875 20.0981 65.5594 19.8953 65.6487 19.6326C65.851 19.0218 65.6068 18.2757 65.5965 18.2441C65.5771 18.1858 65.5374 18.1362 65.484 18.1038C65.4307 18.0714 65.367 18.058 65.3038 18.0661C65.2404 18.0743 65.1813 18.1032 65.1366 18.1481C65.0918 18.193 65.0641 18.2512 65.058 18.3128C65.0576 18.3179 65.0167 18.7078 64.7162 19.1289C64.6821 19.0931 64.6403 19.0649 64.5935 19.0465C64.3443 18.9466 64.1158 19.105 63.6901 19.5658C63.6569 19.5294 63.6155 19.501 63.5689 19.4827C63.3229 19.3841 63.1434 19.5785 62.9171 19.8243C62.8518 19.8948 62.7759 19.9768 62.6879 20.0676C62.3754 20.3865 62.2209 20.4482 62.0846 20.5025C61.8674 20.5898 61.7038 20.6758 61.4555 21.0466C60.2845 22.0567 58.7491 24.5944 58.0724 26.0067C58.0658 26.0203 58.0613 26.0343 58.0579 26.0486C58.0458 26.0636 58.0344 26.079 58.0236 26.0949C57.9865 26.0512 57.9386 26.0174 57.8842 25.9964C57.6192 25.8902 57.0224 26.0409 56.6584 26.1497C56.4266 26.2188 55.9847 26.3513 55.4465 26.3821C55.4089 26.3281 55.3558 26.2811 55.3028 26.2598C55.0952 26.1766 54.6926 26.2379 53.0156 26.6278C52.9827 26.5919 52.9429 26.562 52.9049 26.5468C52.5894 26.4203 51.8512 26.783 51.7064 26.8574C51.1825 27.126 50.8143 27.1009 50.4638 26.9964C50.0986 26.8138 49.8217 26.5804 49.658 26.0357C49.6132 25.8854 49.3722 25.1306 49.0547 25.0033C49.0167 24.9881 48.9659 24.9817 48.9152 24.9841C48.0548 23.5891 47.8087 23.2556 47.5996 23.1717C47.5464 23.1505 47.4737 23.1463 47.4066 23.1591C47.0525 22.7688 46.8441 22.3717 46.7241 22.144C46.5309 21.7826 46.2487 21.3313 45.9986 21.231C45.9428 21.2087 45.8859 21.1999 45.8305 21.2051C45.8481 21.1334 45.8582 21.0602 45.8607 20.9869C46.4607 19.4838 47.2565 16.7842 47.2015 15.331C47.3066 14.9039 47.2574 14.7327 47.1717 14.524C47.1176 14.3933 47.0567 14.2458 47.0808 13.8102C47.0865 13.7035 47.0941 13.597 47.1036 13.4905C47.1319 13.1487 47.1525 12.9009 46.9054 12.8018C46.8562 12.7821 46.807 12.7747 46.7582 12.7773C46.8069 12.1655 46.7671 11.8994 46.5205 11.8005C46.4703 11.7804 46.4211 11.773 46.3733 11.7747C46.4824 11.2769 46.7468 10.9771 46.7499 10.9744C46.7927 10.9276 46.8178 10.8684 46.8211 10.8066C46.8243 10.7447 46.8054 10.6842 46.7676 10.6351C46.7298 10.5859 46.6752 10.5513 46.6132 10.5374C46.5512 10.5235 46.4856 10.5311 46.4279 10.559C46.3966 10.5732 45.6615 10.9274 45.3414 11.4933C45.2061 11.7358 45.1732 11.9937 45.1859 12.2227C45.1266 12.2412 45.0745 12.2773 45.0369 12.3257C44.8952 12.5021 45.0001 12.673 45.1327 12.8887C45.186 12.9754 45.2551 13.087 45.3302 13.2244C45.1932 13.3635 45.2341 13.5724 45.3164 13.8893C45.3486 14.0129 45.4208 14.1643 45.5125 14.3555C45.633 14.6079 45.7824 14.9191 45.8511 15.2088C45.8128 16.0936 45.4442 18.4548 44.9838 19.9724C44.9135 19.851 44.8575 19.741 44.8292 19.6569C44.7484 19.4118 44.5279 18.8284 44.2352 18.7111C44.1597 18.6808 44.0785 18.6769 44.0039 18.6983C43.5519 18.017 43.1811 17.3331 43.1341 17.0816C43.0676 16.7251 42.8068 16.4888 42.5576 16.5299L42.4719 16.3913C41.9584 15.5663 41.7669 15.2575 41.72 14.9024C41.6823 14.6179 41.518 14.1243 41.2381 14.0121C41.1777 13.9879 41.114 13.9809 41.0532 13.9904C40.9727 13.8503 40.8916 13.7105 40.8099 13.5711C40.5147 13.0645 40.2593 12.627 40.248 12.4201C40.2341 12.1762 40.1129 11.6543 39.7968 11.5985C39.6072 11.1781 39.4478 10.8774 39.3259 10.6467C39.1236 10.2642 39.0215 10.0723 39.0052 9.7777C38.9917 9.52868 38.8533 9.01725 38.5778 8.90683C38.5389 8.8912 38.4872 8.88506 38.4359 8.88781C37.7757 7.90844 37.6672 7.34431 37.6664 7.33827C37.6172 7.07192 37.3998 6.50155 37.1192 6.38909C37.0944 6.37913 37.0644 6.37296 37.0325 6.37061C36.7166 5.84348 36.6043 5.51641 36.4771 5.14351C36.433 5.01451 36.3871 4.88011 36.3319 4.7344C36.2288 4.45345 35.9582 3.78829 35.667 3.67155C35.6336 3.65817 35.5904 3.652 35.5461 3.65225C35.2204 3.05475 34.7008 2.25408 34.3777 2.12455C34.3299 2.10498 34.2781 2.09557 34.2259 2.09697C33.406 1.0512 33.0774 0.776732 32.686 0.584797C32.2055 0.348491 32.03 0.58775 31.9869 0.660761C31.8474 0.892734 31.9956 1.16903 32.4266 1.47998C32.8417 1.78097 33.2967 2.30801 33.6031 2.7422C33.5236 2.93476 33.6014 3.14369 34.7969 4.27993C34.7722 4.41877 34.8661 4.54314 34.9964 4.71554C35.2195 5.01128 35.6696 5.60693 36.2573 6.83523C36.2513 6.84322 36.2458 6.85151 36.2408 6.86007C36.1322 7.04386 36.2161 7.16795 36.4916 7.57913C36.7155 7.91308 37.0776 8.45302 37.6252 9.37835C37.5032 9.56679 37.6269 9.75041 37.9064 10.1634C38.1692 10.552 38.5941 11.18 39.0359 12.0805C38.9251 12.2437 39.0519 12.4647 40.2907 14.5078C40.1748 14.711 40.2271 14.8456 41.7894 17.0027C41.7837 17.0103 41.7782 17.0186 41.7727 17.0268C41.6405 17.2396 41.577 17.3407 43.2696 19.2574C43.191 19.4569 43.3398 19.6255 43.6693 19.9984C43.8509 20.2035 44.09 20.4736 44.3748 20.8315C42.9589 21.975 38.8269 25.4625 37.831 27.0896C36.7133 28.9156 37.3118 30.505 38.4625 32.8685L37.697 33.9828C37.4853 34.3905 37.346 34.6933 37.3153 35.1916C36.448 35.3872 36.1129 35.8469 35.6971 36.4171C35.5828 36.5736 35.4588 36.7442 35.3103 36.9277C34.9846 36.726 34.4086 36.2433 33.8484 35.7744C32.8704 34.9556 31.7619 34.0274 31.0392 33.7377C30.7268 33.6125 30.4823 33.6042 30.2919 33.7127C30.1523 33.7919 29.9913 33.875 29.8212 33.9636C29.0104 34.3835 28.001 34.9064 27.7315 35.7357C26.8014 38.6175 25.3738 41.8134 24.8035 42.8668C24.5139 42.8632 24.2079 42.7959 23.8737 42.662C23.2436 42.4094 22.6313 41.9693 22.0399 41.5438C21.3675 41.0604 20.7213 40.6147 20.186 40.5102C20.1571 40.4491 20.1302 40.3912 20.1055 40.337C19.8529 39.7911 19.7282 39.4793 18.8198 39.2142C18.6904 39.1763 18.5958 39.1289 18.5138 39.0891C18.1335 38.9029 17.8764 38.9176 17.4877 39.2024C17.1187 39.4731 16.9466 39.5499 16.9191 39.5608C16.8171 39.601 16.73 39.6978 16.7224 39.802C16.7183 39.8574 16.7321 39.9122 16.7618 39.959C16.7914 40.0057 16.8355 40.0421 16.888 40.0632L16.889 40.0636C16.9472 40.0869 17.0292 40.0836 17.0944 40.0643C17.132 40.0559 17.1704 40.0521 17.2087 40.053C17.8812 40.0487 18.6034 40.3813 18.8752 40.6815C18.7924 40.6651 18.7075 40.6601 18.6228 40.6666C18.4824 40.6803 18.248 40.703 18.1893 40.9196C18.131 41.134 18.3063 41.2457 18.4919 41.3651C18.6365 41.4574 18.8339 41.5838 19.0597 41.778C19.3954 42.0671 19.7027 42.0388 19.8501 42.0039C19.8729 41.9984 19.9035 41.991 19.9148 41.9925C19.9229 41.9958 19.9455 42.0067 19.9844 42.0426C20.2926 42.3224 20.7926 42.7763 21.3467 43.0346C21.3224 43.2813 21.5473 43.4479 21.9463 43.7209L21.9993 43.7573C22.2315 43.9157 22.521 44.1126 22.9064 44.2671C23.5416 44.5217 24.2426 44.5796 25.0408 44.4419C25.1658 44.7834 25.5925 44.9941 25.9627 44.8418C26.235 44.7299 26.4596 44.4673 26.6311 44.0615C27.662 41.6159 29.4231 37.326 29.6301 36.0723C29.676 35.8026 30.076 35.5201 30.2414 35.4435C30.3098 35.5124 30.3979 35.6001 30.5031 35.7046C31.1796 36.3763 32.5659 37.7521 33.8363 39.2957C33.4759 39.8729 32.2639 41.8442 31.6762 43.1663C31.0177 44.6477 29.8514 47.6319 29.4086 48.8669C25.3923 49.3368 25.2027 49.5901 25.1365 50.1565C25.1259 50.2448 25.1207 50.2889 25.0617 50.3557C24.202 51.3301 23.5762 52.3812 22.8511 53.5975C21.8194 55.3308 20.6489 57.2942 18.4473 59.6605C18.0414 59.967 16.8417 59.8778 16.0482 59.8186C15.4203 59.7721 15.0832 59.7505 14.881 59.8229C14.6608 59.902 14.0054 59.7965 13.5308 59.6063C13.3925 59.5509 13.3395 59.5145 13.3248 59.5033C13.2742 59.4668 13.2189 59.4368 13.1603 59.414C12.7091 59.2332 11.6534 59.2022 11.3188 59.2878C11.231 59.3109 10.8855 59.2558 10.491 59.0977C10.2728 59.0102 10.1433 58.9309 10.0984 58.8896C9.96105 58.7622 9.67328 58.5746 9.34011 58.441C8.84681 58.2432 8.11644 58.0998 7.43884 58.5381C6.20842 59.3262 6.16243 59.4109 6.17852 59.611C6.18674 59.7093 6.2626 59.8084 6.35632 59.846C6.51285 59.9088 6.68659 59.8548 7.39749 59.614C7.56394 59.5577 7.74647 59.4961 7.93737 59.4345C7.97921 59.421 7.99953 59.4263 8.01616 59.4329C8.08146 59.4591 8.16401 59.5488 8.24317 59.6352C8.2642 59.6577 8.28502 59.6806 8.30696 59.704C8.16459 59.7449 8.04748 59.8057 8.02652 59.967C8.00087 60.1672 8.17483 60.2497 8.2674 60.2938C8.33485 60.3259 8.43903 60.3749 8.56608 60.4595C8.68027 60.5356 8.80704 60.6021 8.94173 60.6561C9.59603 60.9184 10.361 60.8811 10.9889 60.5558C11.0536 60.5215 11.0678 60.5273 11.0896 60.536C11.1382 60.5555 11.2083 60.6046 11.2904 60.6613C11.3424 60.6973 11.3991 60.7376 11.4625 60.7788C11.8564 61.0351 12.6867 61.1821 13.451 61.1311C13.7633 61.1106 14.0751 61.1621 14.3774 61.2833C14.5587 61.356 14.7056 61.4406 14.8131 61.5059C15.2024 61.7429 15.4424 61.7185 16.1892 61.6226L16.4644 61.5872C17.1256 61.5013 17.8749 61.4035 18.595 61.4683C18.6622 61.4742 18.7302 61.4863 18.7994 61.4984C19.4098 61.6032 20.0153 61.5968 20.7193 60.3944C22.0392 58.1336 25.0673 53.3331 26.1911 52.0395C26.6274 51.9776 26.9535 51.8992 27.2694 51.8235C27.5506 51.7561 27.8203 51.6916 28.1594 51.6386C22.1955 67.0839 22.184 69.3423 22.163 73.4129C22.144 77.1047 23.0507 79.5055 24.7169 80.1735C25.3327 80.4203 26.033 80.4195 26.8017 80.1721C27.1513 80.8679 27.6386 81.3447 28.2535 81.5912C29.9163 82.2578 32.3602 81.2 35.1344 78.6128C38.1915 75.7605 39.8877 74.1782 47.3796 59.343C47.5765 59.6103 47.7161 59.8387 47.8606 60.0762C48.0244 60.3453 48.1931 60.6223 48.4519 60.9634C48.2609 62.6029 46.7621 68.2974 45.9252 70.9414C45.5628 72.095 46.1698 72.4881 46.657 72.6834C46.7305 72.7129 46.8041 72.7394 46.8763 72.7649C47.0241 72.8177 47.1602 72.8711 47.2122 72.9124C47.4027 73.0652 47.5822 73.1983 47.7521 73.3247C48.1547 73.6232 48.5025 73.8809 48.8058 74.2672C49.2748 74.858 49.4181 75.0216 49.8569 75.1152C49.9829 75.143 50.1517 75.185 50.3339 75.258C50.6358 75.379 50.8909 75.5542 51.0929 75.7803C51.5875 76.3295 52.2705 76.7905 52.753 76.8806C52.8271 76.894 52.8948 76.9043 52.9567 76.914C53.0595 76.9294 53.1481 76.9423 53.1968 76.9618C53.2185 76.9705 53.2327 76.9762 53.2526 77.0442C53.4455 77.6921 53.9508 78.2359 54.6043 78.4979C54.7414 78.5528 54.8817 78.5934 55.0217 78.6179C55.1744 78.6448 55.2837 78.6809 55.3552 78.7039C55.4531 78.736 55.6371 78.7959 55.7693 78.6384C55.8759 78.5114 55.8393 78.3896 55.77 78.2645C55.8035 78.2632 55.8355 78.261 55.8674 78.2591C55.9923 78.2505 56.1173 78.2429 56.1828 78.2691ZM55.5243 27.3518C56.1156 27.306 56.599 27.2912 56.97 27.2795C57.3052 27.2693 57.5342 27.2626 57.6924 27.2345C57.661 27.7092 57.6854 28.3025 57.7185 29.0818C57.7687 30.262 57.8367 31.8783 57.7281 34.0222L57.7183 34.2135C57.6804 34.9713 57.6527 35.5186 57.6249 35.5943C57.587 35.6007 57.4562 35.5751 57.3857 35.5609C56.5449 35.3958 56.002 35.6749 55.1804 36.0975C55.0484 36.1652 54.9082 36.2373 54.7568 36.3123C54.6468 33.7767 53.1989 32.2497 52.6551 31.7616C53.3021 30.729 53.2233 30.3344 52.9178 29.4227C52.7734 28.9917 52.8078 28.8271 52.8325 28.7069C52.8764 28.4966 52.8621 28.3527 52.6971 28.1456C52.881 28.0338 53.0817 27.926 53.2519 27.8707C53.3349 27.8435 53.4115 27.7761 53.4458 27.696C54.0585 27.526 54.6128 27.5487 54.9349 27.5625C55.2152 27.5746 55.4358 27.5832 55.5199 27.3621C55.5215 27.3594 55.5225 27.3558 55.5243 27.3518ZM46.8729 24.3319C47.1071 24.5419 47.509 24.9023 47.8102 25.4381C47.7924 25.4786 47.7836 25.5221 47.7842 25.5657C47.7848 25.6094 47.7949 25.6522 47.8139 25.6915C47.8904 25.8457 47.9489 26.0575 47.9926 26.2599C47.7207 26.292 47.602 26.3831 47.4738 26.5603C47.4004 26.6609 47.3007 26.7993 46.8495 27.0143C45.974 27.4305 45.6222 27.6515 45.2924 28.8111C44.5458 28.7817 42.3851 28.8639 40.393 30.5546C40.3445 30.3993 40.3015 30.2532 40.2606 30.1168C40.008 29.2635 39.8411 28.7005 39.1309 28.2432C39.0875 28.216 39.0169 28.1706 38.9764 28.1544C38.9608 28.1481 38.9492 28.1459 38.9456 28.1514C38.9732 28.0301 39.3677 27.6297 39.9137 27.0756L40.0507 26.9365C41.5977 25.3619 42.8679 24.279 43.7954 23.489C44.3829 22.9877 44.8559 22.5851 45.1979 22.2279C45.2875 22.3553 45.4421 22.5163 45.6683 22.751C45.918 23.0109 46.2434 23.3501 46.6215 23.7844C46.6197 23.7884 46.6177 23.7916 46.6159 23.7956C46.5086 24.0052 46.6693 24.1495 46.8729 24.3319Z" fill="#292E35"/>
</svg>
