<?xml version="1.0" standalone="no"?>
<!DOCTYPE svg PUBLIC "-//W3C//DTD SVG 20010904//EN"
 "http://www.w3.org/TR/2001/REC-SVG-20010904/DTD/svg10.dtd">
<svg version="1.0" xmlns="http://www.w3.org/2000/svg"
 width="500.000000pt" height="500.000000pt" viewBox="0 0 500.000000 500.000000"
 preserveAspectRatio="xMidYMid meet">
<metadata>
Created by potrace 1.14, written by Peter Selinger 2001-2017
</metadata>
<g transform="translate(0.000000,500.000000) scale(0.100000,-0.100000)"
fill="#000000" stroke="none">
<path d="M0 2500 l0 -2500 2500 0 2500 0 0 2500 0 2500 -2500 0 -2500 0 0
-2500z m2674 1954 c12 -5 16 -21 16 -68 0 -66 17 -97 59 -111 11 -3 23 -14 26
-24 11 -37 45 -56 109 -61 l61 -5 3 -49 c4 -57 -5 -66 -63 -66 -62 0 -77 -8
-113 -56 -18 -24 -39 -44 -46 -44 -20 0 -36 -45 -36 -100 0 -46 -2 -49 -34
-60 -38 -12 -80 -1 -90 25 -3 9 -6 35 -6 58 -1 38 -17 77 -34 77 -4 0 -28 23
-55 50 -42 44 -54 50 -89 50 -66 0 -72 6 -72 66 l0 54 58 0 c57 0 60 1 103 48
24 27 54 54 67 61 19 10 22 20 22 71 0 40 5 64 16 74 15 16 69 21 98 10z
m1155 -329 c17 -5 21 -14 21 -45 0 -56 -8 -69 -48 -75 -87 -14 -82 -10 -82
-76 0 -48 3 -61 18 -65 9 -3 25 -10 34 -15 10 -5 27 -9 38 -9 11 0 20 -4 20
-10 0 -5 8 -10 18 -10 9 0 26 -7 36 -15 11 -8 25 -15 30 -15 16 0 86 69 86 84
0 7 -13 27 -30 44 -39 41 -38 73 1 106 17 14 35 26 40 26 19 0 259 -250 259
-270 0 -31 -44 -70 -80 -70 -16 0 -30 4 -30 10 0 11 -47 60 -58 60 -4 0 -16
-12 -27 -26 -10 -14 -27 -35 -37 -46 -10 -12 -18 -25 -18 -30 0 -13 33 -72 43
-76 4 -2 7 -17 7 -32 0 -16 5 -32 10 -35 6 -3 10 -15 10 -26 0 -17 7 -19 65
-19 l65 0 0 51 c0 62 15 79 69 79 65 0 71 -16 71 -207 0 -190 -4 -199 -78
-190 -52 6 -62 17 -62 73 0 34 -4 43 -25 52 -33 15 -66 15 -85 -1 -20 -16 -40
-53 -40 -72 0 -9 -11 -38 -25 -65 -14 -27 -25 -56 -25 -63 0 -8 18 -30 40 -51
35 -32 42 -35 60 -24 11 7 20 15 20 19 0 9 40 49 50 49 20 0 80 -63 80 -84 0
-25 -241 -276 -265 -276 -7 0 -27 18 -43 41 -34 46 -33 60 10 107 l27 31 -22
28 c-12 15 -27 34 -34 41 -13 14 -73 17 -73 3 0 -5 -21 -17 -47 -26 -113 -40
-103 -30 -103 -100 0 -65 11 -82 45 -69 8 3 30 1 50 -6 33 -11 35 -14 35 -54
0 -23 -5 -47 -12 -54 -8 -8 -66 -12 -194 -12 -200 0 -194 -2 -194 63 1 51 20
67 79 67 l52 0 -3 62 c-3 69 -2 68 -100 105 -27 10 -48 21 -48 26 0 12 -61 8
-74 -5 -7 -7 -21 -26 -31 -41 -18 -28 -18 -28 15 -73 29 -41 31 -48 20 -70 -8
-13 -17 -24 -22 -24 -5 0 -16 -6 -24 -14 -19 -20 -49 -9 -87 31 -18 19 -69 72
-114 118 -49 48 -83 91 -83 103 0 18 61 82 78 82 4 0 26 -18 50 -40 l43 -40
32 30 c18 16 35 30 40 30 4 0 7 16 7 35 0 19 -4 35 -8 35 -10 0 -34 53 -52
111 -11 38 -42 59 -85 59 -47 0 -55 -9 -55 -64 0 -62 -11 -76 -61 -76 -72 0
-69 -8 -69 200 0 208 -3 200 67 200 48 0 63 -19 63 -79 l0 -51 65 0 c50 0 65
3 65 14 0 8 16 52 35 97 37 88 42 109 24 109 -6 0 -22 14 -36 30 -32 38 -46
38 -88 -4 -24 -24 -40 -33 -54 -29 -20 5 -61 60 -61 82 0 15 244 261 259 261
22 0 71 -57 71 -82 0 -14 -13 -37 -30 -53 -16 -16 -30 -34 -30 -40 0 -18 69
-85 88 -85 9 0 34 11 54 25 20 14 46 25 57 25 12 0 21 5 21 10 0 6 11 10 24
10 29 0 36 16 36 80 0 53 8 47 -89 66 -31 5 -41 25 -41 80 0 22 6 34 20 40 23
10 326 10 359 -1z m-1935 -215 c29 -10 67 -25 84 -34 17 -9 40 -16 52 -16 11
0 20 -4 20 -9 0 -5 8 -11 18 -14 24 -9 158 -88 182 -109 11 -10 22 -18 24 -18
10 0 145 -127 171 -162 6 -7 24 -31 40 -53 17 -22 33 -44 37 -50 20 -25 75
-114 88 -140 8 -17 17 -32 20 -35 16 -16 80 -207 80 -239 0 -15 4 -31 9 -36
18 -20 24 -106 28 -424 2 -214 0 -328 -7 -335 -5 -5 -10 -20 -10 -33 0 -12 -4
-32 -9 -45 -43 -111 -65 -158 -72 -158 -5 0 -9 -7 -9 -15 0 -8 -4 -15 -8 -15
-4 0 -15 -13 -25 -29 -26 -44 -95 -111 -162 -157 -62 -42 -70 -46 -145 -74
-37 -13 -46 -21 -48 -44 -2 -16 1 -33 7 -39 6 -6 11 -23 11 -38 0 -15 5 -31
10 -34 6 -3 10 -20 10 -37 0 -35 47 -88 80 -88 17 0 66 18 112 41 10 5 29 9
42 9 28 0 36 16 36 73 0 91 49 207 87 207 7 0 13 4 13 9 0 13 55 23 165 28 55
2 105 9 112 15 9 7 13 38 13 89 0 46 4 79 10 79 6 0 10 7 10 16 0 40 68 64
178 64 47 0 92 -5 105 -12 34 -20 65 -58 71 -91 8 -39 8 -372 0 -429 -7 -50
-34 -87 -77 -106 -44 -19 -192 -16 -225 5 -60 39 -72 64 -72 150 0 40 -5 74
-12 81 -8 8 -46 12 -104 12 -101 0 -124 -5 -124 -26 0 -8 -4 -14 -10 -14 -6 0
-10 -32 -10 -76 l0 -76 53 -53 c67 -66 81 -110 75 -232 -5 -97 -19 -133 -72
-186 -50 -50 -56 -68 -56 -157 0 -70 -4 -90 -27 -134 -15 -28 -37 -59 -48 -68
-11 -10 -25 -22 -32 -28 -7 -5 -17 -10 -23 -10 -5 0 -10 -4 -10 -10 0 -5 -9
-10 -20 -10 -11 0 -20 -4 -20 -10 0 -6 -36 -10 -88 -10 -99 0 -112 -7 -112
-60 -1 -74 24 -70 -464 -70 l-436 0 0 209 c0 116 -4 212 -9 215 -5 3 -19 -8
-32 -24 -13 -16 -28 -30 -32 -30 -4 0 -22 -10 -38 -22 -29 -22 -40 -23 -207
-23 -167 0 -180 1 -221 24 -50 26 -58 34 -84 74 -17 26 -21 27 -101 27 -89 0
-139 13 -197 51 -35 24 -89 98 -89 124 0 8 -5 17 -10 20 -6 4 -10 54 -10 119
0 92 4 120 20 154 11 22 20 45 20 50 0 5 22 31 48 58 58 58 102 74 206 74 41
0 78 4 81 10 3 5 10 36 15 67 12 75 32 143 42 143 4 0 8 7 8 15 0 9 16 31 35
49 39 39 43 54 18 84 -47 54 -53 63 -53 71 0 5 -3 11 -8 13 -15 6 -82 168 -82
197 0 16 -5 33 -10 36 -13 8 -13 658 0 699 5 17 21 78 36 136 14 58 35 123 45
144 10 22 19 46 19 53 0 7 5 13 10 13 6 0 10 9 10 20 0 12 8 30 19 41 10 11
27 37 37 59 10 22 22 40 27 40 4 0 7 7 7 15 0 15 240 265 255 265 4 0 15 8 24
19 14 16 43 34 142 86 11 5 19 13 19 17 0 5 9 8 20 8 11 0 20 5 20 10 0 6 7
10 15 10 8 0 23 4 33 9 39 21 133 53 178 61 67 12 194 2 258 -20z m2200 -1291
c3 -17 6 -49 6 -70 0 -28 6 -44 21 -57 48 -39 76 -68 82 -84 5 -14 18 -18 66
-18 54 0 62 -3 77 -25 15 -24 15 -87 -1 -103 -3 -3 -33 -9 -67 -14 -57 -8 -66
-12 -101 -53 -22 -25 -45 -45 -52 -45 -19 0 -35 -46 -35 -100 0 -56 -14 -66
-74 -54 -39 7 -49 25 -45 77 3 39 -8 77 -23 77 -6 0 -31 20 -56 45 -47 47 -60
53 -127 57 -39 3 -40 4 -48 52 -11 68 6 86 85 86 47 0 60 4 65 18 7 19 49 61
77 77 13 8 20 29 25 78 8 77 16 87 77 87 38 0 42 -2 48 -31z m-258 -526 c7
-10 14 -37 14 -59 0 -39 -2 -42 -42 -57 -24 -9 -56 -19 -73 -23 -16 -4 -34
-10 -40 -13 -5 -4 -28 -13 -50 -20 -22 -7 -49 -16 -60 -20 -11 -5 -33 -14 -48
-20 -43 -17 -52 -14 -70 24 -24 50 -23 95 2 95 11 0 23 5 26 10 3 6 19 10 36
10 16 0 29 5 29 10 0 6 9 10 20 10 17 0 32 5 95 31 44 18 111 38 129 39 10 0
25 -8 32 -17z m2 -305 c16 -16 15 -93 -2 -107 -9 -8 -69 -11 -192 -9 l-179 3
-3 49 c-5 80 -14 76 186 76 125 0 182 -4 190 -12z m-235 -224 c86 -28 121 -41
149 -55 10 -5 24 -9 31 -9 7 0 25 -6 40 -12 21 -10 27 -20 27 -46 0 -37 -33
-92 -56 -92 -8 0 -14 5 -14 10 0 6 -13 10 -30 10 -16 0 -30 5 -30 10 0 6 -7
10 -16 10 -21 0 -226 70 -241 82 -16 13 -16 45 -2 87 14 39 32 40 142 5z
m-405 -296 c7 -7 12 -39 12 -75 0 -39 4 -63 11 -63 12 0 79 -64 79 -75 0 -22
34 -35 88 -35 65 0 72 -6 72 -61 0 -56 -15 -69 -77 -69 -55 0 -56 0 -114 -62
-56 -60 -59 -65 -59 -115 0 -58 -21 -83 -71 -83 -45 0 -59 10 -59 42 0 40 -20
118 -31 118 -5 0 -31 23 -59 50 -47 46 -54 50 -99 50 -61 0 -73 14 -69 77 l3
48 62 3 c57 3 64 6 85 35 27 38 44 57 53 57 25 0 54 58 50 100 -6 63 1 70 59
70 28 0 57 -5 64 -12z m832 -107 c0 -48 5 -65 23 -86 20 -24 25 -25 48 -15 13
6 34 24 44 41 25 37 66 39 100 4 36 -35 32 -73 -11 -119 -32 -34 -35 -41 -24
-61 10 -19 24 -24 76 -30 58 -6 65 -9 70 -32 4 -14 3 -42 -2 -62 l-9 -36 -61
-3 c-58 -3 -63 -5 -74 -33 -12 -28 -11 -32 24 -68 53 -55 45 -104 -23 -141
-23 -12 -27 -10 -63 29 -31 32 -46 41 -73 41 -36 0 -38 -4 -47 -115 -3 -29 -4
-30 -58 -30 -54 0 -55 1 -58 30 -1 17 -7 49 -13 73 -10 36 -15 42 -38 42 -18
0 -39 -12 -61 -35 -42 -43 -69 -44 -103 -5 -35 39 -34 58 8 102 59 62 42 108
-42 108 -62 0 -73 8 -80 58 -8 57 7 72 70 72 54 0 87 19 87 50 0 10 -16 35
-35 56 -31 35 -49 94 -27 94 4 0 20 11 36 25 16 14 33 25 37 25 4 0 26 -18 48
-40 44 -44 47 -45 86 -30 25 9 26 14 24 68 -1 32 1 64 5 70 4 7 31 12 62 12
l54 0 0 -59z"/>
<path d="M2582 4178 c-13 -13 -16 -56 -6 -82 4 -11 19 -16 49 -16 45 0 55 10
55 54 0 45 -67 75 -98 44z"/>
<path d="M3628 3734 c-9 -8 0 -54 13 -68 12 -14 11 -106 -1 -106 -5 0 -10 -8
-10 -18 0 -20 -61 -92 -78 -92 -6 0 -12 -5 -14 -11 -5 -16 -144 -17 -160 -1
-27 27 -38 13 -38 -48 0 -61 19 -118 53 -154 9 -11 17 -24 17 -29 0 -15 28
-37 93 -72 56 -30 74 -35 134 -35 64 0 163 26 185 48 13 13 1 36 -24 47 -12 6
-26 19 -32 30 -6 11 -13 22 -16 25 -48 48 -37 187 19 237 26 23 79 48 124 57
15 4 27 13 27 22 0 18 -31 74 -41 74 -4 0 -24 16 -45 35 -21 19 -46 35 -55 35
-10 0 -19 4 -21 9 -4 12 -120 26 -130 15z"/>
<path d="M3431 3644 c-14 -16 -21 -35 -19 -52 3 -23 8 -27 41 -30 63 -5 91 50
45 89 -28 25 -40 24 -67 -7z"/>
<path d="M3863 3395 c-43 -49 19 -125 73 -90 28 18 33 68 10 91 -19 18 -67 18
-83 -1z"/>
<path d="M1585 3783 c-27 -8 -54 -19 -59 -24 -6 -5 -18 -9 -28 -9 -10 0 -18
-4 -18 -10 0 -5 -9 -10 -20 -10 -11 0 -20 -4 -20 -10 0 -5 -7 -10 -15 -10 -18
0 -141 -78 -185 -117 -82 -72 -180 -176 -192 -203 -7 -17 -16 -30 -20 -30 -5
0 -8 -5 -8 -12 0 -6 -11 -26 -25 -44 -14 -18 -25 -37 -25 -43 0 -6 -4 -11 -10
-11 -5 0 -10 -9 -10 -20 0 -11 -4 -20 -10 -20 -5 0 -10 -9 -10 -20 0 -11 -4
-20 -10 -20 -5 0 -10 -8 -10 -18 0 -10 -4 -22 -8 -27 -8 -9 -24 -68 -51 -187
-6 -26 -11 -78 -11 -117 0 -38 -5 -82 -10 -96 -12 -33 5 -440 21 -500 14 -49
61 -159 72 -163 4 -2 7 -10 7 -19 0 -8 24 -37 53 -64 47 -44 56 -49 101 -49
44 0 113 -16 126 -30 3 -3 19 -12 35 -20 17 -8 36 -21 43 -28 22 -20 62 -10
62 15 0 20 -16 33 -83 68 -32 16 -66 38 -74 47 -9 10 -21 18 -26 18 -12 0 -51
44 -75 83 -9 15 -20 27 -24 27 -4 0 -8 7 -8 15 0 8 -8 24 -17 34 -30 36 -64
135 -75 221 -6 50 -8 205 -6 375 l4 290 27 57 c34 69 82 117 156 154 l56 29
525 0 525 0 50 -29 c28 -16 60 -34 72 -40 26 -13 93 -111 93 -137 0 -9 4 -19
10 -21 6 -2 10 -132 11 -359 1 -328 -1 -360 -19 -415 -24 -74 -53 -134 -64
-134 -4 0 -8 -8 -8 -17 -1 -10 -19 -36 -40 -58 -22 -22 -40 -43 -40 -47 0 -5
-5 -8 -10 -8 -6 0 -23 -12 -39 -27 -16 -16 -63 -45 -104 -67 -42 -21 -78 -45
-81 -53 -8 -19 52 -73 80 -73 21 0 68 18 154 58 19 9 37 18 40 22 3 3 21 17
40 32 62 47 110 95 110 112 0 9 4 16 8 16 12 0 56 87 71 140 7 25 17 55 22 68
13 32 12 659 -1 667 -5 3 -10 19 -10 35 0 16 -4 39 -9 52 -5 13 -16 48 -26 78
-10 30 -22 59 -26 64 -5 6 -9 23 -9 38 0 15 -4 28 -10 28 -5 0 -10 9 -10 20 0
11 -4 20 -10 20 -5 0 -10 5 -10 10 0 6 -5 16 -10 23 -6 7 -28 39 -50 72 -38
57 -120 156 -150 182 -80 67 -167 133 -177 133 -7 0 -13 5 -13 10 0 6 -8 10
-18 10 -10 0 -24 9 -32 20 -8 11 -20 20 -27 20 -7 0 -21 4 -31 10 -9 5 -50 21
-90 35 -87 30 -224 34 -307 8z"/>
<path d="M1250 3160 c-8 -5 -24 -10 -36 -10 -23 0 -80 -52 -89 -81 -11 -35 8
-44 92 -43 43 0 313 1 601 2 l522 2 0 24 c0 29 -58 83 -98 92 -15 3 -43 10
-62 14 -51 12 -912 12 -930 0z"/>
<path d="M1097 2891 c-13 -15 -14 -357 -2 -370 9 -8 380 -14 421 -6 39 7 45
21 71 148 3 15 9 27 14 27 5 0 9 5 9 11 0 47 127 78 194 48 28 -13 59 -70 81
-149 25 -91 8 -85 250 -88 201 -4 215 -3 222 15 9 21 11 359 2 367 -3 4 -286
8 -628 9 -537 3 -624 1 -634 -12z"/>
<path d="M1712 2614 c-8 -8 -12 -32 -10 -57 3 -37 6 -42 28 -42 22 0 25 5 28
37 3 36 -11 78 -26 78 -4 -1 -13 -7 -20 -16z"/>
<path d="M1106 2374 c-7 -19 24 -134 36 -134 4 0 8 -5 8 -11 0 -18 30 -41 45
-35 8 3 21 21 29 41 9 20 34 54 57 76 22 21 39 45 36 53 -7 17 -53 26 -137 26
-54 0 -69 -3 -74 -16z"/>
<path d="M1640 2380 c-14 -4 -45 -13 -70 -21 -101 -29 -201 -109 -237 -190 -9
-21 -20 -39 -25 -39 -13 0 -9 -60 5 -73 22 -21 56 -37 76 -37 11 0 23 -4 26
-10 8 -13 608 -14 633 -1 9 5 38 19 65 31 31 16 47 29 47 42 0 47 -98 198
-129 198 -6 0 -11 5 -11 10 0 6 -7 10 -15 10 -8 0 -15 5 -15 10 0 6 -7 10 -15
10 -8 0 -15 4 -15 8 0 18 -180 62 -250 61 -25 0 -56 -4 -70 -9z"/>
<path d="M2142 2378 c-10 -13 -5 -23 31 -62 24 -25 52 -64 63 -86 10 -22 26
-40 34 -40 36 0 98 156 73 181 -6 6 -51 14 -100 16 -71 5 -91 3 -101 -9z"/>
<path d="M3077 1843 c-3 -49 -3 -135 1 -193 l7 -105 51 -3 c50 -3 52 -2 63 29
15 43 14 301 -1 334 -10 22 -17 25 -63 25 l-52 0 -6 -87z"/>
<path d="M1531 1849 c-49 -22 -74 -46 -102 -101 -17 -34 -19 -61 -19 -288 0
-247 0 -252 25 -304 28 -60 114 -156 139 -156 9 0 16 -4 16 -10 0 -5 14 -10
30 -10 17 0 30 -4 30 -10 0 -16 608 -13 624 3 22 23 36 94 36 186 0 108 -15
166 -48 180 -13 7 -94 11 -191 11 l-168 0 -26 -30 c-15 -16 -27 -34 -27 -40 0
-5 -4 -10 -10 -10 -5 0 -10 -7 -10 -15 0 -8 -4 -15 -8 -15 -5 0 -14 -11 -20
-24 -8 -19 -16 -23 -34 -19 -13 4 -25 9 -28 12 -3 3 -14 11 -25 17 -11 6 -22
19 -23 28 -3 15 70 142 90 156 4 3 8 71 9 151 1 129 -1 150 -20 191 -26 54
-62 88 -112 106 -47 16 -75 14 -128 -9z"/>
<path d="M1902 1797 c-7 -8 -6 -20 3 -37 10 -17 14 -61 15 -137 0 -61 3 -118
6 -127 5 -13 25 -16 120 -16 l114 0 0 25 c0 48 -59 158 -111 208 -27 26 -54
47 -59 47 -6 0 -10 5 -10 10 0 6 -9 10 -20 10 -11 0 -20 4 -20 9 0 15 -28 21
-38 8z"/>
<path d="M1020 1787 c-14 -6 -44 -30 -67 -54 -31 -32 -43 -53 -48 -85 -3 -24
-5 -195 -3 -381 l3 -339 24 -19 c20 -16 40 -19 152 -19 135 0 169 8 188 44 8
15 11 121 9 366 -3 336 -4 346 -26 388 -12 24 -32 53 -45 65 -43 42 -132 59
-187 34z"/>
<path d="M645 1413 c-11 -2 -29 -6 -41 -8 -60 -13 -94 -79 -94 -181 0 -115 13
-147 71 -179 40 -22 59 -25 111 -23 l63 3 7 40 c9 53 10 317 0 331 -8 12 -85
23 -117 17z"/>
<path d="M2470 1320 c-33 -39 -41 -80 -34 -162 l7 -68 105 0 c135 0 142 6 142
124 -1 80 -13 116 -39 116 -6 0 -11 5 -11 10 0 6 -31 10 -73 10 -68 0 -74 -2
-97 -30z"/>
<path d="M2413 945 c-7 -8 -13 -17 -13 -20 0 -10 -69 -75 -80 -75 -6 0 -10
-30 -10 -75 l0 -75 85 0 c83 0 86 1 121 34 34 32 36 38 41 115 4 57 2 85 -7
96 -17 20 -120 20 -137 0z"/>
<path d="M1540 715 l0 -145 306 0 c280 0 308 2 320 18 9 11 13 49 14 113 0
137 17 129 -276 129 -132 0 -244 4 -249 9 -6 5 -34 11 -62 14 l-53 6 0 -144z"/>
<path d="M4026 2372 c-29 -6 -46 -27 -46 -57 0 -38 23 -57 67 -53 l38 3 3 51
c3 47 1 52 -20 56 -13 2 -32 2 -42 0z"/>
<path d="M3097 1002 c-10 -10 -17 -32 -17 -49 0 -24 6 -34 32 -46 48 -23 78
-6 78 46 0 61 -56 90 -93 49z"/>
<path d="M3920 943 c-54 -37 -70 -65 -70 -120 0 -29 5 -53 10 -53 6 0 10 -5
10 -11 0 -12 17 -29 48 -46 26 -15 102 -17 102 -3 0 6 5 10 11 10 7 0 22 12
35 28 19 22 24 38 24 85 0 31 -4 57 -10 57 -5 0 -10 6 -10 14 0 15 -53 44 -97
51 -17 3 -38 -2 -53 -12z"/>
</g>
</svg>
