<svg width="50" height="51" viewBox="0 0 50 51" fill="none" xmlns="http://www.w3.org/2000/svg">
<path d="M31.8671 36.6745C31.8671 42.0079 28.7921 46.3412 25.0005 46.3412C21.2171 46.3412 18.1338 42.0079 18.1338 36.6745C18.1338 32.7745 19.7921 29.4162 22.1588 27.8829C21.5005 27.4912 20.9255 26.9662 20.4755 26.3412C20.1505 25.8995 19.8921 25.3995 19.7171 24.8662C19.6005 24.5329 19.5171 24.1912 19.4755 23.8329C19.4024 23.2791 19.4108 22.7176 19.5005 22.1662C19.5505 21.8829 19.6171 21.6162 19.7088 21.3495C19.8838 20.8245 20.1338 20.3245 20.4505 19.8745C20.8466 19.32 21.3408 18.8427 21.9088 18.4662C19.9171 17.4662 18.5671 15.5245 18.5671 13.3162C18.5671 11.3412 19.6421 9.58286 21.2838 8.51619C21.7421 8.21619 22.2505 7.96619 22.7921 7.79953C23.4838 7.55786 24.2255 7.43286 25.0005 7.43286C25.7755 7.43286 26.5171 7.55786 27.2088 7.79953C27.7505 7.96619 28.2588 8.21619 28.7171 8.51619C30.3671 9.58286 31.4421 11.3412 31.4421 13.3162C31.4421 15.5329 30.0838 17.4662 28.0921 18.4662C28.6601 18.8427 29.1544 19.32 29.5505 19.8745H29.5588C29.8671 20.3245 30.1171 20.8245 30.2921 21.3495C30.3838 21.6162 30.4505 21.8829 30.4921 22.1662H30.5005C30.5901 22.7176 30.5985 23.2791 30.5255 23.8329C30.4838 24.1912 30.4005 24.5329 30.2838 24.8662C30.1088 25.3995 29.8505 25.8995 29.5255 26.3412C29.0755 26.9662 28.5005 27.4912 27.8421 27.8829C30.2171 29.4079 31.8671 32.7745 31.8671 36.6745Z" fill="#292E35"/>
<path d="M30.2917 21.3495C30.1167 20.8245 29.8667 20.3245 29.5584 19.8745C31.6917 18.8245 38.2417 14.8245 36.6 6.35784C36.5787 6.25056 36.5789 6.14012 36.6006 6.0329C36.6222 5.92569 36.6648 5.82382 36.726 5.73317C36.7872 5.64252 36.8658 5.56489 36.9572 5.50477C37.0485 5.44464 37.1509 5.4032 37.2584 5.38284C37.3656 5.36156 37.4761 5.36174 37.5833 5.38337C37.6905 5.405 37.7924 5.44765 37.883 5.50885C37.9737 5.57006 38.0513 5.64861 38.1114 5.73998C38.1716 5.83134 38.213 5.93371 38.2334 6.04117C40.0667 15.4995 32.725 20.1078 30.2917 21.3495ZM38.2084 40.2412C38.1 40.5995 37.775 40.8245 37.4167 40.8245C37.3334 40.8245 37.25 40.8162 37.175 40.7912C36.7334 40.6578 36.4834 40.1912 36.6167 39.7495C38.9334 32.1912 31.8 27.5912 29.525 26.3412C29.85 25.8995 30.1084 25.3995 30.2834 24.8662C32.775 26.2662 40.8667 31.5745 38.2084 40.2412ZM39.925 27.6828C39.7834 27.7662 39.6334 27.8078 39.4834 27.8078C39.2084 27.8078 38.9334 27.6662 38.775 27.4162C36.4417 23.6328 32.1334 23.6662 30.525 23.8328C30.5981 23.279 30.5897 22.7175 30.5 22.1662C32.5334 21.9912 37.4417 22.0828 40.1917 26.5412C40.4334 26.9328 40.3167 27.4412 39.925 27.6828ZM20.45 19.8745C20.1325 20.3276 19.8827 20.8245 19.7084 21.3495C17.275 20.1078 9.93335 15.4995 11.7667 6.04117C11.8584 5.59117 12.2917 5.29951 12.75 5.38284C13.2 5.46617 13.4917 5.90784 13.4084 6.35784C11.7667 14.8245 18.3084 18.8245 20.45 19.8745ZM13.3834 39.7495C13.4159 39.854 13.4275 39.9639 13.4175 40.0729C13.4074 40.1819 13.376 40.2879 13.3249 40.3847C13.2738 40.4815 13.204 40.5672 13.1197 40.637C13.0353 40.7067 12.938 40.7591 12.8334 40.7912C12.75 40.8162 12.6667 40.8245 12.5917 40.8245C12.2334 40.8245 11.9 40.5995 11.7917 40.2412C9.13335 31.5745 17.225 26.2662 19.7167 24.8662C19.8917 25.3995 20.15 25.8995 20.475 26.3412C18.2084 27.5912 11.0667 32.1995 13.3834 39.7495ZM19.425 23.0995C19.425 23.3495 19.4417 23.5912 19.475 23.8328C17.8584 23.6662 13.55 23.6412 11.225 27.4162C11.0667 27.6662 10.8 27.8078 10.5167 27.8078C10.3634 27.8077 10.2132 27.7644 10.0834 27.6828C9.99013 27.6261 9.90903 27.5516 9.84471 27.4634C9.7804 27.3752 9.73413 27.2753 9.70858 27.1692C9.68303 27.0631 9.67869 26.953 9.69581 26.8452C9.71293 26.7374 9.75118 26.6341 9.80835 26.5412C12.5584 22.0912 17.4667 21.9912 19.5 22.1662C19.45 22.4662 19.425 22.7828 19.425 23.0995ZM29.975 5.86617L28.7167 8.51617C28.2584 8.21617 27.75 7.96617 27.2084 7.79951L28.4667 5.14951C28.6667 4.74117 29.1667 4.55784 29.5834 4.75784C29.9917 4.95784 30.175 5.44951 29.975 5.86617ZM22.7917 7.79951C22.25 7.96617 21.7417 8.21617 21.2834 8.51617L20.025 5.86617C19.8334 5.44951 20.0084 4.95784 20.425 4.75784C20.8334 4.55784 21.3334 4.74117 21.5334 5.14951L22.7917 7.79951Z" fill="#292E35"/>
</svg>
