<svg width="50" height="51" viewBox="0 0 50 51" fill="none" xmlns="http://www.w3.org/2000/svg">
<g clip-path="url(#clip0_305_6094)">
<path d="M25.0015 10.7732C25.2412 10.7732 25.5493 10.7921 25.8988 10.8263C25.5348 10.3144 25.2336 9.7607 25.0015 9.17703C24.8115 9.68587 24.4986 10.2573 24.1043 10.8263C24.4537 10.7921 24.7619 10.7732 25.0015 10.7732ZM25.0015 6.80519C25.1373 6.5549 25.3038 6.36482 25.4502 6.23849C26.125 5.65366 26.946 5.26314 27.8256 5.10865L25.0015 2.28463L22.1775 5.10865C23.057 5.26314 23.8781 5.65366 24.5529 6.23849C24.6993 6.36482 24.8658 6.5549 25.0015 6.80519ZM7.39865 30.2285L1.50977 40.1928L3.03629 41.0948L8.67016 31.5614L9.23686 31.2615C9.58486 30.3717 9.97168 29.4976 10.3962 28.6417L7.39865 30.2285ZM16.0844 18.8934L13.1647 19.6455L11.5804 15.4189L3.39284 9.35412L2.33619 10.7779L10.1022 16.531L12.0632 21.7588L16.2898 20.6703L16.4398 20.5333C16.3077 19.9897 16.1892 19.4429 16.0844 18.8934ZM17.3925 12.9385C17.1026 12.5475 16.873 12.1154 16.7113 11.6563L13.2828 6.21606L6.074 0.507813L4.97249 1.89739L11.944 7.41674L16.1765 14.1332C16.2898 13.9609 16.415 13.7861 16.5826 13.6102C16.8152 13.3694 17.0891 13.1462 17.3925 12.9385ZM39.6057 28.6406C40.013 29.4575 40.4014 30.33 40.765 31.2603L41.3317 31.5602L46.9656 41.0936L48.4921 40.1917L42.6032 30.2261L39.6057 28.6406ZM33.7121 20.6703L37.9387 21.7588L39.8996 16.531L47.6657 10.7779L46.6102 9.35294L38.4227 15.4177L36.8383 19.6443L33.9187 18.8923C33.8148 19.4318 33.6991 19.9784 33.5633 20.5333L33.7121 20.6703ZM33.4193 13.6102C33.5869 13.7861 33.7121 13.9597 33.8254 14.1332L38.0579 7.41792L45.0294 1.89857L43.9279 0.507813L36.7191 6.21606L33.2953 11.6504C33.1277 12.1097 32.9093 12.5477 32.6117 12.9396C32.914 13.1462 33.1879 13.3694 33.4193 13.6102ZM27.6555 34.3748C28.2565 37.4196 30.273 45.6838 32.3638 47.3343C34.4393 48.9718 38.4522 51.2244 40.3849 50.2859C41.2432 49.8703 41.68 48.7463 41.6824 46.9447C41.7013 33.5979 36.686 26.1719 33.0096 22.5191C32.7097 23.5161 32.3534 24.4952 31.9423 25.4517C30.6071 28.4894 27.2128 30.6063 25.0015 30.6063C22.7914 30.6063 19.396 28.4894 18.0607 25.4506C17.6497 24.494 17.2934 23.5149 16.9935 22.5179C13.3182 26.1707 8.30181 33.5968 8.3207 46.9436C8.32306 48.7452 8.75989 49.8691 9.61819 50.2847C11.5497 51.2197 15.5649 48.9707 17.6393 47.3332C19.7301 45.6827 21.7466 37.4184 22.3475 34.3736L24.0877 34.716C23.9532 35.3972 23.1881 39.1385 22.0004 42.6473C22.8224 43.4109 23.8831 43.8668 25.0027 43.9377C26.1224 43.8678 27.1833 43.4122 28.005 42.6485C26.8161 39.1397 26.0523 35.3984 25.9177 34.716L27.6555 34.3748Z" fill="#292E35"/>
<path d="M33.1415 15.7528C33.1745 14.9807 32.609 14.3231 31.7519 13.7824C31.4048 14.0303 30.9998 14.1838 30.5453 14.1838C29.3871 14.1838 28.0731 13.2971 26.9928 12.1649C26.1995 12.0268 25.4911 11.9536 25.0011 11.9536C24.5112 11.9536 23.8028 12.0268 23.0106 12.1649C21.9304 13.2971 20.6164 14.1838 19.4582 14.1838C19.0037 14.1838 18.5987 14.0303 18.2504 13.7824C17.3933 14.3231 16.8266 14.9807 16.8608 15.7528C16.9695 18.2486 17.9458 22.2651 19.1394 24.9781C20.333 27.6911 23.3719 29.4278 25 29.4278C26.628 29.4278 29.6669 27.6911 30.8605 24.9781C32.0565 22.2639 33.034 18.2486 33.1415 15.7528Z" fill="#292E35"/>
<path d="M18.8613 12.7947C20.4256 14.1524 25.3428 8.48779 23.7785 7.13009C23.4066 6.80722 22.9747 6.56077 22.5075 6.40481C22.0403 6.24885 21.547 6.18644 21.0557 6.22114C20.5644 6.25584 20.0847 6.38696 19.6441 6.60704C19.2035 6.82711 18.8105 7.13181 18.4876 7.50375C17.8355 8.25492 17.5086 9.23435 17.5787 10.2266C17.6487 11.2188 18.1101 12.1426 18.8613 12.7947ZM31.142 12.7947C31.8931 12.1424 32.3545 11.2185 32.4244 10.2262C32.4944 9.23383 32.1673 8.25433 31.5151 7.50316C30.8628 6.75199 29.9389 6.29069 28.9466 6.22072C27.9542 6.15076 26.9747 6.47787 26.2236 7.13009C24.6604 8.48779 29.5777 14.1524 31.142 12.7947Z" fill="#292E35"/>
</g>
<defs>
<clipPath id="clip0_305_6094">
<rect width="50" height="50" fill="white" transform="translate(0 0.507812)"/>
</clipPath>
</defs>
</svg>
