<svg width="50" height="51" viewBox="0 0 50 51" fill="none" xmlns="http://www.w3.org/2000/svg">
<path d="M29.8568 7.27197C29.9132 6.9288 29.8778 6.57683 29.7542 6.25178C29.6305 5.92673 29.4231 5.64017 29.1529 5.42119L27.1568 3.82666L27.524 5.64932C27.5976 6.02665 27.5918 6.41518 27.5071 6.79017C27.4224 7.16516 27.2605 7.51841 27.0318 7.82744L26.7787 8.16416C27.7714 8.42284 28.6921 8.90429 29.4709 9.57197L29.8568 7.27197ZM20.5287 9.57275C21.3077 8.9049 22.2287 8.42343 23.2217 8.16494L22.9686 7.829C22.7399 7.52054 22.5779 7.16788 22.4929 6.79344C22.4079 6.41899 22.4017 6.03096 22.4748 5.654L22.8428 3.82744L20.8451 5.42275C20.5752 5.64168 20.368 5.92817 20.2446 6.2531C20.1213 6.57804 20.0861 6.92984 20.1428 7.27275L20.5287 9.57275ZM30.8443 13.9017C30.6873 11.0157 28.1303 8.71104 24.9998 8.71104C21.8693 8.71104 19.3123 11.0157 19.1553 13.9017C20.8896 12.5884 22.8811 11.836 24.9998 11.836C27.1186 11.836 29.11 12.5884 30.8443 13.9017ZM38.0061 14.1798H36.7186C36.6365 14.1797 36.5566 14.1538 36.49 14.1059C36.4235 14.0579 36.3736 13.9903 36.3475 13.9126L35.7842 12.2235L32.7834 15.7298C33.2682 16.2934 33.7108 16.8918 34.1076 17.5204L38.0061 14.1798ZM39.267 17.8063L35.6068 20.4228C35.9428 21.254 36.2193 22.1337 36.4475 23.0446L40.2357 21.6235L38.9389 21.1907C38.8486 21.1606 38.7725 21.0986 38.7247 21.0163C38.677 20.934 38.6609 20.8371 38.6795 20.7438L39.267 17.8063Z" fill="#292E35"/>
<path d="M38.3594 13.3977L41.9305 10.2727H40.6266C40.523 10.2727 40.4236 10.2315 40.3503 10.1582C40.2771 10.085 40.2359 9.98563 40.2359 9.88203V7.79688L36.5422 12.018L37.0016 13.3977H38.3594ZM25.0016 17.3039C28.3094 17.3039 31.5461 18.1281 34.4391 19.6867C32.4078 15.4305 28.9375 12.6164 25.0016 12.6164C21.0656 12.6164 17.5953 15.4305 15.5641 19.6867C18.4639 18.1229 21.7069 17.3041 25.0016 17.3039ZM28.9078 15.3508C29.115 15.3508 29.3137 15.4331 29.4602 15.5796C29.6068 15.7261 29.6891 15.9248 29.6891 16.132C29.6891 16.3392 29.6068 16.5379 29.4602 16.6845C29.3137 16.831 29.115 16.9133 28.9078 16.9133C28.7006 16.9133 28.5019 16.831 28.3554 16.6845C28.2089 16.5379 28.1266 16.3392 28.1266 16.132C28.1266 15.9248 28.2089 15.7261 28.3554 15.5796C28.5019 15.4331 28.7006 15.3508 28.9078 15.3508ZM25.0016 14.0547C25.2088 14.0547 25.4075 14.137 25.554 14.2835C25.7005 14.43 25.7828 14.6287 25.7828 14.8359C25.7828 15.0431 25.7005 15.2419 25.554 15.3884C25.4075 15.5349 25.2088 15.6172 25.0016 15.6172C24.7944 15.6172 24.5956 15.5349 24.4491 15.3884C24.3026 15.2419 24.2203 15.0431 24.2203 14.8359C24.2203 14.6287 24.3026 14.43 24.4491 14.2835C24.5956 14.137 24.7944 14.0547 25.0016 14.0547ZM20.3141 14.5695C20.5213 14.5695 20.72 14.6518 20.8665 14.7984C21.013 14.9449 21.0953 15.1436 21.0953 15.3508C21.0953 15.558 21.013 15.7567 20.8665 15.9032C20.72 16.0497 20.5213 16.132 20.3141 16.132C20.1069 16.132 19.9081 16.0497 19.7616 15.9032C19.6151 15.7567 19.5328 15.558 19.5328 15.3508C19.5328 15.1436 19.6151 14.9449 19.7616 14.7984C19.9081 14.6518 20.1069 14.5695 20.3141 14.5695ZM11.0625 21.1898L9.76562 21.6227L13.5539 23.0437C13.7738 22.1516 14.0546 21.2756 14.3945 20.4219L10.7344 17.8055L11.3219 20.743C11.3406 20.8363 11.3246 20.9332 11.2769 21.0155C11.2291 21.0979 11.1528 21.1599 11.0625 21.1898Z" fill="#292E35"/>
<path d="M45.4406 6.38232C43.8598 6.56945 42.3446 7.12323 41.0156 7.99951V9.4917H41.493C42.5497 8.1629 43.9013 7.09835 45.4406 6.38232ZM37.8906 38.1159V35.6636C37.8907 35.5816 37.9165 35.5018 37.9645 35.4353C38.0124 35.3689 38.0801 35.3192 38.1578 35.2933L39.3898 34.8823L36.293 33.8495C35.979 34.7743 35.5361 35.6501 34.9773 36.4511L37.8906 38.1159ZM35.7383 32.9597C36.1148 31.673 36.3281 30.1667 36.3281 28.3979C36.3281 28.2784 36.3172 28.1636 36.3156 28.0448C33.0164 25.6214 29.1102 24.3354 25 24.3354C20.8898 24.3354 16.9836 25.6214 13.6844 28.0448C13.6828 28.1636 13.6719 28.2792 13.6719 28.3979C13.6719 30.1659 13.8852 31.673 14.2617 32.9597C17.4687 30.9011 21.1664 29.8042 25 29.8042C28.8336 29.8042 32.5312 30.9011 35.7383 32.9597ZM32.0312 27.0698C32.2385 27.0698 32.4372 27.1521 32.5837 27.2986C32.7302 27.4452 32.8125 27.6439 32.8125 27.8511C32.8125 28.0583 32.7302 28.257 32.5837 28.4035C32.4372 28.55 32.2385 28.6323 32.0312 28.6323C31.824 28.6323 31.6253 28.55 31.4788 28.4035C31.3323 28.257 31.25 28.0583 31.25 27.8511C31.25 27.6439 31.3323 27.4452 31.4788 27.2986C31.6253 27.1521 31.824 27.0698 32.0312 27.0698ZM16.4062 28.6323C16.199 28.6323 16.0003 28.55 15.8538 28.4035C15.7073 28.257 15.625 28.0583 15.625 27.8511C15.625 27.6439 15.7073 27.4452 15.8538 27.2986C16.0003 27.1521 16.199 27.0698 16.4062 27.0698C16.6135 27.0698 16.8122 27.1521 16.9587 27.2986C17.1052 27.4452 17.1875 27.6439 17.1875 27.8511C17.1875 28.0583 17.1052 28.257 16.9587 28.4035C16.8122 28.55 16.6135 28.6323 16.4062 28.6323ZM20.3125 30.1948C20.1053 30.1948 19.9066 30.1125 19.7601 29.966C19.6136 29.8195 19.5312 29.6208 19.5312 29.4136C19.5312 29.2064 19.6136 29.0077 19.7601 28.8611C19.9066 28.7146 20.1053 28.6323 20.3125 28.6323C20.5197 28.6323 20.7184 28.7146 20.8649 28.8611C21.0114 29.0077 21.0937 29.2064 21.0937 29.4136C21.0937 29.6208 21.0114 29.8195 20.8649 29.966C20.7184 30.1125 20.5197 30.1948 20.3125 30.1948ZM24.2187 27.0698C24.2187 26.8626 24.3011 26.6639 24.4476 26.5174C24.5941 26.3709 24.7928 26.2886 25 26.2886C25.2072 26.2886 25.4059 26.3709 25.5524 26.5174C25.6989 26.6639 25.7812 26.8626 25.7812 27.0698C25.7812 27.277 25.6989 27.4757 25.5524 27.6223C25.4059 27.7688 25.2072 27.8511 25 27.8511C24.7928 27.8511 24.5941 27.7688 24.4476 27.6223C24.3011 27.4757 24.2187 27.277 24.2187 27.0698Z" fill="#292E35"/>
<path d="M25.0014 18.0852C21.4779 18.0852 18.0373 19.0555 15.0412 20.8859C14.3131 22.7531 13.8553 24.8492 13.7217 27.0719C17.049 24.7773 20.9264 23.5539 25.0014 23.5539C29.0764 23.5539 32.9537 24.7773 36.2811 27.0719C36.1475 24.8492 35.6896 22.7523 34.9615 20.8859C31.9626 19.0533 28.5159 18.0841 25.0014 18.0852ZM18.7514 23.9445C18.5442 23.9445 18.3455 23.8622 18.1989 23.7157C18.0524 23.5692 17.9701 23.3705 17.9701 23.1633C17.9701 22.9561 18.0524 22.7574 18.1989 22.6109C18.3455 22.4643 18.5442 22.382 18.7514 22.382C18.9586 22.382 19.1573 22.4643 19.3038 22.6109C19.4503 22.7574 19.5326 22.9561 19.5326 23.1633C19.5326 23.3705 19.4503 23.5692 19.3038 23.7157C19.1573 23.8622 18.9586 23.9445 18.7514 23.9445ZM25.0014 21.6008C24.7942 21.6008 24.5955 21.5185 24.4489 21.372C24.3024 21.2254 24.2201 21.0267 24.2201 20.8195C24.2201 20.6123 24.3024 20.4136 24.4489 20.2671C24.5955 20.1206 24.7942 20.0383 25.0014 20.0383C25.2086 20.0383 25.4073 20.1206 25.5538 20.2671C25.7003 20.4136 25.7826 20.6123 25.7826 20.8195C25.7826 21.0267 25.7003 21.2254 25.5538 21.372C25.4073 21.5185 25.2086 21.6008 25.0014 21.6008ZM30.4701 22.382C30.2629 22.382 30.0642 22.2997 29.9177 22.1532C29.7712 22.0067 29.6889 21.808 29.6889 21.6008C29.6889 21.3936 29.7712 21.1949 29.9177 21.0484C30.0642 20.9018 30.2629 20.8195 30.4701 20.8195C30.6773 20.8195 30.876 20.9018 31.0225 21.0484C31.1691 21.1949 31.2514 21.3936 31.2514 21.6008C31.2514 21.808 31.1691 22.0067 31.0225 22.1532C30.876 22.2997 30.6773 22.382 30.4701 22.382ZM40.9232 41.2281L41.8396 39.3953C41.8674 39.34 41.9079 39.2922 41.9578 39.2556C42.0077 39.219 42.0656 39.1947 42.1266 39.1848C42.1877 39.1749 42.2502 39.1796 42.3091 39.1986C42.368 39.2175 42.4216 39.2501 42.4654 39.2938L43.9803 40.8086L43.8592 39.9586C43.7241 38.9899 43.3204 38.0785 42.6938 37.3276C42.0672 36.5767 41.2427 36.0164 40.3139 35.7102L39.8451 35.5539L38.674 35.9445V37.5203C39.8547 38.4372 40.6556 39.7574 40.9232 41.2281ZM46.5904 19.0719L44.174 17.6219L42.8021 18.5367L43.8803 19.6141L46.5904 19.0719ZM11.9951 14.1789L15.8928 17.5195C16.2899 16.8911 16.7325 16.2927 17.217 15.7289L14.2162 12.2227L13.6529 13.9117C13.627 13.9895 13.5773 14.0571 13.5109 14.1051C13.4444 14.153 13.3646 14.1788 13.2826 14.1789H11.9951Z" fill="#292E35"/>
<path d="M43.3906 20.2313L41.9117 18.7524C41.8709 18.7114 41.8396 18.662 41.82 18.6076C41.8004 18.5532 41.793 18.4951 41.7984 18.4375C41.8044 18.38 41.8229 18.3245 41.8528 18.2749C41.8826 18.2254 41.923 18.183 41.9711 18.1508L43.4398 17.1719C42.2709 17.1205 41.1074 17.3582 40.0523 17.8641L39.5141 20.5586L39.8984 20.6868C41.0154 20.2823 42.2073 20.1269 43.3906 20.2313ZM9.94609 30.5008L12.957 30.0719C12.9135 29.5152 12.8916 28.9569 12.8914 28.3985C12.8914 27.818 12.9141 27.2446 12.957 26.6797H9.32422L10.4813 28.4164C10.5143 28.466 10.5356 28.5224 10.5436 28.5814C10.5516 28.6405 10.546 28.7005 10.5273 28.7571L9.94609 30.5008ZM40.6766 26.6797H37.0438C37.0867 27.2454 37.1094 27.818 37.1094 28.3985C37.1094 28.9836 37.0852 29.5391 37.043 30.0719L40.0539 30.5008L39.4727 28.7563C39.4539 28.6998 39.4482 28.6397 39.4562 28.5806C39.4642 28.5216 39.4856 28.4652 39.5188 28.4157L40.6766 26.6797ZM15.0234 36.4524C14.4648 35.6513 14.0219 34.7755 13.7078 33.8508L10.6109 34.8829L11.843 35.2938C11.9207 35.3197 11.9884 35.3694 12.0363 35.4358C12.0843 35.5023 12.1101 35.5822 12.1102 35.6641V38.1164L15.0234 36.4524ZM25.0008 30.586C21.2563 30.586 17.6445 31.6719 14.5273 33.7141C15.1609 35.4243 16.1063 36.7016 17.2469 37.6297C19.7086 36.5875 22.3148 36.0547 25.0008 36.0547C27.6867 36.0547 30.293 36.5875 32.7547 37.6297C33.8953 36.7016 34.8406 35.4243 35.4742 33.7141C32.3638 31.6703 28.7226 30.5828 25.0008 30.586ZM18.7508 34.1016C18.5436 34.1016 18.3449 34.0193 18.1984 33.8728C18.0518 33.7263 17.9695 33.5276 17.9695 33.3204C17.9695 33.1132 18.0518 32.9144 18.1984 32.7679C18.3449 32.6214 18.5436 32.5391 18.7508 32.5391C18.958 32.5391 19.1567 32.6214 19.3032 32.7679C19.4497 32.9144 19.532 33.1132 19.532 33.3204C19.532 33.5276 19.4497 33.7263 19.3032 33.8728C19.1567 34.0193 18.958 34.1016 18.7508 34.1016ZM25.0008 34.1016C24.7936 34.1016 24.5949 34.0193 24.4484 33.8728C24.3018 33.7263 24.2195 33.5276 24.2195 33.3204C24.2195 33.1132 24.3018 32.9144 24.4484 32.7679C24.5949 32.6214 24.7936 32.5391 25.0008 32.5391C25.208 32.5391 25.4067 32.6214 25.5532 32.7679C25.6997 32.9144 25.782 33.1132 25.782 33.3204C25.782 33.5276 25.6997 33.7263 25.5532 33.8728C25.4067 34.0193 25.208 34.1016 25.0008 34.1016ZM31.2508 34.8829C31.0436 34.8829 30.8449 34.8005 30.6984 34.654C30.5518 34.5075 30.4695 34.3088 30.4695 34.1016C30.4695 33.8944 30.5518 33.6957 30.6984 33.5492C30.8449 33.4027 31.0436 33.3204 31.2508 33.3204C31.458 33.3204 31.6567 33.4027 31.8032 33.5492C31.9497 33.6957 32.032 33.8944 32.032 34.1016C32.032 34.3088 31.9497 34.5075 31.8032 34.654C31.6567 34.8005 31.458 34.8829 31.2508 34.8829Z" fill="#292E35"/>
<path d="M6.1416 39.9596L6.02051 40.8096L7.53535 39.2947C7.5792 39.2511 7.63277 39.2185 7.69166 39.1995C7.75056 39.1806 7.8131 39.1759 7.87416 39.1858C7.93523 39.1957 7.99307 39.22 8.04296 39.2565C8.09284 39.2931 8.13334 39.341 8.16113 39.3963L9.07754 41.2291C9.34526 39.7584 10.1465 38.4384 11.3275 37.5221V35.9455L10.1564 35.5549L9.6877 35.7111C8.75881 36.0174 7.93427 36.5777 7.30752 37.3286C6.68078 38.0795 6.27688 38.9909 6.1416 39.9596ZM40.9611 27.6611L40.2744 28.6908L40.74 30.0885C41.947 30.4756 42.9811 31.2716 43.6643 32.3393L44.1596 30.8533C44.1929 30.7553 44.2635 30.6745 44.3561 30.6282C44.4487 30.582 44.5558 30.5742 44.6541 30.6064L46.0158 31.0604C44.8353 29.3148 43.023 28.0961 40.9611 27.6611Z" fill="#292E35"/>
<path d="M44.7789 31.4703L44.3063 32.8883C44.8591 33.8624 45.1299 34.9713 45.0883 36.0906C45.5415 35.4769 45.8321 34.7585 45.9329 34.0023C46.0337 33.246 45.9415 32.4766 45.6649 31.7656L44.7789 31.4703ZM17.9914 38.1695C20.0836 39.532 22.6422 39.9609 25.0008 39.9609C27.3594 39.9609 29.918 39.532 32.0102 38.1695C29.775 37.2875 27.4219 36.8359 25.0008 36.8359C22.5797 36.8359 20.2266 37.2875 17.9914 38.1695ZM25.7821 38.0078C25.7821 38.215 25.6997 38.4137 25.5532 38.5602C25.4067 38.7067 25.208 38.789 25.0008 38.789C24.7936 38.789 24.5949 38.7067 24.4484 38.5602C24.3019 38.4137 24.2196 38.215 24.2196 38.0078C24.2196 37.8006 24.3019 37.6019 24.4484 37.4554C24.5949 37.3089 24.7936 37.2265 25.0008 37.2265C25.208 37.2265 25.4067 37.3089 25.5532 37.4554C25.6997 37.6019 25.7821 37.8006 25.7821 38.0078ZM34.593 45.9914C35.123 46.6592 35.8336 47.1607 36.6403 47.4363C37.4471 47.7119 38.316 47.75 39.1438 47.5461L39.4539 47.4687V46.8828L37.7344 46.3094C36.6774 46.479 35.5945 46.3694 34.593 45.9914ZM43.9094 41.8437L42.2953 40.2297L41.4172 41.9859C41.3517 42.8032 41.0719 43.5888 40.6061 44.2636C40.1404 44.9384 39.505 45.4786 38.7641 45.8297L39.968 46.2312C40.0457 46.2571 40.1134 46.3068 40.1613 46.3733C40.2093 46.4397 40.2351 46.5196 40.2352 46.6015V47.693C41.3871 47.4226 42.4016 46.7429 43.0899 45.7805C43.4796 45.2437 43.7561 44.6333 43.9023 43.9863C44.0486 43.3393 44.0616 42.6694 43.9406 42.0172L43.9094 41.8437ZM8.5844 41.9867L7.70627 40.2305L6.09221 41.8437L6.06096 42.0172C5.9398 42.6694 5.95275 43.3394 6.09902 43.9864C6.24529 44.6334 6.52182 45.2438 6.91174 45.7805C7.60016 46.7428 8.61458 47.4224 9.76643 47.693L9.76643 46.6015C9.76649 46.5196 9.79233 46.4397 9.84028 46.3733C9.88823 46.3068 9.95587 46.2571 10.0336 46.2312L11.2375 45.8297C10.4968 45.4785 9.86161 44.9384 9.39586 44.2638C8.93012 43.5892 8.65025 42.8038 8.5844 41.9867ZM4.33596 31.7656C4.05935 32.4766 3.96716 33.246 4.06797 34.0023C4.16878 34.7585 4.45932 35.4769 4.91252 36.0906C4.87127 34.9713 5.14203 33.8626 5.69456 32.8883L5.2219 31.4703L4.33596 31.7656ZM6.61096 20.2312C7.79431 20.1267 8.98621 20.2821 10.1031 20.6867L10.4875 20.5586L9.94846 17.8641C8.89336 17.3584 7.72986 17.1206 6.56096 17.1719L8.02971 18.1508C8.0782 18.1826 8.11895 18.2248 8.14897 18.2744C8.179 18.324 8.19754 18.3797 8.20324 18.4374C8.20893 18.495 8.20163 18.5533 8.18188 18.6078C8.16213 18.6623 8.13042 18.7117 8.08909 18.7523L6.61096 20.2312Z" fill="#292E35"/>
<path d="M7.20039 18.537L5.82852 17.6222L3.41211 19.0722L6.12227 19.6144L7.20039 18.537ZM12.2676 46.3097L10.548 46.8823V47.4683L10.8574 47.5456C11.6852 47.7498 12.5542 47.7118 13.361 47.4362C14.1678 47.1606 14.8784 46.6589 15.4082 45.9909C14.4069 46.3687 13.3244 46.4785 12.2676 46.3097ZM9.26055 30.0878L9.72617 28.6901L9.03945 27.6604C6.97764 28.096 5.16527 29.3146 3.98398 31.0597L5.3457 30.6058C5.44402 30.5731 5.55129 30.5807 5.64399 30.627C5.73669 30.6733 5.80727 30.7544 5.84023 30.8526L6.33555 32.3386C7.0192 31.2711 8.05351 30.4752 9.26055 30.0878ZM8.5082 9.4917H8.98555V7.99951C7.65638 7.12367 6.14124 6.56993 4.56055 6.38232C6.09992 7.09835 7.45148 8.1629 8.5082 9.4917Z" fill="#292E35"/>
<path d="M11.6414 13.3986L12.9992 13.3986L13.4594 12.0189L9.76484 7.79785V9.88301C9.76484 9.98661 9.72369 10.086 9.65043 10.1592C9.57718 10.2325 9.47782 10.2736 9.37422 10.2736H8.07031L11.6414 13.3986Z" fill="#292E35"/>
</svg>
