<svg width="50" height="51" viewBox="0 0 50 51" fill="none" xmlns="http://www.w3.org/2000/svg">
<path d="M36.6373 29.364L36.6315 29.364C36.3348 29.2609 36.0278 29.2094 35.7196 29.2111C34.8709 29.2133 34.0576 29.6237 33.4545 30.3538C33.364 30.4634 33.2415 30.5243 33.1141 30.5231C32.9867 30.5219 32.8648 30.4588 32.7752 30.3476C32.6856 30.2363 32.6357 30.0861 32.6364 29.93C32.6371 29.7739 32.6883 29.6246 32.7789 29.5151C33.2369 28.9626 33.7923 28.5464 34.4025 28.2982C35.0127 28.05 35.6614 27.9765 36.2989 28.0833L36.2985 28.004C36.2589 20.1426 31.0076 13.7733 24.5925 13.8056C18.1775 13.838 12.9907 20.26 13.0303 28.1214L13.0306 28.1684C13.1495 28.1552 13.2687 28.1486 13.3882 28.1483C14.487 28.1395 15.5455 28.6604 16.3353 29.5986C16.4269 29.7072 16.4797 29.856 16.4819 30.012C16.4841 30.1681 16.4357 30.3187 16.3472 30.4307C16.2587 30.5428 16.1375 30.6071 16.0102 30.6095C15.8828 30.6119 15.7598 30.5522 15.6682 30.4435C15.0606 29.7209 14.2467 29.318 13.4009 29.3213C13.1632 29.3224 12.9263 29.3551 12.6945 29.4189L12.6835 29.4219L12.6701 29.4261C11.8907 29.6482 11.206 30.2149 10.7472 31.0176C10.2883 31.8203 10.0873 32.8028 10.1828 33.7771C10.2782 34.7514 10.6633 35.6491 11.2645 36.2986C11.8656 36.948 12.6406 37.3036 13.4411 37.2973C14.1786 37.2973 14.8932 36.9863 15.4648 36.4167L15.4734 36.409C15.4835 36.3991 15.4942 36.39 15.5054 36.3818C15.5163 36.3724 15.5278 36.3641 15.5398 36.357C15.5498 36.3501 15.5602 36.344 15.5708 36.3386L15.589 36.3291C15.5963 36.3251 15.6038 36.3217 15.6115 36.319C15.6235 36.3136 15.6359 36.3095 15.6484 36.3053L15.6517 36.3053C15.675 36.2981 15.6987 36.2933 15.7226 36.2908L15.8099 36.2904C15.8687 36.2968 15.926 36.3164 15.979 36.3483C15.9852 36.3516 15.9911 36.3555 15.9968 36.36C16.0051 36.3649 16.0132 36.3706 16.0209 36.3769L16.0435 36.3956C16.0589 36.4088 16.0735 36.4233 16.0874 36.4388C16.0946 36.4462 16.1014 36.4542 16.1076 36.4628C16.1144 36.471 16.1209 36.4796 16.1269 36.4886C16.1311 36.4938 16.1349 36.4993 16.1385 36.505L16.1448 36.5155L17.8369 39.2045L18.8783 40.8677L20.8691 44.0347L22.1469 46.0682L23.9139 48.8802C23.9221 48.8931 23.9294 48.906 23.9366 48.9194C24.0271 49.0909 24.1513 49.2318 24.2978 49.3291C24.4443 49.4264 24.6084 49.4769 24.7749 49.4761C24.9413 49.4753 25.1049 49.4231 25.2504 49.3243C25.3959 49.2255 25.5187 49.0834 25.6074 48.911C25.6145 48.8975 25.6221 48.8839 25.6298 48.8715L27.1519 46.3955L28.4923 44.2184L30.5853 40.8204L31.6461 39.0978L33.1959 36.5882L33.2058 36.5723C33.2113 36.5625 33.2174 36.5533 33.2239 36.5446C33.2299 36.5355 33.2363 36.5268 33.243 36.5186C33.2493 36.51 33.2562 36.5019 33.2635 36.4944C33.2699 36.4861 33.2769 36.4786 33.2845 36.472C33.291 36.4646 33.298 36.4579 33.3055 36.4519C33.3131 36.4448 33.3212 36.4383 33.3293 36.4318C33.3426 36.4211 33.3563 36.4114 33.3704 36.4028L33.3834 36.3951L33.402 36.385C33.4102 36.3802 33.4187 36.3762 33.4274 36.3731C33.4607 36.3585 33.4952 36.3485 33.5303 36.3432C33.5381 36.3426 33.546 36.3425 33.5538 36.3431C33.6012 36.3388 33.6489 36.3432 33.6954 36.3559L33.7136 36.3617L33.7362 36.3698C33.7458 36.3739 33.7559 36.3779 33.7655 36.3832L33.7915 36.3971L33.8059 36.4053L33.816 36.4123L33.8406 36.4298C33.8445 36.4323 33.8482 36.4352 33.8516 36.4386L33.8661 36.4502L33.8772 36.4602C34.3662 36.8807 34.9399 37.1286 35.5356 37.1766C36.1313 37.2246 36.7259 37.071 37.2544 36.7325C37.7829 36.394 38.225 35.8836 38.5322 35.2573C38.8395 34.631 39 33.9129 38.9963 33.1815C38.9897 32.3198 38.7567 31.4831 38.3317 30.7954C37.9068 30.1078 37.3126 29.6058 36.6373 29.364ZM21.8483 37.5593L20.4653 37.5663C20.2745 37.5672 20.0911 37.4753 19.9554 37.3107C19.8196 37.146 19.7427 36.9222 19.7415 36.6884C19.7403 36.4546 19.815 36.23 19.9491 36.064C20.0831 35.898 20.2656 35.8042 20.4564 35.8032L21.8395 35.7963C22.0302 35.7953 22.2137 35.8873 22.3494 36.0519C22.4851 36.2165 22.5621 36.4404 22.5632 36.6742C22.5644 36.9079 22.4898 37.1326 22.3557 37.2985C22.2216 37.4645 22.0391 37.5583 21.8483 37.5593ZM28.9607 37.5234L27.5776 37.5304C27.3869 37.5314 27.2034 37.4394 27.0677 37.2748C26.9319 37.1101 26.855 36.8863 26.8539 36.6525C26.8527 36.4187 26.9273 36.1941 27.0614 36.0281C27.1955 35.8621 27.378 35.7683 27.5687 35.7674L28.9518 35.7604C29.1426 35.7594 29.326 35.8514 29.4617 36.016C29.5975 36.1807 29.6744 36.4045 29.6756 36.6383C29.6768 36.8721 29.6021 37.0967 29.468 37.2627C29.334 37.4287 29.1515 37.5225 28.9607 37.5234Z" fill="#292E35"/>
<path d="M16.747 39.3974L17.9174 41.2598C16.1531 41.4597 14.4887 42.4348 13.1966 44.034C13.0401 44.2277 12.8272 44.3371 12.6045 44.3381C12.3819 44.3392 12.1678 44.2318 12.0095 44.0397C11.8511 43.8475 11.7614 43.5863 11.7601 43.3135C11.7587 43.0406 11.8459 42.7785 12.0024 42.5849C13.2931 40.9736 14.9433 39.8649 16.747 39.3974ZM19.4422 43.6857L21.086 46.2997C18.4291 44.9673 15.2266 45.8391 13.0844 48.4916C12.9268 48.6771 12.7162 48.7797 12.4975 48.7775C12.2787 48.7754 12.0692 48.6687 11.9134 48.4802C11.7576 48.2917 11.6678 48.0362 11.6633 47.7683C11.6588 47.5003 11.7398 47.2409 11.8892 47.0454C13.187 45.4236 14.849 44.3108 16.6649 43.8478C17.5777 43.6155 18.515 43.5608 19.4422 43.6857ZM37.6151 43.4971C37.5377 43.5931 37.4456 43.6693 37.344 43.7216C37.2424 43.7738 37.1334 43.801 37.0232 43.8016C36.9129 43.8021 36.8037 43.7761 36.7016 43.7248C36.5995 43.6736 36.5066 43.5983 36.4282 43.5031C35.1447 41.9463 33.4347 41.121 31.5847 41.1556L32.7986 39.1824C33.414 39.2793 34.0189 39.4587 34.6026 39.7175C35.7303 40.2141 36.7559 41.0078 37.6068 42.0426C37.7652 42.2346 37.855 42.4956 37.8566 42.7683C37.8582 43.0411 37.7713 43.3032 37.6151 43.4971ZM37.5019 47.9553C37.4245 48.0513 37.3323 48.1276 37.2308 48.1798C37.1292 48.2321 37.0202 48.2592 36.9099 48.2598C36.7997 48.2604 36.6904 48.2343 36.5883 48.1831C36.4862 48.1318 36.3934 48.0565 36.315 47.9613C34.2353 45.4388 30.9978 44.8939 28.2374 46.5916L30.0031 43.7218C32.7264 43.1297 35.5201 44.1053 37.4945 46.499C37.5732 46.5942 37.6358 46.7073 37.6787 46.8321C37.7216 46.9568 37.7441 47.0906 37.7448 47.2259C37.7454 47.3612 37.7243 47.4953 37.6827 47.6204C37.641 47.7456 37.5796 47.8594 37.5019 47.9553ZM41.0162 14.7747C39.0466 12.6789 38.1855 9.59845 37.8109 7.38591C37.6296 6.32293 37.2575 5.32225 36.7217 4.4565C36.1859 3.59075 35.4998 2.88164 34.7131 2.38064C33.9264 1.87964 33.059 1.59932 32.1737 1.56001C31.2884 1.52071 30.4075 1.72341 29.5948 2.1534C27.1914 3.43141 25.3559 5.95423 24.2873 9.44993C23.9687 10.4997 23.7279 11.5827 23.568 12.6859C23.9054 12.6509 24.2465 12.6321 24.5911 12.6296C25.0631 12.6276 25.535 12.6578 26.0044 12.72C26.3989 10.4178 27.5075 6.46878 30.5532 4.84901C31.0388 4.59318 31.5649 4.47295 32.0936 4.49702C32.6222 4.5211 33.1401 4.68887 33.6098 4.98821C34.0794 5.28756 34.4891 5.71097 34.8093 6.22782C35.1294 6.74466 35.3518 7.34202 35.4606 7.97664C36.1062 11.7899 37.4839 14.9083 39.4438 16.9935C39.6842 17.2495 39.9975 17.3782 40.3148 17.3513C40.6321 17.3244 40.9274 17.1441 41.1358 16.8501C41.3441 16.5561 41.4485 16.1724 41.4259 15.7836C41.4033 15.3947 41.2556 15.0324 41.0152 14.7764L41.0162 14.7747Z" fill="#292E35"/>
</svg>
