<svg width="50" height="51" viewBox="0 0 50 51" fill="none" xmlns="http://www.w3.org/2000/svg">
<path d="M41.7695 40.3632C41.7797 40.3632 41.7913 40.3645 41.8107 40.3806C41.8945 40.4504 41.978 40.5205 42.0612 40.5911C42.3966 40.8755 42.4796 40.9426 42.5775 40.9426C42.6363 40.9426 42.6981 40.9052 42.7231 40.8539C42.7737 40.7514 42.7657 40.6913 42.2701 40.0038C41.9966 39.6233 41.5754 39.5434 41.2708 39.5434C41.0467 39.5434 40.8556 39.5865 40.7593 39.6236C40.7249 39.6369 40.6343 39.6526 40.4929 39.6526C40.2523 39.6526 40.0594 39.6089 40.0174 39.578C39.8516 39.4584 39.2869 39.2519 39.0015 39.2519C38.9589 39.2519 38.9227 39.256 38.89 39.2651C38.8806 39.2677 38.8438 39.2762 38.7547 39.2762C38.4604 39.2762 38.0872 39.1925 37.9861 39.1031C37.8671 39.0002 37.5113 38.8948 36.7285 38.6792C36.3749 38.5816 35.8993 38.4504 35.7648 38.3869C35.1838 36.7941 34.9663 35.4982 34.7741 34.3539C34.6285 33.4853 34.5024 32.7354 34.2474 32.0282C34.2298 31.9794 34.2366 31.9542 34.2497 31.9045C34.3345 31.5841 34.2868 31.4063 32.2241 30.2834C32.2502 29.4752 32.2491 27.6149 32.2107 26.7152C32.1748 25.8739 31.9426 24.5475 31.8721 24.1582C32.8778 23.6021 33.9152 23.1596 34.4219 22.9434C34.4997 22.9104 34.5654 22.882 34.6172 22.8597C34.7053 22.9471 34.8505 23.1769 34.8181 23.3277C34.6626 24.0496 34.7008 26.747 34.737 28.2906C34.7426 28.5465 34.8078 28.7366 34.9303 28.8562C35.0997 29.0205 35.3783 28.9968 35.5182 28.8348C36.01 29.1055 36.537 29.1898 37.1444 29.0787C37.4197 29.0281 37.5779 28.9925 37.6219 28.8547C37.9822 28.848 38.3665 28.7181 38.5755 28.6479C38.6031 28.6388 38.6177 28.6378 38.6249 28.6378C38.6301 28.6396 38.6448 28.651 38.6555 28.6591C38.7263 28.712 38.8791 28.8007 39.1274 28.725C39.291 28.6749 39.4253 28.6545 39.5231 28.6394C39.6498 28.6199 39.7694 28.6013 39.7879 28.4735C39.8064 28.3445 39.6876 28.2782 39.6165 28.2384C39.573 28.2148 39.5265 28.1973 39.4786 28.1865C39.6938 28.0906 40.1549 28.0849 40.5111 28.2444C40.5449 28.2595 40.5641 28.2741 40.569 28.2778C40.6005 28.3049 40.6449 28.3254 40.6841 28.3254H40.685C40.7171 28.3252 40.7479 28.3153 40.7733 28.2969C40.7987 28.2786 40.8176 28.2527 40.8274 28.2228C40.8461 28.1662 40.823 28.0965 40.7791 28.0521C40.7679 28.0402 40.6943 27.9597 40.5588 27.7264C40.4314 27.5083 40.3043 27.4233 40.1057 27.4233L39.9644 27.4264C39.9297 27.4264 39.8911 27.4249 39.8473 27.4192C39.298 27.3468 39.1683 27.4812 38.9058 27.7134C38.8799 27.7364 38.8525 27.7606 38.8231 27.7864C38.5117 27.7172 38.066 27.8245 37.6019 27.9476C37.0066 28.1052 36.3588 28.2406 35.9763 28.0515C35.8925 27.3673 35.8003 25.3188 35.9102 23.558C35.942 23.0535 35.5109 22.5538 35.1648 22.1521C35.0911 22.0669 35.0213 21.9863 34.9627 21.9117C34.8829 21.8122 34.7495 21.7637 34.5548 21.7637C34.1037 21.7637 33.3098 22.025 32.6093 22.2553C32.212 22.3862 31.8029 22.5206 31.5786 22.5603C31.5432 22.4432 31.5107 22.3254 31.4811 22.2069C31.3782 21.8069 31.2953 21.485 30.8692 21.1904C30.958 20.9125 30.9462 20.7171 30.9139 20.436L30.7428 19.6883C31.8633 18.6623 32.5227 17.9341 32.3096 16.7052C32.1173 15.6096 30.6334 12.8336 30.1141 11.9106C30.3439 11.7791 30.5299 11.6847 30.6715 11.6132C30.9277 11.4836 31.0435 11.4247 31.0436 11.3004C32.3609 10.6319 32.3482 10.5637 32.3222 10.4201C32.3209 10.4141 32.3198 10.4085 32.3183 10.4031C33.6172 9.57703 33.6736 9.51563 33.6539 9.38095C34.752 8.54759 34.8693 8.4541 34.845 8.34272C35.2732 7.95311 35.6351 7.70574 35.8588 7.55278C36.0974 7.38941 36.2032 7.31706 36.1772 7.18832C36.668 6.8072 36.977 6.59415 37.1684 6.46225C37.4043 6.30019 37.4751 6.25145 37.4556 6.12865C37.4548 6.12295 37.4536 6.11728 37.4521 6.11168C38.03 5.57575 38.3993 5.35136 38.582 5.24021C38.6888 5.17542 38.7661 5.12852 38.7819 5.04822C39.6647 4.69418 39.7511 4.59853 39.7504 4.47735C40.0047 4.30958 40.3607 4.1233 40.6508 4.04995C40.9494 3.97466 41.0878 3.85796 41.0619 3.70253C41.0538 3.65378 40.9996 3.48632 40.7023 3.51055C40.4499 3.52913 40.2143 3.60619 39.5507 3.99364C39.5229 3.98138 39.4931 3.97514 39.4631 3.97536C39.2615 3.97536 38.8126 4.29539 38.5111 4.54723C38.4873 4.53751 38.4631 4.5315 38.4419 4.5315C38.2595 4.5315 37.9727 4.83232 37.8579 4.96106C37.7998 5.02616 37.749 5.08633 37.7 5.14426C37.5452 5.32714 37.4196 5.47563 37.1344 5.69345C37.1178 5.68795 37.1007 5.68499 37.0835 5.68466C36.9095 5.68466 36.6716 5.94553 36.5892 6.07805C36.5871 6.08121 36.4038 6.36568 35.8443 6.74865C35.6304 6.6473 35.4194 6.95545 35.3507 7.10617C35.2806 7.26067 35.1852 7.3419 34.996 7.50303C34.8806 7.60153 34.7301 7.72965 34.5373 7.91717C34.3594 7.88161 34.181 8.1343 34.1218 8.26273C34.0709 8.37288 33.8384 8.55507 33.57 8.76626C33.5012 8.8201 33.4282 8.87765 33.3512 8.93905C33.3179 8.92046 33.2799 8.90819 33.2509 8.90819C33.0693 8.90819 32.8702 9.16189 32.8025 9.28422C32.7001 9.46742 32.5294 9.59423 32.0718 9.93285L32.006 9.9816C31.8794 9.90577 31.6898 9.9772 31.5787 10.1547C31.4998 10.2796 31.1551 10.5688 30.7676 10.8395C30.7308 10.8112 30.6859 10.796 30.6404 10.7964C30.4577 10.7964 30.2152 11.0636 30.12 11.1784C30.0824 11.2234 30.0179 11.2788 29.9421 11.3376C30.0123 10.4306 30.3182 9.05506 30.4876 8.55592C30.5866 8.41368 30.7333 8.27777 30.8524 8.16755C30.9417 8.08478 31.0121 8.01937 31.0566 7.95921C31.1678 7.80563 31.2338 7.70212 31.1892 7.59698C31.2469 7.54914 31.306 7.50287 31.3663 7.45822C31.4835 7.37075 31.5759 7.30148 31.5367 7.17559C31.5271 7.14163 31.507 7.11111 31.4794 7.08843C31.5345 6.96725 31.5715 6.82062 31.5501 6.65949C31.4975 6.28592 31.1779 5.93597 31.1644 5.92116C31.1393 5.89389 31.1058 5.87573 31.0697 5.86976C31.0336 5.8638 30.9971 5.87041 30.9663 5.88845C30.9354 5.90655 30.9122 5.93496 30.9005 5.96889C30.8889 6.00282 30.8895 6.04022 30.9022 6.07481C30.9033 6.07766 30.9827 6.29695 30.9352 6.58937C30.9083 6.57738 30.8793 6.57125 30.8502 6.5714C30.6948 6.5714 30.617 6.70638 30.5147 7.04724C30.488 7.03482 30.4591 7.02846 30.4302 7.02865C30.2769 7.02865 30.2337 7.17243 30.1796 7.35408C30.1638 7.4063 30.1455 7.46701 30.1232 7.53504C30.0432 7.77485 29.9788 7.84157 29.9219 7.90043C29.8315 7.99453 29.7687 8.07637 29.7354 8.3303C29.3875 9.12903 29.2445 10.8313 29.2574 11.7402C29.2575 11.749 29.2588 11.7575 29.2607 11.766C29.2583 11.7766 29.2563 11.7875 29.2548 11.7983C29.2242 11.7828 29.1906 11.7749 29.1569 11.7754C28.9917 11.7754 28.7204 11.9859 28.5593 12.1234C28.4566 12.2109 28.2611 12.378 27.9893 12.5111C27.9558 12.4901 27.9161 12.4762 27.883 12.4762C27.7536 12.4762 27.5602 12.5965 26.789 13.1699C26.7627 13.1576 26.7343 13.1501 26.7106 13.1501C26.5139 13.1501 26.2238 13.5056 26.1677 13.5771C25.9648 13.8355 25.7669 13.9017 25.5577 13.9211C25.3207 13.9016 25.1165 13.8355 24.8908 13.5768C24.8287 13.5054 24.5085 13.1501 24.3106 13.1501C24.2869 13.1501 24.2588 13.1576 24.2331 13.1699C23.4256 12.603 23.2116 12.4762 23.0812 12.4762C23.0481 12.4762 23.0092 12.4897 22.9776 12.5111C22.6928 12.3771 22.4819 12.2078 22.3607 12.1108C22.167 11.9576 21.9037 11.775 21.7478 11.775C21.7131 11.775 21.6812 11.7825 21.6538 11.7973C21.6444 11.7548 21.6308 11.7132 21.6131 11.673C21.5369 10.7317 21.2536 9.10211 20.8497 8.32953C20.7941 8.07614 20.7243 7.99438 20.6259 7.90027C20.564 7.84142 20.4943 7.77501 20.3943 7.53458C20.3698 7.47577 20.3462 7.4166 20.3236 7.35709C20.2501 7.16642 20.1968 7.02819 20.0428 7.02819C20.0121 7.02819 19.9846 7.03482 19.9599 7.04678C19.8273 6.706 19.7379 6.57094 19.5841 6.57094C19.5529 6.57094 19.5254 6.57757 19.5009 6.58883C19.4291 6.29649 19.4892 6.07743 19.4901 6.07527C19.5003 6.04079 19.498 6.00335 19.4837 5.96928C19.4695 5.93522 19.444 5.90661 19.4117 5.8883C19.3793 5.8699 19.342 5.86306 19.3062 5.86898C19.2703 5.87489 19.2382 5.89319 19.2154 5.92069C19.2028 5.93519 18.9121 6.28546 18.8918 6.66026C18.8841 6.82047 18.9336 6.96679 18.9994 7.08766C18.9733 7.1105 18.9555 7.14124 18.9485 7.17552C18.9204 7.3014 19.019 7.37098 19.1437 7.45876C19.1938 7.49401 19.2585 7.53928 19.333 7.59721C19.2977 7.70196 19.3729 7.80586 19.4975 7.95913C19.5462 8.01891 19.6228 8.08501 19.7199 8.16839C19.8477 8.27854 20.0057 8.41422 20.1162 8.55576C20.3247 9.04171 20.7428 10.3962 20.8953 11.3151C20.8275 11.2648 20.7699 11.2175 20.7335 11.1783C20.6282 11.0634 20.3629 10.7962 20.1805 10.7962C20.1334 10.7962 20.0902 10.8116 20.0569 10.8393C19.6461 10.5694 19.2767 10.2804 19.1873 10.1548C19.0607 9.97674 18.8642 9.90562 18.7452 9.98175L18.6648 9.92544C18.1849 9.59122 18.0056 9.46595 17.8895 9.28438C17.7965 9.13898 17.5836 8.90804 17.4091 8.90804C17.3715 8.90804 17.3366 8.91806 17.3074 8.93635C17.2294 8.87811 17.1512 8.82021 17.0727 8.76264C16.7884 8.55306 16.5427 8.37211 16.4834 8.26288C16.4132 8.13422 16.2154 7.87868 16.0367 7.91701C15.8296 7.73104 15.6691 7.60323 15.5462 7.50504C15.3422 7.34236 15.2396 7.26083 15.1551 7.10533C15.0838 6.97381 14.8797 6.72767 14.708 6.72767C14.6837 6.72767 14.6553 6.73554 14.6294 6.74811C14.0332 6.36229 13.8312 6.08121 13.8292 6.07812C13.7349 5.94499 13.4746 5.68412 13.2997 5.68412C13.2842 5.68412 13.267 5.68728 13.2498 5.69291C12.9495 5.47671 12.8067 5.32444 12.6443 5.15066C12.588 5.09057 12.5295 5.02794 12.4632 4.96122C12.337 4.83186 12.0246 4.53134 11.8431 4.53134C11.8222 4.53134 11.7982 4.53736 11.7752 4.54708C11.4516 4.295 10.9748 3.9752 10.7734 3.9752C10.7435 3.97498 10.7142 3.98111 10.6873 3.99318C9.99113 3.60604 9.74944 3.52898 9.49638 3.51008C9.18563 3.48648 9.15616 3.65363 9.1526 3.70238C9.13996 3.8578 9.28834 3.9749 9.59268 4.04948C9.88618 4.12215 10.2588 4.30819 10.5302 4.47627C10.5386 4.59745 10.633 4.6934 11.5479 5.04807C11.5709 5.12837 11.6518 5.17519 11.764 5.24006C11.9564 5.35144 12.3442 5.57559 12.9668 6.11152C12.9658 6.11712 12.965 6.12279 12.9647 6.12849C12.9557 6.25121 13.0313 6.30004 13.2807 6.46241C13.4833 6.59423 13.811 6.80735 14.3345 7.1884C14.3198 7.31652 14.4315 7.38887 14.6834 7.55132C14.9204 7.70428 15.3034 7.95134 15.7656 8.34187C15.7502 8.45395 15.8731 8.54581 17.0447 9.38072C17.0369 9.51547 17.0988 9.57679 18.4679 10.4032C18.4669 10.4085 18.4663 10.4142 18.4655 10.4199C18.4517 10.5633 18.4448 10.6317 19.8196 11.3001C19.8302 11.4248 19.9511 11.4836 20.2187 11.6136C20.366 11.685 20.5601 11.7791 20.8006 11.9107C20.3598 12.8344 19.1123 15.6114 19.0147 16.7053C18.9051 17.933 19.6267 18.6616 20.8351 19.6884L20.7249 20.4557C20.7201 20.7216 20.7258 20.9152 20.8386 21.1909C20.4382 21.4841 20.3827 21.8049 20.3138 22.2026C20.2948 22.3119 20.2744 22.4308 20.2446 22.562C20.0232 22.5236 19.5991 22.3877 19.1868 22.2558C18.467 22.0254 17.6511 21.7642 17.2006 21.7642C17.0059 21.7642 16.8766 21.8127 16.8057 21.9125C16.7535 21.9854 16.6913 22.0651 16.6257 22.1497C16.3127 22.5519 15.923 23.0527 15.997 23.5587C16.2576 25.3157 16.3407 27.35 16.3162 28.0421C16.1647 28.1028 15.9883 28.1328 15.78 28.1328C15.3872 28.1328 14.9553 28.0277 14.538 27.926C14.0636 27.8105 13.6126 27.7097 13.3073 27.7692C13.2765 27.7425 13.2476 27.717 13.2207 27.6931C12.9485 27.453 12.8032 27.3117 12.2625 27.3652C12.1854 27.3727 12.124 27.3677 12.0711 27.3639C11.8253 27.3457 11.6955 27.4092 11.567 27.6471C11.445 27.8731 11.3754 27.9518 11.3639 27.9637C11.3213 28.0074 11.301 28.0785 11.3239 28.1365C11.3361 28.1672 11.3574 28.1938 11.3849 28.2127C11.4124 28.2315 11.4448 28.2416 11.4775 28.2416H11.4781C11.5144 28.2416 11.5562 28.2221 11.5851 28.1975C11.6024 28.1849 11.6214 28.1745 11.6415 28.1667C11.99 28.0188 12.4513 28.0421 12.6702 28.1453C12.6229 28.1544 12.5775 28.1701 12.5351 28.1919C12.4657 28.2297 12.3497 28.2927 12.3751 28.4223C12.4001 28.5507 12.5201 28.573 12.6474 28.5973C12.7464 28.6158 12.8817 28.6414 13.0492 28.6974C13.2983 28.7808 13.4508 28.699 13.5184 28.6482C13.5288 28.6404 13.5428 28.6297 13.5491 28.6281C13.5541 28.6281 13.5687 28.6291 13.5982 28.6401C13.8307 28.7245 14.2078 28.8613 14.5626 28.8808C14.6136 29.0193 14.7735 29.0605 15.0514 29.1215L15.0884 29.1297C15.25 29.165 15.4513 29.2086 15.6916 29.2086C16.0875 29.2086 16.4669 29.0881 16.8462 28.8411C16.9994 28.9984 17.2756 29.0198 17.4287 28.8574C17.5414 28.7381 17.5904 28.5477 17.5747 28.2916C17.4792 26.7482 17.287 24.0511 17.0709 23.3295C17.0251 23.174 17.1601 22.9349 17.2263 22.8577C17.2797 22.8801 17.3481 22.9084 17.4298 22.9421C17.9549 23.1583 19.0308 23.601 20.0898 24.1594C20.0515 24.549 19.9304 25.8755 19.9663 26.7164C20.0065 27.6587 20.1707 29.5221 20.2594 30.2847C18.2929 31.4075 18.2597 31.5853 18.3715 31.9054C18.3888 31.9554 18.3975 31.9803 18.3841 32.0291C18.1888 32.7412 18.1348 33.4441 18.072 34.2576C17.9832 35.4166 17.8817 36.7299 17.3482 38.4838C17.2163 38.7371 16.5697 38.9486 16.1419 39.0884C15.8034 39.1992 15.6227 39.2605 15.5362 39.3433C15.4422 39.4337 15.0742 39.5186 14.7784 39.5186C14.6922 39.5186 14.6553 39.5104 14.6447 39.5076C14.609 39.4988 14.5725 39.4946 14.5361 39.495C14.2549 39.495 13.6981 39.7067 13.5463 39.8254C13.5066 39.8568 13.3128 39.9019 13.0668 39.9019C12.9308 39.9019 12.8431 39.8871 12.809 39.8745C12.7047 39.8355 12.5067 39.7964 12.299 39.7964C11.9915 39.7964 11.5748 39.877 11.3357 40.2603C10.8996 40.9521 10.8976 41.0078 10.9576 41.1123C10.9872 41.1636 11.0523 41.2007 11.1107 41.2007C11.2083 41.2007 11.2847 41.1339 11.592 40.8501C11.664 40.7837 11.743 40.7109 11.8263 40.6363C11.8446 40.62 11.8565 40.6184 11.8669 40.6184C11.9076 40.6184 11.9737 40.649 12.0371 40.6785C12.0539 40.6861 12.0706 40.694 12.088 40.7018C12.0246 40.7547 11.9794 40.8129 12.0102 40.9045C12.0485 41.0182 12.1603 41.025 12.2198 41.0288C12.2631 41.0316 12.3299 41.0354 12.4178 41.0536C12.4968 41.07 12.5799 41.0785 12.6639 41.0785C13.0717 41.0785 13.4597 40.8928 13.7022 40.5813C13.7269 40.5488 13.7358 40.5488 13.7494 40.5488C13.7797 40.5488 13.8288 40.5601 13.8861 40.573C13.9225 40.5812 13.9623 40.5907 14.006 40.5992C14.2769 40.6523 14.7465 40.552 15.1306 40.359C15.2877 40.2804 15.4631 40.2407 15.6515 40.2407C15.7645 40.2407 15.8627 40.2546 15.9355 40.2666C16.1991 40.3103 16.3175 40.2452 16.681 40.0318L16.8149 39.9531C17.1364 39.7636 17.5007 39.5487 17.8918 39.4278C17.9282 39.4165 17.9667 39.4083 18.0058 39.3998C18.3502 39.3243 18.6633 39.1898 18.7188 38.3883C18.8211 36.8822 19.1558 33.6353 19.406 32.6937C19.6168 32.5659 19.766 32.453 19.9107 32.3438C20.0395 32.2465 20.1631 32.1533 20.3257 32.0513C21.2134 41.6802 21.7906 42.9019 22.8307 45.104C23.7741 47.1012 24.8653 48.201 25.904 48.201C26.2878 48.201 26.6517 48.049 26.9874 47.7491C27.3488 48.0491 27.7252 48.201 28.1085 48.201C29.145 48.201 30.1423 47.1011 30.9165 45.104C31.7692 42.9026 32.2424 41.6812 32.3065 32.051C32.4778 32.1527 32.6094 32.2458 32.7458 32.3428C32.9005 32.4526 33.0597 32.5656 33.2823 32.6937C33.6063 33.6202 34.2975 37.0187 34.5452 38.6272C34.6547 39.3285 35.0717 39.4093 35.3754 39.4093C35.4212 39.4093 35.4663 39.4077 35.5104 39.4058C35.6009 39.4023 35.6854 39.4017 35.7231 39.4128C35.8616 39.454 35.9893 39.487 36.1103 39.5185C36.3966 39.5925 36.644 39.6564 36.9014 39.7993C37.2977 40.0167 37.4144 40.074 37.6667 40.0296C37.7394 40.0173 37.838 40.0035 37.9516 40.0035C38.1398 40.0035 38.3176 40.0428 38.481 40.1212C38.8799 40.3106 39.354 40.4117 39.6281 40.3559C39.6701 40.3471 39.7079 40.338 39.7426 40.3298C39.8 40.3159 39.8494 40.3037 39.8798 40.3037C39.8933 40.3037 39.9021 40.3037 39.93 40.3361C40.1976 40.6441 40.6007 40.8283 41.008 40.8283C41.0935 40.8283 41.1769 40.8198 41.256 40.8028C41.3424 40.7843 41.4085 40.7801 41.4516 40.777C41.5108 40.7732 41.6219 40.7657 41.6499 40.6521C41.6726 40.5604 41.6221 40.5026 41.5538 40.4501C41.5709 40.4421 41.5869 40.434 41.603 40.4261C41.6657 40.3944 41.7288 40.3632 41.7695 40.3632ZM28.2801 13.0178C28.5757 12.8651 28.8231 12.7525 29.013 12.6659C29.1846 12.5878 29.3019 12.5347 29.3769 12.4852C29.4831 12.7483 29.649 13.0634 29.8675 13.4769C30.1983 14.1031 30.651 14.961 31.1481 16.1419L31.1924 16.2473C31.3683 16.6646 31.4953 16.9661 31.5004 17.013C31.4823 17.0246 31.4077 17.0391 31.3674 17.0467C30.8877 17.1395 30.6775 17.4077 30.3596 17.8136C30.3084 17.8787 30.2541 17.948 30.1948 18.0213C29.4829 16.6762 28.3359 16.1652 27.9272 16.0194C27.9969 15.3219 27.8541 15.1259 27.4598 14.6998C27.2735 14.4984 27.2489 14.4021 27.2307 14.3319C27.1992 14.2089 27.1547 14.1343 27.0154 14.0582C27.0821 13.958 27.1586 13.8564 27.2328 13.7897C27.2689 13.757 27.2914 13.7041 27.2885 13.6534C27.5631 13.429 27.8571 13.3214 28.0281 13.2591C28.177 13.205 28.2939 13.1619 28.2805 13.0243C28.2806 13.0225 28.2802 13.0203 28.2801 13.0178ZM23.003 13.2598C23.179 13.3225 23.4809 13.4301 23.7759 13.6541C23.7771 13.6798 23.7837 13.7052 23.7953 13.7286C23.8069 13.7521 23.8232 13.773 23.8432 13.7901C23.9228 13.8568 24.0079 13.9585 24.0829 14.0583C23.9498 14.1344 23.9116 14.2093 23.8907 14.3328C23.8786 14.403 23.8625 14.4992 23.6834 14.713C23.3358 15.1271 23.21 15.3225 23.3379 16.0199C22.9422 16.1656 21.8403 16.6776 21.2412 18.0215C21.1759 17.9481 21.1158 17.8786 21.0593 17.8138C20.7077 17.4078 20.4756 17.14 19.9883 17.0468C19.9587 17.0415 19.9103 17.0323 19.8851 17.0323C19.8753 17.0323 19.8687 17.0336 19.8682 17.0373C19.8513 16.9659 19.953 16.6644 20.0937 16.2471L20.129 16.1423C20.5267 14.9575 20.9074 14.098 21.1856 13.4708C21.3615 13.073 21.5034 12.7533 21.589 12.4864C21.6685 12.5358 21.7904 12.5893 21.9686 12.667C22.1655 12.7533 22.4222 12.866 22.7309 13.0186C22.731 13.0212 22.7308 13.0233 22.7309 13.0259C22.7292 13.1622 22.8501 13.2054 23.003 13.2598Z" fill="#292E35"/>
</svg>
