<svg width="51" height="50" viewBox="0 0 51 50" fill="none" xmlns="http://www.w3.org/2000/svg">
<path d="M47.5654 16.3622C47.4688 16.459 47.354 16.5358 47.2276 16.5882C47.1012 16.6406 46.9658 16.6676 46.8289 16.6676C46.6921 16.6676 46.5567 16.6406 46.4303 16.5882C46.3039 16.5358 46.1891 16.459 46.0925 16.3622C45.0321 15.3018 44.206 15.3018 43.1467 16.3622C42.3487 17.1601 41.5175 17.6132 40.6654 17.7341C40.503 18.7887 40.0983 19.7914 39.4831 20.6632C39.6644 20.808 39.8446 20.9622 40.0217 21.1393C41.0821 22.1997 41.9081 22.1997 42.9675 21.1393C43.0642 21.0426 43.179 20.9658 43.3054 20.9135C43.4317 20.8612 43.5672 20.8342 43.7039 20.8342C43.8407 20.8342 43.9762 20.8612 44.1025 20.9135C44.2289 20.9658 44.3437 21.0426 44.4404 21.1393C44.5371 21.236 44.6138 21.3508 44.6662 21.4772C44.7185 21.6035 44.7455 21.7389 44.7455 21.8757C44.7455 22.0125 44.7185 22.1479 44.6662 22.2743C44.6138 22.4007 44.5371 22.5155 44.4404 22.6122C42.5685 24.4841 40.4206 24.4841 38.5477 22.6122C38.403 22.4678 38.2473 22.3347 38.0821 22.2143L36.0623 24.2341C36.5633 24.8372 36.9487 25.7341 36.9487 27.083C36.9487 28.582 37.5331 29.1663 39.0321 29.1663C39.3083 29.1663 39.5733 29.2761 39.7686 29.4714C39.964 29.6668 40.0737 29.9317 40.0737 30.208C40.0737 30.4843 39.964 30.7492 39.7686 30.9446C39.5733 31.1399 39.3083 31.2497 39.0321 31.2497C36.3842 31.2497 34.8654 29.7309 34.8654 27.083C34.8654 26.4101 34.7352 25.9934 34.5748 25.7226L30.38 29.9174C30.6498 30.0778 31.0664 30.208 31.7404 30.208C34.3883 30.208 35.9071 31.7268 35.9071 34.3747C35.9071 34.6509 35.7973 34.9159 35.602 35.1113C35.4066 35.3066 35.1417 35.4163 34.8654 35.4163C34.5891 35.4163 34.3242 35.3066 34.1288 35.1113C33.9335 34.9159 33.8237 34.6509 33.8237 34.3747C33.8237 32.8757 33.2394 32.2913 31.7404 32.2913C30.3904 32.2913 29.4946 31.9049 28.8914 31.4059L27.1935 33.1039C27.9592 33.6851 28.6154 34.6872 28.6154 36.458C28.6154 37.957 29.1998 38.5413 30.6987 38.5413C30.975 38.5413 31.24 38.6511 31.4353 38.8464C31.6307 39.0418 31.7404 39.3067 31.7404 39.583C31.7404 39.8593 31.6307 40.1242 31.4353 40.3196C31.24 40.5149 30.975 40.6247 30.6987 40.6247C28.0508 40.6247 26.5321 39.1059 26.5321 36.458C26.5321 35.3038 26.1717 34.8247 25.6987 34.5986L22.5217 37.7757C23.0217 38.3799 23.4071 39.2757 23.4071 40.6247C23.4071 42.1236 23.9914 42.708 25.4904 42.708C25.7667 42.708 26.0316 42.8178 26.227 43.0131C26.4223 43.2085 26.5321 43.4734 26.5321 43.7497C26.5321 44.0259 26.4223 44.2909 26.227 44.4863C26.0316 44.6816 25.7667 44.7913 25.4904 44.7913C22.8425 44.7913 21.3237 43.2726 21.3237 40.6247C21.3237 39.8382 21.1467 39.3986 20.9498 39.1382C20.1258 39.6742 19.1967 40.0276 18.2248 40.1747C18.1185 40.9028 17.7498 41.758 16.8519 42.6549C15.7914 43.7164 15.7914 44.5424 16.8519 45.6018C17.0472 45.7971 17.1569 46.062 17.1569 46.3382C17.1569 46.6144 17.0472 46.8794 16.8519 47.0747C16.6565 47.27 16.3916 47.3797 16.1154 47.3797C15.8392 47.3797 15.5743 47.27 15.3789 47.0747C13.5071 45.2028 13.5071 43.0549 15.3789 41.182C15.781 40.7799 15.9821 40.4455 16.0842 40.1736C14.6336 39.9524 13.2916 39.2736 12.2539 38.2361L12.2425 38.2236C12.0789 38.4976 11.9487 38.9132 11.9487 39.583C11.9487 42.2309 10.43 43.7497 7.78207 43.7497C7.5058 43.7497 7.24085 43.6399 7.0455 43.4446C6.85015 43.2492 6.7404 42.9843 6.7404 42.708C6.7404 42.4317 6.85015 42.1668 7.0455 41.9714C7.24085 41.7761 7.5058 41.6663 7.78207 41.6663C9.28103 41.6663 9.8654 41.082 9.8654 39.583C9.8654 38.0361 10.3685 37.082 10.9831 36.4841C10.6524 35.8309 10.4274 35.1295 10.3164 34.4059C10.0446 34.508 9.7102 34.708 9.30811 35.1111C7.43624 36.983 5.28832 36.983 3.4154 35.1111C3.22008 34.9158 3.11035 34.6509 3.11035 34.3747C3.11035 34.0985 3.22008 33.8335 3.4154 33.6382C3.61072 33.4429 3.87564 33.3332 4.15186 33.3332C4.42809 33.3332 4.693 33.4429 4.88832 33.6382C5.94874 34.6986 6.77478 34.6986 7.83415 33.6382C8.63207 32.8403 9.46332 32.3872 10.3144 32.2663C10.4766 31.2115 10.8817 30.2088 11.4977 29.3372C11.3094 29.1887 11.1296 29.0298 10.9592 28.8611C9.89874 27.8007 9.07269 27.8007 8.01332 28.8611C7.818 29.0565 7.55309 29.1662 7.27686 29.1662C7.00064 29.1662 6.73572 29.0565 6.5404 28.8611C6.34508 28.6658 6.23535 28.4009 6.23535 28.1247C6.23535 27.8485 6.34508 27.5835 6.5404 27.3882C8.41228 25.5163 10.5602 25.5163 12.4331 27.3882C12.5914 27.5466 12.7456 27.6736 12.8987 27.7861L14.9185 25.7663C14.4175 25.1622 14.0321 24.2653 14.0321 22.9163C14.0321 21.4174 13.4477 20.833 11.9487 20.833C11.6725 20.833 11.4075 20.7233 11.2122 20.5279C11.0168 20.3326 10.9071 20.0676 10.9071 19.7913C10.9071 19.5151 11.0168 19.2501 11.2122 19.0548C11.4075 18.8594 11.6725 18.7497 11.9487 18.7497C14.5967 18.7497 16.1154 20.2684 16.1154 22.9163C16.1154 23.5893 16.2456 24.0059 16.406 24.2768L20.6008 20.082C20.331 19.9216 19.9144 19.7913 19.2404 19.7913C16.5925 19.7913 15.0737 18.2726 15.0737 15.6247C15.0737 15.3484 15.1835 15.0835 15.3788 14.8881C15.5742 14.6928 15.8391 14.583 16.1154 14.583C16.3917 14.583 16.6566 14.6928 16.852 14.8881C17.0473 15.0835 17.1571 15.3484 17.1571 15.6247C17.1571 17.1236 17.7414 17.708 19.2404 17.708C20.5904 17.708 21.4862 18.0945 22.0894 18.5934L23.7873 16.8955C23.0217 16.3143 22.3654 15.3122 22.3654 13.5413C22.3654 12.0424 21.781 11.458 20.2821 11.458C20.0058 11.458 19.7409 11.3483 19.5455 11.1529C19.3501 10.9576 19.2404 10.6926 19.2404 10.4163C19.2404 10.1401 19.3501 9.87513 19.5455 9.67978C19.7409 9.48443 20.0058 9.37468 20.2821 9.37468C22.93 9.37468 24.4487 10.8934 24.4487 13.5413C24.4487 14.6955 24.8092 15.1747 25.2821 15.4007L28.4592 12.2236C27.9592 11.6195 27.5737 10.7236 27.5737 9.37468C27.5737 7.87572 26.9894 7.29135 25.4904 7.29135C25.2141 7.29135 24.9492 7.1816 24.7538 6.98625C24.5585 6.7909 24.4487 6.52595 24.4487 6.24968C24.4487 5.97341 24.5585 5.70846 24.7538 5.51311C24.9492 5.31776 25.2141 5.20801 25.4904 5.20801C28.1383 5.20801 29.6571 6.72676 29.6571 9.37468C29.6571 10.1611 29.8342 10.6007 30.031 10.8611C30.8549 10.3258 31.7836 9.9724 32.755 9.82468C32.8612 9.09656 33.23 8.24135 34.1279 7.34447C35.1883 6.28301 35.1883 5.45697 34.1279 4.3976C34.0312 4.30088 33.9545 4.18607 33.9021 4.05971C33.8498 3.93335 33.8229 3.79791 33.8229 3.66114C33.8229 3.52437 33.8498 3.38893 33.9021 3.26257C33.9545 3.13621 34.0312 3.02139 34.1279 2.92468C34.2246 2.82797 34.3394 2.75125 34.4658 2.69891C34.5922 2.64657 34.7276 2.61963 34.8644 2.61963C35.0011 2.61963 35.1366 2.64657 35.2629 2.69891C35.3893 2.75125 35.5041 2.82797 35.6008 2.92468C37.4727 4.79656 37.4727 6.94447 35.6008 8.81739C35.1977 9.21947 34.9977 9.55489 34.8956 9.82572C36.3462 10.0469 37.6881 10.7258 38.7258 11.7632L38.7373 11.7768C38.9008 11.5028 39.0321 11.0861 39.0321 10.4163C39.0321 7.76843 40.5508 6.24968 43.1987 6.24968C43.475 6.24968 43.74 6.35943 43.9353 6.55478C44.1307 6.75013 44.2404 7.01508 44.2404 7.29135C44.2404 7.56761 44.1307 7.83257 43.9353 8.02792C43.74 8.22327 43.475 8.33301 43.1987 8.33301C41.6998 8.33301 41.1154 8.91739 41.1154 10.4163C41.1154 11.9643 40.6112 12.9174 39.9977 13.5163C40.3331 14.1757 40.5529 14.8778 40.6644 15.5945C40.9362 15.4924 41.2706 15.2924 41.6737 14.8893C43.5456 13.0174 45.6935 13.0174 47.5664 14.8893C47.7616 15.0847 47.8711 15.3497 47.8709 15.6259C47.8707 15.9022 47.7608 16.167 47.5654 16.3622Z" fill="#292E35"/>
</svg>
