<svg width="50" height="51" viewBox="0 0 50 51" fill="none" xmlns="http://www.w3.org/2000/svg">
<g clip-path="url(#clip0_305_6085)">
<path d="M6.24838 40.6134C6.18223 40.6062 6.11569 40.623 6.06088 40.6608C6.02695 40.6947 5.97159 40.9376 6.12338 41.3751C6.3832 42.0599 6.79213 42.6786 7.31981 43.1867C7.82611 43.7153 8.4433 44.1251 9.12695 44.3867C9.56802 44.5349 9.81088 44.484 9.84124 44.4492C9.99838 44.292 9.80106 43.1465 8.57874 41.9242C7.97846 41.229 7.15419 40.7654 6.24838 40.6134Z" fill="#292E35"/>
<path d="M17.8557 33.5435C18.3489 33.5435 18.7486 33.1438 18.7486 32.6507C18.7486 32.1576 18.3489 31.7578 17.8557 31.7578C17.3626 31.7578 16.9629 32.1576 16.9629 32.6507C16.9629 33.1438 17.3626 33.5435 17.8557 33.5435Z" fill="#292E35"/>
<path d="M29.4634 34.4362C30.4497 34.4362 31.2492 33.6367 31.2492 32.6505C31.2492 31.6642 30.4497 30.8647 29.4634 30.8647C28.4772 30.8647 27.6777 31.6642 27.6777 32.6505C27.6777 33.6367 28.4772 34.4362 29.4634 34.4362Z" fill="#292E35"/>
<path d="M33.0345 22.8297C33.5276 22.8297 33.9273 22.4299 33.9273 21.9368C33.9273 21.4437 33.5276 21.0439 33.0345 21.0439C32.5413 21.0439 32.1416 21.4437 32.1416 21.9368C32.1416 22.4299 32.5413 22.8297 33.0345 22.8297Z" fill="#292E35"/>
<path d="M49.1062 22.8292C48.9276 22.8292 48.458 23.4614 48.2838 24.615H44.6419C43.4097 24.615 42.2169 24.4364 41.1597 22.3355C41.1073 22.2306 41.0761 22.1163 41.0678 21.9993C41.0596 21.8823 41.0744 21.7648 41.1116 21.6535C41.1487 21.5423 41.2074 21.4394 41.2843 21.3508C41.3612 21.2623 41.4548 21.1897 41.5597 21.1373C41.6647 21.0849 41.7789 21.0536 41.8959 21.0454C42.0129 21.0371 42.1304 21.052 42.2417 21.0891C42.353 21.1263 42.4558 21.185 42.5444 21.2619C42.633 21.3387 42.7055 21.4323 42.7579 21.5373C42.9267 21.9364 43.1838 22.2908 43.5115 22.5748C43.0573 19.6496 41.9089 16.8757 40.1624 14.4855C40.1303 14.9185 40.1981 15.3533 40.3624 15.7551C40.3995 15.8665 40.4143 15.9841 40.406 16.1012C40.3977 16.2184 40.3663 16.3327 40.3138 16.4377C40.2613 16.5427 40.1886 16.6363 40.0999 16.7132C40.0112 16.7901 39.9082 16.8488 39.7968 16.8859C39.6854 16.923 39.5678 16.9379 39.4507 16.9295C39.3336 16.9212 39.2192 16.8898 39.1142 16.8373C39.0092 16.7848 38.9156 16.7121 38.8387 16.6234C38.7618 16.5347 38.7031 16.4317 38.666 16.3203C37.9213 14.0882 38.6419 13.1203 39.5124 12.2498L42.0883 9.67388C43.0276 10.3676 43.8062 10.4837 43.9321 10.3551C43.966 10.3212 44.0169 10.0783 43.8696 9.64085C43.6106 8.9565 43.2036 8.33787 42.6776 7.82924C42.1711 7.30089 41.5539 6.8911 40.8705 6.62924C40.7022 6.56827 40.5252 6.53481 40.3463 6.53013C40.2796 6.52278 40.2121 6.53552 40.1526 6.56674C40.0249 6.69353 40.141 7.47121 40.8338 8.41049L38.2579 10.9855C37.9638 11.3417 37.5961 11.6298 37.1799 11.8302C36.7637 12.0306 36.3091 12.1384 35.8472 12.1462C35.2797 12.1329 34.7181 12.0283 34.1838 11.8364C33.9589 11.7614 33.7729 11.6002 33.6668 11.3881C33.5608 11.1761 33.5433 10.9305 33.6182 10.7056C33.6932 10.4806 33.8544 10.2946 34.0665 10.1886C34.2785 10.0825 34.5241 10.065 34.749 10.14C35.1508 10.3033 35.5856 10.3721 36.0187 10.34C33.6284 8.5935 30.8546 7.44508 27.9294 6.99085C28.2133 7.31853 28.5678 7.57567 28.9669 7.74442C29.0718 7.79683 29.1654 7.8694 29.2423 7.95798C29.3192 8.04656 29.3779 8.14942 29.415 8.26068C29.4522 8.37195 29.467 8.48944 29.4588 8.60645C29.4505 8.72346 29.4193 8.83769 29.3669 8.94263C29.3145 9.04757 29.2419 9.14116 29.1533 9.21806C29.0647 9.29495 28.9619 9.35365 28.8506 9.39079C28.7394 9.42794 28.6219 9.4428 28.5049 9.43454C28.3878 9.42627 28.2736 9.39505 28.1687 9.34263C26.0705 8.28996 25.8919 7.0971 25.8919 5.86496V2.22299C27.0455 2.04888 27.6776 1.57924 27.6776 1.40067C27.6776 1.17835 26.7276 0.507813 24.999 0.507813C23.2705 0.507813 22.3205 1.17835 22.3205 1.40067C22.3205 1.57924 22.9526 2.04888 24.1062 2.22299V5.86496C24.1062 7.0971 23.9276 8.28996 21.8267 9.34263C21.7218 9.39505 21.6075 9.42627 21.4905 9.43454C21.3735 9.4428 21.256 9.42794 21.1448 9.39079C21.0335 9.35365 20.9306 9.29495 20.842 9.21806C20.7535 9.14116 20.6809 9.04757 20.6285 8.94263C20.5761 8.83769 20.5448 8.72346 20.5366 8.60645C20.5283 8.48944 20.5432 8.37195 20.5803 8.26068C20.6175 8.14942 20.6762 8.04656 20.7531 7.95798C20.83 7.8694 20.9235 7.79683 21.0285 7.74442C21.4275 7.57599 21.7824 7.31817 22.066 6.99085C19.1408 7.44508 16.3669 8.5935 13.9767 10.34C14.4097 10.3715 14.8441 10.3031 15.2463 10.14C15.4713 10.065 15.7168 10.0825 15.9289 10.1886C16.141 10.2946 16.3022 10.4806 16.3771 10.7056C16.4521 10.9305 16.4346 11.1761 16.3285 11.3881C16.2225 11.6002 16.0365 11.7614 15.8115 11.8364C15.2773 12.0285 14.7157 12.1334 14.1481 12.1471C13.6863 12.1391 13.2317 12.0312 12.8156 11.8309C12.3995 11.6305 12.0316 11.3424 11.7374 10.9864L9.16152 8.41049C9.85438 7.47121 9.97045 6.69353 9.84277 6.56674C9.78327 6.53552 9.71581 6.52278 9.64902 6.53013C9.47045 6.5346 9.29277 6.56853 9.12492 6.62924C8.44238 6.89145 7.82621 7.30121 7.32045 7.82924C6.79182 8.33554 6.38199 8.95273 6.12045 9.63638C5.97313 10.0775 6.02402 10.3203 6.05795 10.3507C6.18474 10.4783 6.96242 10.3632 7.9017 9.66942L10.4767 12.2453C11.3481 13.1158 12.0687 14.0828 11.324 16.3158C11.2491 16.5408 11.0878 16.7268 10.8758 16.8329C10.6637 16.9389 10.4182 16.9564 10.1932 16.8815C9.96826 16.8065 9.78229 16.6453 9.67621 16.4332C9.57014 16.2211 9.55265 15.9756 9.62759 15.7507C9.79099 15.3489 9.85974 14.9141 9.82759 14.481C8.08114 16.8712 6.93272 19.6451 6.47849 22.5703C6.80617 22.2864 7.06331 21.9319 7.23206 21.5328C7.28447 21.4279 7.35704 21.3343 7.44562 21.2574C7.5342 21.1805 7.63706 21.1218 7.74832 21.0847C7.85959 21.0475 7.97708 21.0326 8.09409 21.0409C8.2111 21.0492 8.32533 21.0804 8.43027 21.1328C8.53521 21.1852 8.6288 21.2578 8.7057 21.3464C8.78259 21.435 8.84129 21.5378 8.87843 21.6491C8.91558 21.7603 8.93044 21.8778 8.92218 21.9948C8.91391 22.1118 8.88268 22.2261 8.83027 22.331C7.78117 24.4408 6.58831 24.615 5.35617 24.615H1.7142C1.54009 23.4614 1.07045 22.8292 0.891881 22.8292C0.669559 22.8292 -0.000976563 23.7792 -0.000976563 25.5078C-0.000976563 27.2364 0.669559 28.1864 0.891881 28.1864C1.07045 28.1864 1.54009 27.5542 1.7142 26.4007H5.35617C6.58831 26.4007 7.78117 26.5792 8.83385 28.6801C8.88626 28.7851 8.91749 28.8993 8.92575 29.0163C8.93401 29.1333 8.91915 29.2508 8.882 29.3621C8.84486 29.4733 8.78617 29.5762 8.70927 29.6648C8.63237 29.7534 8.53878 29.8259 8.43384 29.8783C8.3289 29.9308 8.21467 29.962 8.09766 29.9703C7.98065 29.9785 7.86316 29.9636 7.75189 29.9265C7.64063 29.8894 7.53777 29.8307 7.44919 29.7538C7.36061 29.6769 7.28804 29.5833 7.23563 29.4783C7.0672 29.0794 6.80938 28.7244 6.48206 28.4408C6.93629 31.3661 8.08471 34.1399 9.83117 36.5301C9.8632 36.0972 9.79475 35.6626 9.63117 35.2605C9.55622 35.0355 9.57371 34.79 9.67978 34.5779C9.78586 34.3659 9.97183 34.2046 10.1968 34.1297C10.4218 34.0547 10.6673 34.0722 10.8793 34.1783C11.0914 34.2844 11.2526 34.4704 11.3276 34.6953C12.0722 36.9275 11.3517 37.8953 10.4812 38.7658L9.17938 40.0614C9.64813 40.4346 10.0722 40.8587 10.4455 41.3275L11.7446 40.0292C12.616 39.1578 13.5812 38.4364 15.8151 39.1819C15.9265 39.219 16.0295 39.2777 16.1182 39.3546C16.2069 39.4315 16.2796 39.5252 16.3321 39.6302C16.3846 39.7352 16.416 39.8495 16.4243 39.9666C16.4326 40.0837 16.4178 40.2013 16.3807 40.3127C16.3436 40.4241 16.2849 40.5271 16.208 40.6158C16.1311 40.7045 16.0375 40.7772 15.9325 40.8297C15.8275 40.8823 15.7131 40.9136 15.596 40.9219C15.4789 40.9303 15.3613 40.9155 15.2499 40.8783C14.8477 40.7151 14.4132 40.6467 13.9803 40.6783C16.3706 42.4247 19.1444 43.5731 22.0696 44.0275C21.786 43.7001 21.431 43.4423 21.0321 43.2739C20.8201 43.168 20.6589 42.9823 20.5839 42.7576C20.5089 42.5329 20.5262 42.2876 20.6321 42.0757C20.7379 41.8637 20.9236 41.7025 21.1483 41.6275C21.373 41.5525 21.6183 41.5698 21.8303 41.6757C23.9321 42.7257 24.1062 43.9185 24.1062 45.1507V48.7926C22.9526 48.9712 22.3205 49.4346 22.3205 49.615C22.3205 49.8373 23.2705 50.5078 24.999 50.5078C26.7276 50.5078 27.6776 49.8373 27.6776 49.615C27.6776 49.4364 27.0455 48.9667 25.8919 48.7926V45.1507C25.8919 43.9185 26.0705 42.7257 28.1713 41.6685C28.2763 41.6161 28.3905 41.5849 28.5075 41.5766C28.6245 41.5684 28.742 41.5832 28.8533 41.6204C28.9646 41.6575 29.0674 41.7162 29.156 41.7931C29.2446 41.87 29.3171 41.9636 29.3696 42.0685C29.422 42.1735 29.4532 42.2877 29.4615 42.4047C29.4697 42.5217 29.4549 42.6392 29.4177 42.7505C29.3806 42.8617 29.3219 42.9646 29.245 43.0532C29.1681 43.1418 29.0745 43.2143 28.9696 43.2667C28.5706 43.4352 28.2156 43.693 27.9321 44.0203C30.8573 43.5661 33.6311 42.4177 36.0213 40.6712C35.5884 40.6392 35.1539 40.7076 34.7517 40.8712C34.5267 40.9462 34.2812 40.9287 34.0692 40.8226C33.8571 40.7165 33.6958 40.5305 33.6209 40.3056C33.546 40.0806 33.5634 39.8351 33.6695 39.623C33.7756 39.411 33.9616 39.2497 34.1865 39.1748C36.4187 38.4301 37.3865 39.1516 38.2571 40.0212L40.833 42.5971C40.1401 43.5364 40.024 44.3141 40.1517 44.4408C40.1856 44.4757 40.4285 44.5301 40.866 44.3783C41.5423 44.1028 42.1567 43.6948 42.6731 43.1784C43.1896 42.6619 43.5975 42.0475 43.8731 41.3712C44.0205 40.9301 43.9696 40.6873 43.9356 40.6569C43.8808 40.6192 43.8143 40.6024 43.7481 40.6096C43.1374 40.6882 42.5606 40.94 42.0883 41.3346L39.5169 38.7623C38.6455 37.8917 37.9249 36.9248 38.6696 34.6917C38.7445 34.4668 38.9058 34.2808 39.1178 34.1747C39.3299 34.0687 39.5754 34.0512 39.8004 34.1261C40.0253 34.2011 40.2113 34.3623 40.3174 34.5744C40.4234 34.7864 40.4409 35.032 40.366 35.2569C40.2026 35.6587 40.1338 36.0935 40.166 36.5266C41.9124 34.1363 43.0609 31.3625 43.5151 28.4373C43.1878 28.7208 42.93 29.0758 42.7615 29.4748C42.7091 29.5797 42.6365 29.6733 42.548 29.7502C42.4594 29.8271 42.3565 29.8858 42.2453 29.9229C42.134 29.9601 42.0165 29.9749 41.8995 29.9667C41.7825 29.9584 41.6682 29.9272 41.5633 29.8748C41.4584 29.8224 41.3648 29.7498 41.2879 29.6612C41.211 29.5726 41.1523 29.4698 41.1152 29.3585C41.078 29.2472 41.0631 29.1298 41.0714 29.0127C41.0797 28.8957 41.1109 28.7815 41.1633 28.6766C42.2169 26.5792 43.4097 26.4007 44.6419 26.4007H48.2838C48.4624 27.5542 48.9258 28.1864 49.1062 28.1864C49.3285 28.1864 49.999 27.2364 49.999 25.5078C49.999 23.7792 49.3285 22.8292 49.1062 22.8292ZM17.8562 35.3292C17.1458 35.3292 16.4645 35.047 15.9621 34.5447C15.4598 34.0424 15.1776 33.3611 15.1776 32.6507C15.1776 31.9403 15.4598 31.259 15.9621 30.7566C16.4645 30.2543 17.1458 29.9721 17.8562 29.9721C18.5666 29.9721 19.2479 30.2543 19.7502 30.7566C20.2525 31.259 20.5347 31.9403 20.5347 32.6507C20.5347 33.3611 20.2525 34.0424 19.7502 34.5447C19.2479 35.047 18.5666 35.3292 17.8562 35.3292ZM19.6419 25.5078C18.9384 25.5078 18.2417 25.3692 17.5918 25.1C16.9418 24.8308 16.3513 24.4362 15.8538 23.9387C15.3564 23.4413 14.9617 22.8507 14.6925 22.2008C14.4233 21.5508 14.2847 20.8542 14.2847 20.1507C14.2847 19.4472 14.4233 18.7505 14.6925 18.1006C14.9617 17.4506 15.3564 16.8601 15.8538 16.3626C16.3513 15.8651 16.9418 15.4705 17.5918 15.2013C18.2417 14.9321 18.9384 14.7935 19.6419 14.7935C21.0627 14.7935 22.4253 15.3579 23.43 16.3626C24.4346 17.3673 24.999 18.7299 24.999 20.1507C24.999 21.5715 24.4346 22.9341 23.43 23.9387C22.4253 24.9434 21.0627 25.5078 19.6419 25.5078ZM29.4633 36.2221C28.5161 36.2221 27.6077 35.8458 26.9379 35.176C26.2682 34.5063 25.8919 33.5979 25.8919 32.6507C25.8919 31.7035 26.2682 30.7951 26.9379 30.1253C27.6077 29.4555 28.5161 29.0792 29.4633 29.0792C30.4105 29.0792 31.3189 29.4555 31.9887 30.1253C32.6585 30.7951 33.0347 31.7035 33.0347 32.6507C33.0347 33.5979 32.6585 34.5063 31.9887 35.176C31.3189 35.8458 30.4105 36.2221 29.4633 36.2221ZM33.0347 24.615C32.3243 24.615 31.643 24.3328 31.1407 23.8304C30.6384 23.3281 30.3562 22.6468 30.3562 21.9364C30.3562 21.226 30.6384 20.5447 31.1407 20.0423C31.643 19.54 32.3243 19.2578 33.0347 19.2578C33.7451 19.2578 34.4264 19.54 34.9288 20.0423C35.4311 20.5447 35.7133 21.226 35.7133 21.9364C35.7133 22.6468 35.4311 23.3281 34.9288 23.8304C34.4264 24.3328 33.7451 24.615 33.0347 24.615Z" fill="#292E35"/>
<path d="M19.6417 23.7224C21.6142 23.7224 23.2132 22.1235 23.2132 20.151C23.2132 18.1786 21.6142 16.5796 19.6417 16.5796C17.6693 16.5796 16.0703 18.1786 16.0703 20.151C16.0703 22.1235 17.6693 23.7224 19.6417 23.7224Z" fill="#292E35"/>
</g>
<defs>
<clipPath id="clip0_305_6085">
<rect width="50" height="50" fill="white" transform="translate(0 0.507812)"/>
</clipPath>
</defs>
</svg>
