<svg width="13" height="25" viewBox="0 0 13 25" fill="none" xmlns="http://www.w3.org/2000/svg">
<path d="M11.1875 3.125V18.75C11.1875 21.339 9.08905 23.4375 6.5 23.4375C3.91095 23.4375 1.8125 21.339 1.8125 18.75V4.6875C1.8125 2.96171 3.21171 1.5625 4.9375 1.5625C6.66329 1.5625 8.0625 2.96171 8.0625 4.6875V18.75C8.0625 19.6133 7.3625 20.3125 6.5 20.3125C5.63671 20.3125 4.9375 19.6133 4.9375 18.75V6.25H3.375V18.75C3.375 20.4758 4.77421 21.875 6.5 21.875C8.22579 21.875 9.625 20.4758 9.625 18.75V4.6875C9.625 2.09845 7.52655 0 4.9375 0C2.34845 0 0.25 2.09845 0.25 4.6875V19.5312C0.635164 22.6133 3.31329 25 6.5 25C9.68671 25 12.3648 22.6133 12.75 19.5312V3.125H11.1875Z" fill="#6CB778"/>
</svg>
