<svg width="22" height="22" viewBox="0 0 22 22" fill="none" xmlns="http://www.w3.org/2000/svg">
  <path d="M11 0C6.44394 0 2.75 3.69394 2.75 8.25C2.75 10.044 3.33816 11.6903 4.31578 13.0384C4.33331 13.0708 4.33606 13.1068 4.356 13.1378L9.856 21.3878C10.1111 21.7704 10.5408 22 11 22C11.4593 22 11.8889 21.7704 12.144 21.3878L17.644 13.1378C17.6643 13.1068 17.6667 13.0708 17.6842 13.0384C18.6618 11.6903 19.25 10.044 19.25 8.25C19.25 3.69394 15.5561 0 11 0ZM11 11C9.48131 11 8.25 9.76869 8.25 8.25C8.25 6.73131 9.48131 5.5 11 5.5C12.5187 5.5 13.75 6.73131 13.75 8.25C13.75 9.76869 12.5187 11 11 11Z" fill="#6CB778" />
</svg>