<svg width="20" height="13" viewBox="0 0 20 13" fill="none" xmlns="http://www.w3.org/2000/svg">
<path d="M1 5.75C0.585786 5.75 0.25 6.08579 0.25 6.5C0.25 6.91421 0.585786 7.25 1 7.25V5.75ZM19.5303 7.03033C19.8232 6.73744 19.8232 6.26256 19.5303 5.96967L14.7574 1.1967C14.4645 0.903806 13.9896 0.903806 13.6967 1.1967C13.4038 1.48959 13.4038 1.96447 13.6967 2.25736L17.9393 6.5L13.6967 10.7426C13.4038 11.0355 13.4038 11.5104 13.6967 11.8033C13.9896 12.0962 14.4645 12.0962 14.7574 11.8033L19.5303 7.03033ZM1 7.25H19V5.75H1V7.25Z" fill="white"/>
</svg>
