<svg width="50" height="50" viewBox="0 0 50 50" fill="none" xmlns="http://www.w3.org/2000/svg">
<rect width="50" height="50" rx="6" fill="#6CB778"/>
<g clip-path="url(#clip0_178_8)">
<path d="M32.4068 31.383C32.1326 30.3589 31.4832 29.4755 30.5877 28.9081L27.046 26.6601C26.7009 26.4426 26.4175 26.1401 26.223 25.7815C26.0286 25.4229 25.9296 25.0204 25.9356 24.6125L25.9847 20.1354C25.9875 19.9478 25.9491 19.7618 25.8724 19.5906C25.7956 19.4194 25.6822 19.267 25.5403 19.1443C25.6593 18.8826 25.6384 18.7083 25.6384 18.3167C27.5109 21.0595 29.8493 22.0992 29.9685 22.1508C30.0703 22.1949 30.1842 22.2023 30.2909 22.1718C30.3975 22.1413 30.4903 22.0748 30.5534 21.9835L30.9656 21.3886C31.0283 21.2979 31.0581 21.1884 31.0497 21.0784C31.0414 20.9684 30.9956 20.8646 30.9199 20.7843C29.2893 19.0571 28.6594 16.5802 28.4696 15.6368L29.127 15.41C29.3433 15.335 29.5307 15.1945 29.6634 15.0079C29.796 14.8214 29.8671 14.5982 29.8669 14.3693V14.308H30.8539C31.0663 14.3076 31.2698 14.223 31.4199 14.0727C31.57 13.9225 31.6543 13.7188 31.6544 13.5064V11.2066C31.6543 10.9942 31.57 10.7905 31.4199 10.6402C31.2698 10.4899 31.0663 10.4053 30.8539 10.4049H29.8669V10.3999C29.8674 10.1085 29.7523 9.82887 29.5468 9.62231C29.3413 9.41576 29.0623 9.29915 28.7709 9.2981H17.9455C17.6536 9.29863 17.3738 9.41492 17.1676 9.62147C16.9613 9.82802 16.8454 10.108 16.8453 10.3999V11.9631C16.8465 12.1785 16.9106 12.3889 17.0298 12.5683L19.3059 15.9911C19.189 16.0932 19.0952 16.2191 19.031 16.3604C18.9668 16.5017 18.9335 16.6551 18.9334 16.8103V18.6944C18.9337 18.7902 18.9467 18.8855 18.9721 18.9779C18.8108 19.0644 18.6698 19.1841 18.5583 19.3292C18.4468 19.4743 18.3674 19.6413 18.3253 19.8194L14.1643 37.2197C14.0646 37.6351 14.0594 38.0675 14.149 38.4852C14.2386 38.9029 14.4208 39.2952 14.6821 39.6331C14.9434 39.971 15.2772 40.2461 15.6588 40.4379C16.0405 40.6298 16.4604 40.7335 16.8875 40.7416L31.2195 40.9994C31.2372 40.9997 31.2549 40.9999 31.2725 40.9999C31.7106 40.9992 32.1427 40.8977 32.5353 40.7033C32.928 40.5089 33.2706 40.2267 33.5367 39.8787C33.8029 39.5307 33.9853 39.1261 34.0701 38.6963C34.1548 38.2664 34.1395 37.8228 34.0254 37.3999L32.4068 31.383ZM29.8681 11.3663H30.6944V13.3467H29.8681V11.3663ZM29.8216 20.9871C28.8951 20.44 26.9509 19.0499 25.6376 16.4218L27.5441 15.9149C27.7521 16.9285 28.3521 19.1783 29.8216 20.9871ZM18.2137 12.6144H22.5368C22.6643 12.6144 22.7865 12.5638 22.8767 12.4736C22.9668 12.3835 23.0175 12.2612 23.0175 12.1337C23.0175 12.0062 22.9668 11.8839 22.8767 11.7938C22.7865 11.7036 22.6643 11.653 22.5368 11.653H17.8053V10.3999C17.8053 10.3627 17.82 10.327 17.8463 10.3007C17.8726 10.2743 17.9083 10.2595 17.9455 10.2595H28.7711C28.7893 10.2595 28.8073 10.2633 28.8241 10.2704C28.8408 10.2776 28.856 10.288 28.8686 10.301C28.8813 10.3141 28.8912 10.3296 28.8978 10.3466C28.9044 10.3635 28.9076 10.3817 28.9071 10.3999V14.3694C28.9075 14.3983 28.8988 14.4266 28.8822 14.4503C28.8655 14.474 28.8418 14.4918 28.8144 14.5012L27.7856 14.8559L24.8353 15.6404H24.8348L24.5371 15.7196H20.2788L18.2137 12.6144ZM24.6784 16.8103V18.6944C24.6784 18.7286 24.6648 18.7614 24.6407 18.7857C24.6165 18.8099 24.5837 18.8235 24.5495 18.8236H20.0225C19.9882 18.8236 19.9554 18.8099 19.9312 18.7857C19.907 18.7615 19.8934 18.7286 19.8934 18.6944V16.8103C19.8935 16.778 19.9057 16.747 19.9275 16.7233C19.9494 16.6996 19.9793 16.685 20.0114 16.6823C20.0153 16.6823 20.0194 16.683 20.023 16.683H24.5676C24.5983 16.6873 24.6264 16.7026 24.6467 16.7259C24.6671 16.7493 24.6784 16.7793 24.6784 16.8103ZM32.7628 39.3093C32.583 39.5416 32.3513 39.7285 32.0863 39.8551C31.8213 39.9817 31.5303 40.0444 31.2366 40.0382L16.9047 39.7804C16.4664 39.7725 16.0444 39.6127 15.7108 39.3283C15.3772 39.0438 15.1526 38.6524 15.0755 38.2209H25.4161C25.5425 38.2193 25.6632 38.1679 25.752 38.0779C25.8408 37.988 25.8906 37.8666 25.8906 37.7402C25.8906 37.6138 25.8408 37.4925 25.752 37.4025C25.6632 37.3125 25.5425 37.2612 25.4161 37.2595H15.1419L19.2589 20.0435C19.2762 19.97 19.3179 19.9046 19.3771 19.8578C19.4364 19.8109 19.5097 19.7856 19.5853 19.7857H24.6892C24.7337 19.7857 24.7777 19.7945 24.8187 19.8116C24.8598 19.8288 24.897 19.8539 24.9282 19.8855C24.9595 19.9171 24.9842 19.9546 25.0008 19.9958C25.0175 20.037 25.0258 20.0812 25.0252 20.1256L24.9762 24.6028C24.9731 24.8839 25.0049 25.1643 25.071 25.4376L22.3661 23.7389C22.2581 23.6728 22.1284 23.652 22.0052 23.681C21.882 23.71 21.7752 23.7864 21.708 23.8937C21.6408 24.001 21.6187 24.1304 21.6464 24.2539C21.6741 24.3774 21.7495 24.485 21.8561 24.5533L29.1305 29.1219C30.1545 29.7715 31.1016 30.2259 31.4804 31.6339L32.994 37.2603H28.0152C27.8888 37.262 27.7681 37.3133 27.6793 37.4033C27.5905 37.4933 27.5407 37.6146 27.5407 37.741C27.5407 37.8674 27.5905 37.9888 27.6793 38.0787C27.7681 38.1687 27.8888 38.2201 28.0152 38.2217H33.1628C33.1472 38.6173 33.0072 38.9979 32.7628 39.3093Z" fill="white"/>
<path d="M27.6733 30.7293C27.6734 30.6662 27.661 30.6037 27.6369 30.5454C27.6129 30.4871 27.5775 30.4341 27.5329 30.3894C27.4883 30.3448 27.4354 30.3093 27.3771 30.2852C27.3188 30.261 27.2564 30.2486 27.1933 30.2486H25.6628V28.7159C25.6629 28.5885 25.6123 28.4663 25.5223 28.3762C25.4323 28.286 25.3102 28.2353 25.1828 28.2352H23.0271C22.8997 28.2353 22.7776 28.286 22.6876 28.3762C22.5975 28.4663 22.547 28.5885 22.5471 28.7159V30.2486H21.0166C20.8892 30.2487 20.7671 30.2994 20.6771 30.3895C20.5871 30.4797 20.5365 30.6019 20.5366 30.7293V32.8879C20.5365 32.951 20.5489 33.0135 20.573 33.0718C20.5971 33.1301 20.6324 33.1831 20.677 33.2278C20.7216 33.2724 20.7745 33.3078 20.8328 33.332C20.8911 33.3561 20.9535 33.3686 21.0166 33.3686H22.5471V34.9013C22.547 35.0287 22.5975 35.1509 22.6876 35.241C22.7776 35.3312 22.8997 35.3819 23.0271 35.382H25.1828C25.3102 35.3819 25.4323 35.3312 25.5223 35.241C25.6123 35.1509 25.6629 35.0287 25.6628 34.9013V33.3686H27.1933C27.2564 33.3686 27.3188 33.3562 27.3771 33.3321C27.4354 33.3079 27.4883 33.2725 27.5329 33.2278C27.5775 33.1832 27.6128 33.1302 27.6369 33.0719C27.661 33.0136 27.6733 32.9511 27.6733 32.888V30.7293ZM26.7133 32.4073H25.1828C25.1197 32.4073 25.0572 32.4197 24.9989 32.4439C24.9406 32.4681 24.8877 32.5035 24.8431 32.5481C24.7985 32.5928 24.7632 32.6458 24.7391 32.7041C24.715 32.7624 24.7027 32.8249 24.7028 32.888V34.4207H23.5071V32.8879C23.5072 32.8248 23.4949 32.7623 23.4708 32.704C23.4467 32.6457 23.4113 32.5927 23.3668 32.5481C23.3222 32.5034 23.2692 32.468 23.211 32.4438C23.1527 32.4196 23.0902 32.4072 23.0271 32.4072H21.4966V31.21H23.0271C23.0902 31.21 23.1527 31.1976 23.211 31.1734C23.2692 31.1492 23.3222 31.1138 23.3668 31.0692C23.4113 31.0245 23.4467 30.9715 23.4708 30.9132C23.4949 30.8549 23.5072 30.7924 23.5071 30.7293V29.1966H24.7028V30.7293C24.7027 30.7924 24.715 30.8549 24.7391 30.9132C24.7632 30.9715 24.7985 31.0245 24.8431 31.0692C24.8877 31.1138 24.9406 31.1492 24.9989 31.1734C25.0572 31.1976 25.1197 31.21 25.1828 31.21H26.7133V32.4073ZM33.3122 11.2656L33.7853 11.1842C33.9004 11.1645 34.003 11.0998 34.0705 11.0044C34.138 10.909 34.1648 10.7907 34.1451 10.6756C34.1253 10.5604 34.0606 10.4578 33.9652 10.3903C33.8698 10.3228 33.7515 10.296 33.6364 10.3158L33.1633 10.3971C33.0482 10.4169 32.9456 10.4816 32.8781 10.577C32.8106 10.6723 32.7838 10.7906 32.8035 10.9058C32.8233 11.021 32.888 11.1236 32.9834 11.1911C33.0788 11.2585 33.1971 11.2854 33.3122 11.2656ZM38.1032 10.435C38.1644 10.435 38.1276 10.4372 39.2765 10.2397C39.3907 10.219 39.4922 10.154 39.5588 10.0588C39.6255 9.9637 39.6518 9.8461 39.6322 9.73163C39.6126 9.61715 39.5485 9.51506 39.454 9.44755C39.3595 9.38004 39.2422 9.35257 39.1275 9.37113L38.0293 9.55993C37.9207 9.57876 37.823 9.6376 37.7557 9.72486C37.6883 9.81211 37.6561 9.92143 37.6654 10.0313C37.6747 10.1411 37.7248 10.2435 37.8058 10.3182C37.8869 10.3929 37.993 10.4345 38.1032 10.4349V10.435ZM35.4322 10.9009L36.5306 10.7119C36.6448 10.6911 36.7461 10.626 36.8126 10.531C36.8791 10.4359 36.9053 10.3184 36.8857 10.204C36.8661 10.0897 36.8022 9.98764 36.7079 9.92012C36.6135 9.85259 36.4963 9.82502 36.3817 9.84337L35.2834 10.0323C35.1694 10.0533 35.0682 10.1184 35.0019 10.2134C34.9355 10.3085 34.9093 10.4258 34.9288 10.5401C34.9484 10.6544 35.0122 10.7563 35.1065 10.8238C35.2007 10.8914 35.3177 10.9191 35.4322 10.9009ZM40.8488 9.96273C40.9071 9.96273 40.9157 9.95769 41.3969 9.87473C41.5102 9.85304 41.6104 9.78778 41.6761 9.69298C41.7418 9.59818 41.7677 9.48139 41.7483 9.36769C41.7288 9.254 41.6655 9.15247 41.572 9.08492C41.4785 9.01737 41.3623 8.98918 41.2482 9.00641L40.7749 9.08793C40.6663 9.10676 40.5686 9.1656 40.5013 9.25286C40.4339 9.34011 40.4017 9.44943 40.411 9.55927C40.4203 9.66911 40.4704 9.77148 40.5514 9.8462C40.6325 9.92091 40.7386 9.96255 40.8488 9.96289V9.96273ZM33.7173 11.916H33.2373C33.1205 11.916 33.0084 11.9624 32.9258 12.0451C32.8431 12.1277 32.7967 12.2398 32.7967 12.3566C32.7967 12.4735 32.8431 12.5856 32.9258 12.6682C33.0084 12.7509 33.1205 12.7973 33.2373 12.7973H33.7173C33.8342 12.7973 33.9463 12.7509 34.0289 12.6682C34.1116 12.5856 34.158 12.4735 34.158 12.3566C34.158 12.2398 34.1116 12.1277 34.0289 12.0451C33.9463 11.9624 33.8342 11.916 33.7173 11.916ZM36.5167 11.916H35.3967C35.2798 11.916 35.1678 11.9624 35.0851 12.0451C35.0025 12.1277 34.9561 12.2398 34.9561 12.3566C34.9561 12.4735 35.0025 12.5856 35.0851 12.6682C35.1678 12.7509 35.2798 12.7973 35.3967 12.7973H36.5167C36.6336 12.7973 36.7456 12.7509 36.8283 12.6682C36.9109 12.5856 36.9573 12.4735 36.9573 12.3566C36.9573 12.2398 36.9109 12.1277 36.8283 12.0451C36.7456 11.9624 36.6336 11.916 36.5167 11.916ZM39.3161 11.916H38.1961C38.0792 11.916 37.9671 11.9624 37.8845 12.0451C37.8018 12.1277 37.7554 12.2398 37.7554 12.3566C37.7554 12.4735 37.8018 12.5856 37.8845 12.6682C37.9671 12.7509 38.0792 12.7973 38.1961 12.7973H39.3161C39.4329 12.7973 39.545 12.7509 39.6276 12.6682C39.7103 12.5856 39.7567 12.4735 39.7567 12.3566C39.7567 12.2398 39.7103 12.1277 39.6276 12.0451C39.545 11.9624 39.4329 11.916 39.3161 11.916ZM41.4756 11.916H40.9956C40.8787 11.916 40.7666 11.9624 40.684 12.0451C40.6014 12.1277 40.5549 12.2398 40.5549 12.3566C40.5549 12.4735 40.6014 12.5856 40.684 12.6682C40.7666 12.7509 40.8787 12.7973 40.9956 12.7973H41.4756C41.5924 12.7973 41.7045 12.7509 41.7872 12.6682C41.8698 12.5856 41.9162 12.4735 41.9162 12.3566C41.9162 12.2398 41.8698 12.1277 41.7872 12.0451C41.7045 11.9624 41.5924 11.916 41.4756 11.916ZM33.7852 13.5628L33.3122 13.481C33.1978 13.4629 33.0808 13.4905 32.9866 13.5579C32.8924 13.6253 32.8285 13.7272 32.8088 13.8414C32.7891 13.9556 32.8152 14.0729 32.8814 14.168C32.9476 14.2631 33.0486 14.3283 33.1625 14.3494L33.6355 14.4312C33.7499 14.4494 33.8669 14.4218 33.9612 14.3543C34.0554 14.2869 34.1192 14.1851 34.1389 14.0709C34.1586 13.9567 34.1325 13.8393 34.0663 13.7443C34.0001 13.6492 33.8991 13.584 33.7852 13.5628ZM36.5309 14.0373L35.4327 13.8479C35.3183 13.8297 35.2013 13.8573 35.1071 13.9248C35.0128 13.9922 34.949 14.0941 34.9293 14.2083C34.9096 14.3224 34.9357 14.4398 35.0019 14.5349C35.0681 14.63 35.1691 14.6952 35.283 14.7163C36.4311 14.9147 36.395 14.9126 36.4566 14.9126C36.5668 14.9122 36.6729 14.8706 36.7539 14.7959C36.8349 14.7213 36.885 14.6189 36.8943 14.5092C36.9037 14.3994 36.8715 14.2901 36.8043 14.2028C36.737 14.1155 36.6395 14.0566 36.5309 14.0377V14.0373ZM39.2768 14.5119L38.1785 14.3221C38.1214 14.3123 38.063 14.3138 38.0066 14.3265C37.9501 14.3392 37.8968 14.363 37.8495 14.3964C37.754 14.4638 37.6892 14.5663 37.6694 14.6815C37.6495 14.7967 37.6762 14.915 37.7436 15.0105C37.811 15.1059 37.9136 15.1707 38.0288 15.1906L39.1271 15.3803C39.2415 15.3985 39.3585 15.3709 39.4528 15.3035C39.547 15.236 39.6108 15.1342 39.6305 15.02C39.6502 14.9058 39.6241 14.7885 39.5579 14.6934C39.4917 14.5983 39.3907 14.5331 39.2768 14.5119ZM41.3973 14.8782L40.9243 14.7964C40.8091 14.7766 40.6908 14.8033 40.5953 14.8707C40.4999 14.9381 40.4351 15.0406 40.4152 15.1558C40.3954 15.271 40.4221 15.3893 40.4895 15.4848C40.5569 15.5803 40.6595 15.645 40.7746 15.6649L41.2476 15.7466C41.3628 15.7665 41.4811 15.7398 41.5766 15.6724C41.672 15.605 41.7368 15.5024 41.7567 15.3872C41.7765 15.2721 41.7498 15.1537 41.6824 15.0583C41.615 14.9628 41.5124 14.898 41.3973 14.8782Z" fill="white"/>
</g>
<defs>
<clipPath id="clip0_178_8">
<rect width="32" height="32" fill="white" transform="translate(12 9)"/>
</clipPath>
</defs>
</svg>
