<svg width="50" height="50" viewBox="0 0 50 50" fill="none" xmlns="http://www.w3.org/2000/svg">
<rect width="50" height="50" rx="6" fill="#6CB778"/>
<path d="M25.889 15.0556L26.3335 16.5001C26.4446 16.7779 26.7223 16.9445 27.0001 16.889C29.1112 16.2779 30.5001 14.3334 30.5001 12.1112C30.5001 11.7779 30.2779 11.5556 29.9446 11.5556H28.5557V11.2779H31.889C32.2223 11.2779 32.4446 11.0556 32.4446 10.7223C32.4446 10.389 32.2223 10.1667 31.889 10.1667H28.5557C28.3335 8.66675 27.0557 7.66675 25.6112 7.66675C23.9446 7.66675 22.5557 9.05564 22.5557 10.7223V12.0556C22.5557 13.8334 24.1112 15.2779 25.889 15.0556ZM27.2223 15.6112C26.7223 13.889 27.0557 15.0556 26.3335 12.6667H29.389C29.2223 13.9445 28.389 15.0556 27.2223 15.6112ZM23.6668 10.7223C23.6668 9.66675 24.5557 8.77786 25.6112 8.77786C26.7223 8.77786 27.5557 9.66675 27.5557 10.7223V11.5556H25.6112C25.2223 11.5556 24.9446 11.9445 25.0557 12.2779L25.5557 14.0001C24.5001 14.0001 23.6668 13.1112 23.6668 12.0556V10.7223ZM39.9446 30.1112C40.0557 29.8334 39.9446 29.5001 39.6668 29.389C36.6668 27.889 33.6112 27.0556 31.889 26.6667C31.9446 26.6112 32.0001 26.5556 32.0001 26.4445C32.389 25.5001 31.9446 24.4445 31.0001 24.1112L26.7779 22.6667C25.5557 20.7779 24.6668 15.1667 21.9446 15.1667C20.6668 15.1667 19.3335 15.3334 18.6668 17.3334L18.5001 17.1667L18.7779 16.1667C19.0001 15.3334 18.5001 14.5001 17.6668 14.3334L16.5557 14.1112C15.7779 13.9445 15.0001 14.389 14.7779 15.1667L14.4446 16.2779C13.6112 16.4445 12.889 17.1112 12.7223 18.0001L11.0557 25.2779C10.7779 26.389 11.389 27.7223 12.8335 28.0001C12.8335 29.5556 14.0001 30.8334 15.7779 31.7223L11.0001 39.7779C10.389 40.7223 10.5001 42.0001 11.3335 42.7779C12.4446 43.889 14.2223 43.6667 15.0557 42.389L19.4446 35.4445C19.5001 35.389 19.5001 35.2779 19.5001 35.2223L19.8335 33.1112C21.0557 33.389 21.6668 33.389 22.5557 33.3334L24.0557 35.0556V42.1112C24.0557 43.3334 25.0557 44.3334 26.2779 44.3334C27.5001 44.3334 28.5001 43.3334 28.5001 42.1112V34.2779C28.5001 33.6112 28.2779 33.0001 27.7779 32.5556L26.9446 31.6667C28.0557 30.6667 28.0557 29.7223 30.6112 27.4445C31.6112 27.6667 35.5001 28.5001 39.1668 30.3334C39.4446 30.5001 39.7779 30.389 39.9446 30.1112ZM21.889 16.2779C24.2223 17.0001 24.389 21.1667 26.0001 23.4445C26.0557 23.5556 26.1668 23.6112 26.2779 23.6667L30.6668 25.1667C31.0001 25.2779 31.1668 25.6667 31.0557 26.0001C30.889 26.3334 30.5557 26.4445 30.2779 26.3334L24.7779 24.5001C24.7779 24.5001 23.8335 22.8334 22.3335 20.1112C22.1668 19.8334 21.8335 19.7223 21.5557 19.889C21.2779 20.0556 21.1668 20.389 21.3335 20.6667L22.9446 23.5556L22.0557 27.9445C22.0001 28.1112 22.0557 28.3334 22.2223 28.4445L25.2223 31.5556C24.5557 31.889 23.8335 32.1112 23.0001 32.2223L20.2223 29.0556C20.1112 28.9445 19.9446 28.889 19.8335 28.889H19.6668C19.4446 28.9445 19.3335 29.1112 19.2779 29.3334L18.9446 31.7223C18.3335 31.5556 17.7223 31.3334 17.1668 31.1112V28.6112C20.0001 16.1667 19.5557 16.2779 21.889 16.2779ZM16.3335 15.1667L17.4446 15.389C17.6668 15.4445 17.7779 15.6667 17.7223 15.8334L17.4446 16.6667C17.0001 16.5556 17.1668 16.6112 15.6112 16.2779L15.8335 15.4445C15.9446 15.2223 16.1112 15.1112 16.3335 15.1667ZM12.1668 25.5001L13.8335 18.2223C14.0001 17.6112 14.6112 17.2223 15.2223 17.3334C16.889 17.7223 16.5001 17.6112 17.2779 17.7779C17.889 17.9445 18.2779 18.5001 18.1668 19.1667C17.1668 23.4445 17.5557 21.7779 16.5001 26.5001C16.3335 27.1112 15.7223 27.5001 15.1112 27.389L13.0557 26.9445C12.4446 26.7223 12.0557 26.1112 12.1668 25.5001ZM14.0557 28.2223C14.7779 28.389 15.0557 28.4445 15.389 28.4445C15.6112 28.4445 15.889 28.389 16.1112 28.3334C16.0557 28.5556 16.0557 30.2779 16.0557 30.5556C14.9446 29.9445 14.1668 29.1112 14.0557 28.2223ZM18.4446 34.9445L14.1112 41.7779C13.6668 42.5001 12.6668 42.6112 12.1112 42.0001C11.6668 41.5556 11.6112 40.889 11.9446 40.389L16.8335 32.2223C17.4446 32.5001 18.1112 32.7223 18.7779 32.889L18.4446 34.9445ZM20.0001 32.0001L20.2223 30.6667L21.6112 32.2223C20.9446 32.2223 20.5557 32.1667 20.0001 32.0001ZM27.0001 33.3334C27.2223 33.6112 27.389 33.9445 27.389 34.2779V42.1112C27.389 42.7223 26.889 43.2223 26.2779 43.2223C25.6668 43.2223 25.1668 42.7223 25.1668 42.1112V34.8334C25.1668 34.7223 25.1112 34.5556 25.0001 34.4445L23.8335 33.1667C24.6112 33.0001 25.3335 32.7223 26.0001 32.3334L27.0001 33.3334ZM26.1668 30.889L23.1112 27.7779L23.7223 24.9445L23.8335 25.1667C23.889 25.2779 24.0001 25.389 24.1668 25.4445L29.3335 27.1667C27.9446 28.5001 26.2779 30.7779 26.1668 30.889ZM42.7779 31.5001C42.5557 31.2779 42.2223 31.2779 42.0001 31.5001C41.7779 31.7223 41.7779 32.0556 42.0001 32.2779L43.389 33.6667C43.6112 33.889 43.9446 33.889 44.1668 33.6667C44.389 33.4445 44.389 33.1112 44.1668 32.889L42.7779 31.5001ZM40.7779 32.1667C40.7223 31.889 40.389 31.6667 40.1112 31.7779C39.8335 31.8334 39.6112 32.1667 39.7223 32.4445L40.2779 34.4445C40.3335 34.7223 40.6668 34.889 40.9446 34.8334C41.2223 34.7779 41.4446 34.4445 41.3335 34.1667L40.7779 32.1667ZM45.0001 29.7223L43.0001 29.1667C42.7223 29.1112 42.389 29.2779 42.3335 29.5556C42.2779 29.8334 42.4446 30.1667 42.7223 30.2223L44.7223 30.7779C45.0001 30.8334 45.3335 30.6667 45.389 30.389C45.4446 30.1112 45.2779 29.7779 45.0001 29.7223Z" fill="white"/>
</svg>
